<?xml version="1.0" encoding="UTF-8" standalone="no"?><svg xmlns="http://www.w3.org/2000/svg" xmlns:xlink="http://www.w3.org/1999/xlink" clip-rule="evenodd" stroke-miterlimit="10" viewBox="0 0 1024 768"><desc>SVG generated by Keynote</desc><defs></defs><g transform="matrix(1.00, 0.00, -0.00, -1.00, 0.0, 768.0)"><g><clipPath id="clip0x7fd4275fa6a0"><path d="M 0.0 768.0 L 1024.0 768.0 L 1024.0 0.0 L 0.0 0.0 Z M 0.0 768.0 "></path></clipPath><g clip-path="url(#clip0x7fd4275fa6a0)"><image xlink:href="../../D3A9A44C-A1F3-457B-A38D-765D2DDF54DB/assets/EBB0417F320B7CF9EEE7A69128C7B5B4.jpeg" width="2048.00" height="1536.00" transform="matrix(0.50, 0.00, -0.00, -0.50, 0.0, 768.0)"></image></g></g><text xml:space="preserve" font-family="MarkerFelt-Thin,Marker Felt" font-size="80.0" fill="#45A6DE" transform="matrix(1.00, 0.00, -0.00, -1.00, 404.3, 626.4)">E</text><text xml:space="preserve" font-family="MarkerFelt-Thin,Marker Felt" font-size="80.0" fill="#45A6DE" transform="matrix(1.00, 0.00, -0.00, -1.00, 441.1, 626.4)">x</text><text xml:space="preserve" font-family="MarkerFelt-Thin,Marker Felt" font-size="80.0" fill="#45A6DE" transform="matrix(1.00, 0.00, -0.00, -1.00, 477.2, 626.4)">t</text><text xml:space="preserve" font-family="MarkerFelt-Thin,Marker Felt" font-size="80.0" fill="#45A6DE" transform="matrix(1.00, 0.00, -0.00, -1.00, 507.6, 626.4)">e</text><text xml:space="preserve" font-family="MarkerFelt-Thin,Marker Felt" font-size="80.0" fill="#45A6DE" transform="matrix(1.00, 0.00, -0.00, -1.00, 543.2, 626.4)">n</text><text xml:space="preserve" font-family="MarkerFelt-Thin,Marker Felt" font-size="80.0" fill="#45A6DE" transform="matrix(1.00, 0.00, -0.00, -1.00, 585.3, 626.4)">d</text><g><clipPath id="clip0x7fd40a804380"><path d="M 104.0 512.4 L 125.6 512.4 L 125.6 532.6 L 104.0 532.6 Z M 104.0 512.4 "></path></clipPath><g clip-path="url(#clip0x7fd40a804380)"><path d="M 125.3 519.6 C 125.5 519.3 125.6 519.0 125.6 518.7 C 125.6 518.0 125.3 517.4 124.6 516.9 C 123.8 516.3 123.0 516.1 122.1 516.1 C 121.0 516.1 119.6 516.9 118.0 518.7 C 118.0 518.7 118.0 516.1 118.0 516.1 C 118.0 515.8 118.1 515.5 118.2 515.1 C 118.4 514.8 118.5 514.5 118.5 514.4 C 118.5 513.8 118.2 513.3 117.6 513.0 C 117.1 512.6 116.5 512.4 116.0 512.4 C 115.0 512.4 114.1 512.8 113.4 513.7 C 113.2 513.9 113.1 514.6 113.2 515.8 C 113.3 516.9 113.3 518.1 113.4 519.3 C 112.8 518.9 111.7 518.2 110.0 517.3 C 109.8 517.0 109.1 516.6 107.9 516.2 C 107.1 516.2 106.2 516.3 105.3 516.7 C 104.4 517.1 104.0 517.7 104.0 518.4 C 104.0 518.5 104.0 518.7 104.1 518.9 C 104.3 519.2 104.7 519.5 105.2 519.7 C 106.1 520.0 106.6 520.2 106.7 520.2 C 106.7 520.2 111.4 522.8 111.4 522.8 C 111.4 522.8 108.1 524.4 108.1 524.4 C 107.6 524.4 106.9 524.7 106.1 525.1 C 105.9 525.4 105.8 525.7 105.8 526.0 C 105.8 526.8 106.3 527.6 107.3 528.3 C 108.2 529.1 109.2 529.5 110.2 529.5 C 110.5 529.5 110.8 529.4 111.1 529.3 C 111.4 529.2 111.7 528.9 112.0 528.5 C 112.3 527.9 112.7 527.4 113.4 526.9 C 113.4 526.9 113.6 530.0 113.6 530.0 C 113.4 530.4 113.4 531.0 113.6 531.8 C 113.9 532.3 114.8 532.6 116.2 532.6 C 117.4 532.6 118.2 532.2 118.6 531.5 C 118.8 531.2 118.8 530.5 118.7 529.4 C 118.6 528.4 118.5 527.5 118.4 526.5 C 118.4 526.5 120.2 527.4 120.2 527.4 C 120.5 527.8 121.2 528.2 122.1 528.6 C 122.8 528.6 123.5 528.4 124.2 527.8 C 124.8 527.2 125.1 526.6 125.1 525.9 C 125.1 525.6 125.1 525.3 124.9 525.1 C 124.7 524.8 124.4 524.7 124.0 524.6 C 123.4 524.4 123.1 524.3 122.9 524.2 C 122.9 524.2 120.3 522.4 120.3 522.4 C 120.3 522.4 123.7 520.5 123.7 520.5 C 124.1 520.4 124.7 520.1 125.3 519.6 Z M 125.3 519.6 " fill="#3995D6"></path></g></g><text xml:space="preserve" font-family="MarkerFelt-Thin,Marker Felt" font-size="39.6" fill="#858585" transform="matrix(1.00, 0.00, -0.00, -1.00, 147.0, 509.6)">Z</text><text xml:space="preserve" font-family="MarkerFelt-Thin,Marker Felt" font-size="39.6" fill="#858585" transform="matrix(1.00, 0.00, -0.00, -1.00, 168.9, 509.6)">e</text><text xml:space="preserve" font-family="MarkerFelt-Thin,Marker Felt" font-size="39.6" fill="#858585" transform="matrix(1.00, 0.00, -0.00, -1.00, 186.0, 509.6)">p</text><text xml:space="preserve" font-family="MarkerFelt-Thin,Marker Felt" font-size="39.6" fill="#858585" transform="matrix(1.00, 0.00, -0.00, -1.00, 204.1, 509.6)">h</text><text xml:space="preserve" font-family="MarkerFelt-Thin,Marker Felt" font-size="39.6" fill="#858585" transform="matrix(1.00, 0.00, -0.00, -1.00, 223.9, 509.6)">i</text><text xml:space="preserve" font-family="MarkerFelt-Thin,Marker Felt" font-size="39.6" fill="#858585" transform="matrix(1.00, 0.00, -0.00, -1.00, 233.9, 509.6)">r</text><text xml:space="preserve" font-family="MarkerFelt-Thin,Marker Felt" font-size="39.6" fill="#858585" transform="matrix(1.00, 0.00, -0.00, -1.00, 248.9, 509.6)"> </text><text xml:space="preserve" font-family="MarkerFelt-Thin,Marker Felt" font-size="39.6" fill="#858585" transform="matrix(1.00, 0.00, -0.00, -1.00, 258.8, 509.6)">-</text><text xml:space="preserve" font-family="MarkerFelt-Thin,Marker Felt" font-size="39.6" fill="#858585" transform="matrix(1.00, 0.00, -0.00, -1.00, 273.5, 509.6)"> </text><text xml:space="preserve" font-family="MarkerFelt-Thin,Marker Felt" font-size="39.6" fill="#858585" transform="matrix(1.00, 0.00, -0.00, -1.00, 283.4, 509.6)">a</text><text xml:space="preserve" font-family="MarkerFelt-Thin,Marker Felt" font-size="39.6" fill="#858585" transform="matrix(1.00, 0.00, -0.00, -1.00, 301.6, 509.6)"> </text><text xml:space="preserve" font-family="MarkerFelt-Thin,Marker Felt" font-size="39.6" fill="#858585" transform="matrix(1.00, 0.00, -0.00, -1.00, 311.5, 509.6)">p</text><text xml:space="preserve" font-family="MarkerFelt-Thin,Marker Felt" font-size="39.6" fill="#858585" transform="matrix(1.00, 0.00, -0.00, -1.00, 329.5, 509.6)">h</text><text xml:space="preserve" font-family="MarkerFelt-Thin,Marker Felt" font-size="39.6" fill="#858585" transform="matrix(1.00, 0.00, -0.00, -1.00, 349.5, 509.6)">p</text><text xml:space="preserve" font-family="MarkerFelt-Thin,Marker Felt" font-size="39.6" fill="#858585" transform="matrix(1.00, 0.00, -0.00, -1.00, 366.5, 509.6)"> </text><text xml:space="preserve" font-family="MarkerFelt-Thin,Marker Felt" font-size="39.6" fill="#858585" transform="matrix(1.00, 0.00, -0.00, -1.00, 376.4, 509.6)">e</text><text xml:space="preserve" font-family="MarkerFelt-Thin,Marker Felt" font-size="39.6" fill="#858585" transform="matrix(1.00, 0.00, -0.00, -1.00, 394.6, 509.6)">x</text><text xml:space="preserve" font-family="MarkerFelt-Thin,Marker Felt" font-size="39.6" fill="#858585" transform="matrix(1.00, 0.00, -0.00, -1.00, 412.4, 509.6)">t</text><text xml:space="preserve" font-family="MarkerFelt-Thin,Marker Felt" font-size="39.6" fill="#858585" transform="matrix(1.00, 0.00, -0.00, -1.00, 427.5, 509.6)">e</text><text xml:space="preserve" font-family="MarkerFelt-Thin,Marker Felt" font-size="39.6" fill="#858585" transform="matrix(1.00, 0.00, -0.00, -1.00, 445.0, 509.6)">n</text><text xml:space="preserve" font-family="MarkerFelt-Thin,Marker Felt" font-size="39.6" fill="#858585" transform="matrix(1.00, 0.00, -0.00, -1.00, 466.0, 509.6)">s</text><text xml:space="preserve" font-family="MarkerFelt-Thin,Marker Felt" font-size="39.6" fill="#858585" transform="matrix(1.00, 0.00, -0.00, -1.00, 482.3, 509.6)">i</text><text xml:space="preserve" font-family="MarkerFelt-Thin,Marker Felt" font-size="39.6" fill="#858585" transform="matrix(1.00, 0.00, -0.00, -1.00, 491.4, 509.6)">o</text><text xml:space="preserve" font-family="MarkerFelt-Thin,Marker Felt" font-size="39.6" fill="#858585" transform="matrix(1.00, 0.00, -0.00, -1.00, 509.4, 509.6)">n</text><text xml:space="preserve" font-family="MarkerFelt-Thin,Marker Felt" font-size="39.6" fill="#858585" transform="matrix(1.00, 0.00, -0.00, -1.00, 528.8, 509.6)"> </text><text xml:space="preserve" font-family="MarkerFelt-Thin,Marker Felt" font-size="39.6" fill="#858585" transform="matrix(1.00, 0.00, -0.00, -1.00, 538.6, 509.6)">l</text><text xml:space="preserve" font-family="MarkerFelt-Thin,Marker Felt" font-size="39.6" fill="#858585" transform="matrix(1.00, 0.00, -0.00, -1.00, 548.4, 509.6)">a</text><text xml:space="preserve" font-family="MarkerFelt-Thin,Marker Felt" font-size="39.6" fill="#858585" transform="matrix(1.00, 0.00, -0.00, -1.00, 568.1, 509.6)">n</text><text xml:space="preserve" font-family="MarkerFelt-Thin,Marker Felt" font-size="39.6" fill="#858585" transform="matrix(1.00, 0.00, -0.00, -1.00, 588.7, 509.6)">g</text><text xml:space="preserve" font-family="MarkerFelt-Thin,Marker Felt" font-size="39.6" fill="#858585" transform="matrix(1.00, 0.00, -0.00, -1.00, 606.8, 509.6)">u</text><text xml:space="preserve" font-family="MarkerFelt-Thin,Marker Felt" font-size="39.6" fill="#858585" transform="matrix(1.00, 0.00, -0.00, -1.00, 624.4, 509.6)">a</text><text xml:space="preserve" font-family="MarkerFelt-Thin,Marker Felt" font-size="39.6" fill="#858585" transform="matrix(1.00, 0.00, -0.00, -1.00, 643.4, 509.6)">g</text><text xml:space="preserve" font-family="MarkerFelt-Thin,Marker Felt" font-size="39.6" fill="#858585" transform="matrix(1.00, 0.00, -0.00, -1.00, 661.2, 509.6)">e</text><text xml:space="preserve" font-family="MarkerFelt-Thin,Marker Felt" font-size="39.6" fill="#858585" transform="matrix(1.00, 0.00, -0.00, -1.00, 676.2, 509.6)"> </text><g><clipPath id="clip0x7fd40a807790"><path d="M 154.0 433.3 L 175.6 433.3 L 175.6 453.5 L 154.0 453.5 Z M 154.0 433.3 "></path></clipPath><g clip-path="url(#clip0x7fd40a807790)"><path d="M 175.3 440.5 C 175.5 440.2 175.6 439.9 175.6 439.6 C 175.6 438.9 175.3 438.3 174.6 437.8 C 173.8 437.2 173.0 436.9 172.1 436.9 C 171.0 436.9 169.6 437.8 168.0 439.6 C 168.0 439.6 168.0 436.9 168.0 436.9 C 168.0 436.7 168.1 436.4 168.2 436.0 C 168.4 435.7 168.5 435.4 168.5 435.2 C 168.5 434.7 168.2 434.2 167.6 433.8 C 167.1 433.5 166.5 433.3 166.0 433.3 C 165.0 433.3 164.1 433.7 163.4 434.5 C 163.2 434.8 163.1 435.5 163.2 436.6 C 163.3 437.8 163.3 439.0 163.4 440.2 C 162.8 439.8 161.7 439.1 160.0 438.2 C 159.8 437.9 159.1 437.5 157.9 437.1 C 157.1 437.0 156.2 437.2 155.3 437.6 C 154.4 438.0 154.0 438.6 154.0 439.2 C 154.0 439.4 154.0 439.6 154.1 439.7 C 154.3 440.1 154.7 440.4 155.2 440.6 C 156.1 440.9 156.6 441.0 156.7 441.1 C 156.7 441.1 161.4 443.7 161.4 443.7 C 161.4 443.7 158.1 445.3 158.1 445.3 C 157.6 445.3 156.9 445.6 156.1 446.0 C 155.9 446.3 155.8 446.6 155.8 446.9 C 155.8 447.7 156.3 448.4 157.3 449.2 C 158.2 450.0 159.2 450.4 160.2 450.4 C 160.5 450.4 160.8 450.3 161.1 450.2 C 161.4 450.1 161.7 449.8 162.0 449.3 C 162.3 448.7 162.7 448.2 163.4 447.8 C 163.4 447.8 163.6 450.9 163.6 450.9 C 163.4 451.3 163.4 451.9 163.6 452.7 C 163.9 453.2 164.8 453.5 166.2 453.5 C 167.4 453.5 168.2 453.1 168.6 452.4 C 168.8 452.1 168.8 451.4 168.7 450.3 C 168.6 449.3 168.5 448.3 168.4 447.4 C 168.4 447.4 170.2 448.3 170.2 448.3 C 170.5 448.6 171.2 449.0 172.1 449.5 C 172.8 449.5 173.5 449.2 174.2 448.7 C 174.8 448.1 175.1 447.5 175.1 446.8 C 175.1 446.5 175.1 446.2 174.9 446.0 C 174.7 445.7 174.4 445.5 174.0 445.5 C 173.4 445.3 173.1 445.2 172.9 445.1 C 172.9 445.1 170.3 443.2 170.3 443.2 C 170.3 443.2 173.7 441.4 173.7 441.4 C 174.1 441.3 174.7 441.0 175.3 440.5 Z M 175.3 440.5 " fill="#3995D6"></path></g></g><text xml:space="preserve" font-family="MarkerFelt-Thin,Marker Felt" font-size="39.6" fill="#858585" transform="matrix(1.00, 0.00, -0.00, -1.00, 197.0, 430.5)">p</text><text xml:space="preserve" font-family="MarkerFelt-Thin,Marker Felt" font-size="39.6" fill="#858585" transform="matrix(1.00, 0.00, -0.00, -1.00, 215.1, 430.5)">h</text><text xml:space="preserve" font-family="MarkerFelt-Thin,Marker Felt" font-size="39.6" fill="#858585" transform="matrix(1.00, 0.00, -0.00, -1.00, 236.0, 430.5)">a</text><text xml:space="preserve" font-family="MarkerFelt-Thin,Marker Felt" font-size="39.6" fill="#858585" transform="matrix(1.00, 0.00, -0.00, -1.00, 256.1, 430.5)">l</text><text xml:space="preserve" font-family="MarkerFelt-Thin,Marker Felt" font-size="39.6" fill="#858585" transform="matrix(1.00, 0.00, -0.00, -1.00, 265.3, 430.5)">c</text><text xml:space="preserve" font-family="MarkerFelt-Thin,Marker Felt" font-size="39.6" fill="#858585" transform="matrix(1.00, 0.00, -0.00, -1.00, 282.2, 430.5)">o</text><text xml:space="preserve" font-family="MarkerFelt-Thin,Marker Felt" font-size="39.6" fill="#858585" transform="matrix(1.00, 0.00, -0.00, -1.00, 300.1, 430.5)">n</text><text xml:space="preserve" font-family="MarkerFelt-Thin,Marker Felt" font-size="39.6" fill="#858585" transform="matrix(1.00, 0.00, -0.00, -1.00, 320.7, 430.5)">p</text><text xml:space="preserve" font-family="MarkerFelt-Thin,Marker Felt" font-size="39.6" fill="#858585" transform="matrix(1.00, 0.00, -0.00, -1.00, 339.1, 430.5)">l</text><text xml:space="preserve" font-family="MarkerFelt-Thin,Marker Felt" font-size="39.6" fill="#858585" transform="matrix(1.00, 0.00, -0.00, -1.00, 348.3, 430.5)">u</text><text xml:space="preserve" font-family="MarkerFelt-Thin,Marker Felt" font-size="39.6" fill="#858585" transform="matrix(1.00, 0.00, -0.00, -1.00, 365.6, 430.5)">s</text><text xml:space="preserve" font-family="MarkerFelt-Thin,Marker Felt" font-size="39.6" fill="#858585" transform="matrix(1.00, 0.00, -0.00, -1.00, 380.2, 430.5)"> </text><g><clipPath id="clip0x7fd40a813970"><path d="M 104.0 354.1 L 125.6 354.1 L 125.6 374.3 L 104.0 374.3 Z M 104.0 354.1 "></path></clipPath><g clip-path="url(#clip0x7fd40a813970)"><path d="M 125.3 361.4 C 125.5 361.1 125.6 360.8 125.6 360.4 C 125.6 359.8 125.3 359.2 124.6 358.6 C 123.8 358.1 123.0 357.8 122.1 357.8 C 121.0 357.8 119.6 358.7 118.0 360.4 C 118.0 360.4 118.0 357.8 118.0 357.8 C 118.0 357.6 118.1 357.3 118.2 356.9 C 118.4 356.5 118.5 356.3 118.5 356.1 C 118.5 355.6 118.2 355.1 117.6 354.7 C 117.1 354.3 116.5 354.1 116.0 354.1 C 115.0 354.1 114.1 354.6 113.4 355.4 C 113.2 355.7 113.1 356.4 113.2 357.5 C 113.3 358.7 113.3 359.9 113.4 361.1 C 112.8 360.6 111.7 360.0 110.0 359.1 C 109.8 358.8 109.1 358.4 107.9 358.0 C 107.1 357.9 106.2 358.1 105.3 358.5 C 104.4 358.9 104.0 359.4 104.0 360.1 C 104.0 360.3 104.0 360.5 104.1 360.6 C 104.3 361.0 104.7 361.3 105.2 361.4 C 106.1 361.7 106.6 361.9 106.7 362.0 C 106.7 362.0 111.4 364.6 111.4 364.6 C 111.4 364.6 108.1 366.2 108.1 366.2 C 107.6 366.2 106.9 366.4 106.1 366.9 C 105.9 367.2 105.8 367.4 105.8 367.7 C 105.8 368.5 106.3 369.3 107.3 370.1 C 108.2 370.9 109.2 371.2 110.2 371.2 C 110.5 371.2 110.8 371.2 111.1 371.1 C 111.4 371.0 111.7 370.7 112.0 370.2 C 112.3 369.6 112.7 369.1 113.4 368.7 C 113.4 368.7 113.6 371.7 113.6 371.7 C 113.4 372.2 113.4 372.8 113.6 373.6 C 113.9 374.1 114.8 374.3 116.2 374.3 C 117.4 374.3 118.2 374.0 118.6 373.3 C 118.8 373.0 118.8 372.3 118.7 371.2 C 118.6 370.2 118.5 369.2 118.4 368.2 C 118.4 368.2 120.2 369.1 120.2 369.1 C 120.5 369.5 121.2 369.9 122.1 370.3 C 122.8 370.4 123.5 370.1 124.2 369.5 C 124.8 369.0 125.1 368.3 125.1 367.7 C 125.1 367.4 125.1 367.1 124.9 366.8 C 124.7 366.6 124.4 366.4 124.0 366.3 C 123.4 366.2 123.1 366.1 122.9 366.0 C 122.9 366.0 120.3 364.1 120.3 364.1 C 120.3 364.1 123.7 362.3 123.7 362.3 C 124.1 362.1 124.7 361.9 125.3 361.4 Z M 125.3 361.4 " fill="#3995D6"></path></g></g><text xml:space="preserve" font-family="MarkerFelt-Thin,Marker Felt" font-size="39.6" fill="#858585" transform="matrix(1.00, 0.00, -0.00, -1.00, 147.0, 351.4)">S</text><text xml:space="preserve" font-family="MarkerFelt-Thin,Marker Felt" font-size="39.6" fill="#858585" transform="matrix(1.00, 0.00, -0.00, -1.00, 168.5, 351.4)">w</text><text xml:space="preserve" font-family="MarkerFelt-Thin,Marker Felt" font-size="39.6" fill="#858585" transform="matrix(1.00, 0.00, -0.00, -1.00, 197.0, 351.4)">o</text><text xml:space="preserve" font-family="MarkerFelt-Thin,Marker Felt" font-size="39.6" fill="#858585" transform="matrix(1.00, 0.00, -0.00, -1.00, 215.4, 351.4)">o</text><text xml:space="preserve" font-family="MarkerFelt-Thin,Marker Felt" font-size="39.6" fill="#858585" transform="matrix(1.00, 0.00, -0.00, -1.00, 233.3, 351.4)">l</text><text xml:space="preserve" font-family="MarkerFelt-Thin,Marker Felt" font-size="39.6" fill="#858585" transform="matrix(1.00, 0.00, -0.00, -1.00, 242.2, 351.4)">e</text><text xml:space="preserve" font-family="MarkerFelt-Thin,Marker Felt" font-size="39.6" fill="#858585" transform="matrix(1.00, 0.00, -0.00, -1.00, 257.3, 351.4)"> </text><text xml:space="preserve" font-family="MarkerFelt-Thin,Marker Felt" font-size="39.6" fill="#858585" transform="matrix(1.00, 0.00, -0.00, -1.00, 267.1, 351.4)">-</text><text xml:space="preserve" font-family="MarkerFelt-Thin,Marker Felt" font-size="39.6" fill="#858585" transform="matrix(1.00, 0.00, -0.00, -1.00, 281.8, 351.4)"> </text><text xml:space="preserve" font-family="MarkerFelt-Thin,Marker Felt" font-size="39.6" fill="#858585" transform="matrix(1.00, 0.00, -0.00, -1.00, 291.7, 351.4)">N</text><text xml:space="preserve" font-family="MarkerFelt-Thin,Marker Felt" font-size="39.6" fill="#858585" transform="matrix(1.00, 0.00, -0.00, -1.00, 315.4, 351.4)">e</text><text xml:space="preserve" font-family="MarkerFelt-Thin,Marker Felt" font-size="39.6" fill="#858585" transform="matrix(1.00, 0.00, -0.00, -1.00, 333.7, 351.4)">t</text><text xml:space="preserve" font-family="MarkerFelt-Thin,Marker Felt" font-size="39.6" fill="#858585" transform="matrix(1.00, 0.00, -0.00, -1.00, 348.0, 351.4)"> </text><text xml:space="preserve" font-family="MarkerFelt-Thin,Marker Felt" font-size="39.6" fill="#858585" transform="matrix(1.00, 0.00, -0.00, -1.00, 357.9, 351.4)">I</text><text xml:space="preserve" font-family="MarkerFelt-Thin,Marker Felt" font-size="39.6" fill="#858585" transform="matrix(1.00, 0.00, -0.00, -1.00, 367.3, 351.4)">O</text><text xml:space="preserve" font-family="MarkerFelt-Thin,Marker Felt" font-size="39.6" fill="#858585" transform="matrix(1.00, 0.00, -0.00, -1.00, 387.5, 351.4)">/</text><text xml:space="preserve" font-family="MarkerFelt-Thin,Marker Felt" font-size="39.6" fill="#858585" transform="matrix(1.00, 0.00, -0.00, -1.00, 408.1, 351.4)">P</text><text xml:space="preserve" font-family="MarkerFelt-Thin,Marker Felt" font-size="39.6" fill="#858585" transform="matrix(1.00, 0.00, -0.00, -1.00, 425.9, 351.4)">r</text><text xml:space="preserve" font-family="MarkerFelt-Thin,Marker Felt" font-size="39.6" fill="#858585" transform="matrix(1.00, 0.00, -0.00, -1.00, 441.9, 351.4)">o</text><text xml:space="preserve" font-family="MarkerFelt-Thin,Marker Felt" font-size="39.6" fill="#858585" transform="matrix(1.00, 0.00, -0.00, -1.00, 460.1, 351.4)">c</text><text xml:space="preserve" font-family="MarkerFelt-Thin,Marker Felt" font-size="39.6" fill="#858585" transform="matrix(1.00, 0.00, -0.00, -1.00, 476.5, 351.4)">e</text><text xml:space="preserve" font-family="MarkerFelt-Thin,Marker Felt" font-size="39.6" fill="#858585" transform="matrix(1.00, 0.00, -0.00, -1.00, 494.6, 351.4)">s</text><text xml:space="preserve" font-family="MarkerFelt-Thin,Marker Felt" font-size="39.6" fill="#858585" transform="matrix(1.00, 0.00, -0.00, -1.00, 511.3, 351.4)">s</text><text xml:space="preserve" font-family="MarkerFelt-Thin,Marker Felt" font-size="39.6" fill="#858585" transform="matrix(1.00, 0.00, -0.00, -1.00, 525.9, 351.4)"> </text><g><clipPath id="clip0x7fd40a8196e0"><path d="M 154.0 277.1 L 173.9 277.1 L 173.9 295.7 L 154.0 295.7 Z M 154.0 277.1 "></path></clipPath><g clip-path="url(#clip0x7fd40a8196e0)"><path d="M 173.6 283.8 C 173.8 283.5 173.9 283.2 173.9 282.9 C 173.9 282.3 173.6 281.8 172.9 281.3 C 172.3 280.8 171.5 280.5 170.7 280.5 C 169.6 280.5 168.3 281.3 166.9 282.9 C 166.9 282.9 166.9 280.5 166.9 280.5 C 166.9 280.3 167.0 280.0 167.1 279.7 C 167.2 279.4 167.3 279.1 167.3 279.0 C 167.3 278.4 167.1 278.0 166.5 277.7 C 166.0 277.3 165.5 277.1 165.0 277.1 C 164.1 277.1 163.3 277.5 162.7 278.3 C 162.5 278.5 162.4 279.2 162.5 280.2 C 162.5 281.3 162.6 282.4 162.7 283.5 C 162.1 283.1 161.1 282.5 159.5 281.7 C 159.3 281.4 158.7 281.0 157.6 280.7 C 156.9 280.6 156.1 280.8 155.2 281.1 C 154.4 281.5 154.0 282.0 154.0 282.6 C 154.0 282.8 154.0 282.9 154.1 283.1 C 154.3 283.5 154.6 283.7 155.1 283.9 C 155.9 284.1 156.4 284.3 156.5 284.3 C 156.5 284.3 160.9 286.7 160.9 286.7 C 160.9 286.7 157.8 288.2 157.8 288.2 C 157.3 288.2 156.7 288.5 155.9 288.9 C 155.8 289.1 155.7 289.4 155.7 289.7 C 155.7 290.4 156.1 291.1 157.0 291.8 C 157.9 292.5 158.8 292.9 159.7 292.9 C 160.0 292.9 160.2 292.8 160.5 292.7 C 160.8 292.6 161.1 292.4 161.3 291.9 C 161.6 291.4 162.1 290.9 162.7 290.5 C 162.7 290.5 162.8 293.3 162.8 293.3 C 162.7 293.7 162.7 294.3 162.8 295.0 C 163.1 295.5 163.9 295.7 165.2 295.7 C 166.3 295.7 167.1 295.4 167.5 294.7 C 167.6 294.5 167.7 293.8 167.5 292.8 C 167.5 291.9 167.4 291.0 167.3 290.1 C 167.3 290.1 168.9 290.9 168.9 290.9 C 169.2 291.3 169.8 291.7 170.7 292.1 C 171.3 292.1 172.0 291.8 172.6 291.3 C 173.2 290.8 173.5 290.2 173.5 289.6 C 173.5 289.3 173.4 289.1 173.2 288.8 C 173.1 288.6 172.8 288.4 172.4 288.4 C 171.9 288.2 171.6 288.1 171.4 288.0 C 171.4 288.0 169.0 286.3 169.0 286.3 C 169.0 286.3 172.1 284.6 172.1 284.6 C 172.5 284.5 173.0 284.2 173.6 283.8 Z M 173.6 283.8 " fill="#3995D6"></path></g></g><text xml:space="preserve" font-family="Marion-Regular,Marion" font-size="39.6" fill="#858585" transform="matrix(1.00, 0.00, -0.00, -1.00, 197.0, 278.5)">p</text><text xml:space="preserve" font-family="Marion-Regular,Marion" font-size="39.6" fill="#858585" transform="matrix(1.00, 0.00, -0.00, -1.00, 216.0, 278.5)">h</text><text xml:space="preserve" font-family="Marion-Regular,Marion" font-size="39.6" fill="#858585" transform="matrix(1.00, 0.00, -0.00, -1.00, 238.6, 278.5)">p</text><text xml:space="preserve" font-family="Marion-Regular,Marion" font-size="39.6" fill="#858585" transform="matrix(1.00, 0.00, -0.00, -1.00, 258.2, 278.5)"> </text><text xml:space="preserve" font-family="Marion-Regular,Marion" font-size="39.6" fill="#858585" transform="matrix(1.00, 0.00, -0.00, -1.00, 270.1, 278.5)">m</text><text xml:space="preserve" font-family="Marion-Regular,Marion" font-size="39.6" fill="#858585" transform="matrix(1.00, 0.00, -0.00, -1.00, 301.8, 278.5)">u</text><text xml:space="preserve" font-family="Marion-Regular,Marion" font-size="39.6" fill="#858585" transform="matrix(1.00, 0.00, -0.00, -1.00, 323.0, 278.5)">l</text><text xml:space="preserve" font-family="Marion-Regular,Marion" font-size="39.6" fill="#858585" transform="matrix(1.00, 0.00, -0.00, -1.00, 334.6, 278.5)">t</text><text xml:space="preserve" font-family="Marion-Regular,Marion" font-size="39.6" fill="#858585" transform="matrix(1.00, 0.00, -0.00, -1.00, 346.3, 278.5)">i</text><text xml:space="preserve" font-family="Marion-Regular,Marion" font-size="39.6" fill="#858585" transform="matrix(1.00, 0.00, -0.00, -1.00, 358.0, 278.5)">.</text><text xml:space="preserve" font-family="Marion-Regular,Marion" font-size="39.6" fill="#858585" transform="matrix(1.00, 0.00, -0.00, -1.00, 367.2, 278.5)">p</text><text xml:space="preserve" font-family="Marion-Regular,Marion" font-size="39.6" fill="#858585" transform="matrix(1.00, 0.00, -0.00, -1.00, 386.3, 278.5)">h</text><text xml:space="preserve" font-family="Marion-Regular,Marion" font-size="39.6" fill="#858585" transform="matrix(1.00, 0.00, -0.00, -1.00, 408.8, 278.5)">p</text><text xml:space="preserve" font-family="Marion-Regular,Marion" font-size="39.6" fill="#858585" transform="matrix(1.00, 0.00, -0.00, -1.00, 428.5, 278.5)"> </text><text xml:space="preserve" font-family="Marion-Regular,Marion" font-size="39.6" fill="#858585" transform="matrix(1.00, 0.00, -0.00, -1.00, 440.3, 278.5)">m</text><text xml:space="preserve" font-family="Marion-Regular,Marion" font-size="39.6" fill="#858585" transform="matrix(1.00, 0.00, -0.00, -1.00, 472.0, 278.5)">o</text><text xml:space="preserve" font-family="Marion-Regular,Marion" font-size="39.6" fill="#858585" transform="matrix(1.00, 0.00, -0.00, -1.00, 490.4, 278.5)">d</text><text xml:space="preserve" font-family="Marion-Regular,Marion" font-size="39.6" fill="#858585" transform="matrix(1.00, 0.00, -0.00, -1.00, 510.2, 278.5)">e</text><text xml:space="preserve" font-family="Marion-Regular,Marion" font-size="39.6" fill="#858585" transform="matrix(1.00, 0.00, -0.00, -1.00, 527.2, 278.5)">l</text><text xml:space="preserve" font-family="Marion-Regular,Marion" font-size="39.6" fill="#858585" transform="matrix(1.00, 0.00, -0.00, -1.00, 538.9, 278.5)">:</text><text xml:space="preserve" font-family="Marion-Regular,Marion" font-size="39.6" fill="#858585" transform="matrix(1.00, 0.00, -0.00, -1.00, 548.2, 278.5)">m</text><text xml:space="preserve" font-family="Marion-Regular,Marion" font-size="39.6" fill="#858585" transform="matrix(1.00, 0.00, -0.00, -1.00, 579.9, 278.5)">a</text><text xml:space="preserve" font-family="Marion-Regular,Marion" font-size="39.6" fill="#858585" transform="matrix(1.00, 0.00, -0.00, -1.00, 597.4, 278.5)">i</text><text xml:space="preserve" font-family="Marion-Regular,Marion" font-size="39.6" fill="#858585" transform="matrix(1.00, 0.00, -0.00, -1.00, 609.0, 278.5)">n</text><text xml:space="preserve" font-family="Marion-Regular,Marion" font-size="39.6" fill="#858585" transform="matrix(1.00, 0.00, -0.00, -1.00, 630.9, 278.5)">:</text><text xml:space="preserve" font-family="Marion-Regular,Marion" font-size="39.6" fill="#858585" transform="matrix(1.00, 0.00, -0.00, -1.00, 640.2, 278.5)">a</text><text xml:space="preserve" font-family="Marion-Regular,Marion" font-size="39.6" fill="#858585" transform="matrix(1.00, 0.00, -0.00, -1.00, 657.8, 278.5)">,</text><text xml:space="preserve" font-family="Marion-Regular,Marion" font-size="39.6" fill="#858585" transform="matrix(1.00, 0.00, -0.00, -1.00, 667.7, 278.5)">b</text><text xml:space="preserve" font-family="Marion-Regular,Marion" font-size="39.6" fill="#858585" transform="matrix(1.00, 0.00, -0.00, -1.00, 687.3, 278.5)">,</text><text xml:space="preserve" font-family="Marion-Regular,Marion" font-size="39.6" fill="#858585" transform="matrix(1.00, 0.00, -0.00, -1.00, 697.2, 278.5)">c</text><text xml:space="preserve" font-family="Marion-Regular,Marion" font-size="39.6" fill="#858585" transform="matrix(1.00, 0.00, -0.00, -1.00, 713.2, 278.5)"> </text><text xml:space="preserve" font-family="Marion-Regular,Marion" font-size="39.6" fill="#858585" transform="matrix(1.00, 0.00, -0.00, -1.00, 725.0, 278.5)">t</text><text xml:space="preserve" font-family="Marion-Regular,Marion" font-size="39.6" fill="#858585" transform="matrix(1.00, 0.00, -0.00, -1.00, 736.8, 278.5)">e</text><text xml:space="preserve" font-family="Marion-Regular,Marion" font-size="39.6" fill="#858585" transform="matrix(1.00, 0.00, -0.00, -1.00, 753.8, 278.5)">s</text><text xml:space="preserve" font-family="Marion-Regular,Marion" font-size="39.6" fill="#858585" transform="matrix(1.00, 0.00, -0.00, -1.00, 768.1, 278.5)">t</text><text xml:space="preserve" font-family="Marion-Regular,Marion" font-size="39.6" fill="#858585" transform="matrix(1.00, 0.00, -0.00, -1.00, 779.9, 278.5)"> </text><g><clipPath id="clip0x7fd40a832790"><path d="M 104.0 196.9 L 125.6 196.9 L 125.6 217.1 L 104.0 217.1 Z M 104.0 196.9 "></path></clipPath><g clip-path="url(#clip0x7fd40a832790)"><path d="M 125.3 204.1 C 125.5 203.8 125.6 203.5 125.6 203.2 C 125.6 202.6 125.3 202.0 124.6 201.4 C 123.8 200.9 123.0 200.6 122.1 200.6 C 121.0 200.6 119.6 201.5 118.0 203.2 C 118.0 203.2 118.0 200.6 118.0 200.6 C 118.0 200.3 118.1 200.0 118.2 199.7 C 118.4 199.3 118.5 199.0 118.5 198.9 C 118.5 198.3 118.2 197.9 117.6 197.5 C 117.1 197.1 116.5 196.9 116.0 196.9 C 115.0 196.9 114.1 197.3 113.4 198.2 C 113.2 198.4 113.1 199.1 113.2 200.3 C 113.3 201.5 113.3 202.6 113.4 203.8 C 112.8 203.4 111.7 202.7 110.0 201.9 C 109.8 201.5 109.1 201.2 107.9 200.8 C 107.1 200.7 106.2 200.8 105.3 201.2 C 104.4 201.7 104.0 202.2 104.0 202.9 C 104.0 203.0 104.0 203.2 104.1 203.4 C 104.3 203.8 104.7 204.0 105.2 204.2 C 106.1 204.5 106.6 204.7 106.7 204.7 C 106.7 204.7 111.4 207.3 111.4 207.3 C 111.4 207.3 108.1 209.0 108.1 209.0 C 107.6 209.0 106.9 209.2 106.1 209.7 C 105.9 209.9 105.8 210.2 105.8 210.5 C 105.8 211.3 106.3 212.1 107.3 212.8 C 108.2 213.6 109.2 214.0 110.2 214.0 C 110.5 214.0 110.8 213.9 111.1 213.8 C 111.4 213.7 111.7 213.4 112.0 213.0 C 112.3 212.4 112.7 211.9 113.4 211.4 C 113.4 211.4 113.6 214.5 113.6 214.5 C 113.4 214.9 113.4 215.5 113.6 216.3 C 113.9 216.8 114.8 217.1 116.2 217.1 C 117.4 217.1 118.2 216.7 118.6 216.0 C 118.8 215.7 118.8 215.0 118.7 213.9 C 118.6 212.9 118.5 212.0 118.4 211.0 C 118.4 211.0 120.2 211.9 120.2 211.9 C 120.5 212.3 121.2 212.7 122.1 213.1 C 122.8 213.1 123.5 212.9 124.2 212.3 C 124.8 211.7 125.1 211.1 125.1 210.4 C 125.1 210.1 125.1 209.9 124.9 209.6 C 124.7 209.4 124.4 209.2 124.0 209.1 C 123.4 209.0 123.1 208.8 122.9 208.7 C 122.9 208.7 120.3 206.9 120.3 206.9 C 120.3 206.9 123.7 205.0 123.7 205.0 C 124.1 204.9 124.7 204.6 125.3 204.1 Z M 125.3 204.1 " fill="#3995D6"></path></g></g><text xml:space="preserve" font-family="MarkerFelt-Thin,Marker Felt" font-size="39.6" fill="#858585" transform="matrix(1.00, 0.00, -0.00, -1.00, 147.0, 194.1)">P</text><text xml:space="preserve" font-family="MarkerFelt-Thin,Marker Felt" font-size="39.6" fill="#858585" transform="matrix(1.00, 0.00, -0.00, -1.00, 165.9, 194.1)">H</text><text xml:space="preserve" font-family="MarkerFelt-Thin,Marker Felt" font-size="39.6" fill="#858585" transform="matrix(1.00, 0.00, -0.00, -1.00, 186.6, 194.1)">P</text><text xml:space="preserve" font-family="MarkerFelt-Thin,Marker Felt" font-size="39.6" fill="#858585" transform="matrix(1.00, 0.00, -0.00, -1.00, 201.8, 194.1)">-</text><text xml:space="preserve" font-family="MarkerFelt-Thin,Marker Felt" font-size="39.6" fill="#858585" transform="matrix(1.00, 0.00, -0.00, -1.00, 218.1, 194.1)">C</text><text xml:space="preserve" font-family="MarkerFelt-Thin,Marker Felt" font-size="39.6" fill="#858585" transform="matrix(1.00, 0.00, -0.00, -1.00, 237.0, 194.1)">P</text><text xml:space="preserve" font-family="MarkerFelt-Thin,Marker Felt" font-size="39.6" fill="#858585" transform="matrix(1.00, 0.00, -0.00, -1.00, 256.5, 194.1)">P</text><text xml:space="preserve" font-family="MarkerFelt-Thin,Marker Felt" font-size="39.6" fill="#858585" transform="matrix(1.00, 0.00, -0.00, -1.00, 274.3, 194.1)"> </text><text xml:space="preserve" font-family="MarkerFelt-Thin,Marker Felt" font-size="39.6" fill="#858585" transform="matrix(1.00, 0.00, -0.00, -1.00, 284.2, 194.1)">-</text><text xml:space="preserve" font-family="MarkerFelt-Thin,Marker Felt" font-size="39.6" fill="#858585" transform="matrix(1.00, 0.00, -0.00, -1.00, 298.8, 194.1)"> </text><text xml:space="preserve" font-family="MarkerFelt-Thin,Marker Felt" font-size="39.6" fill="#858585" transform="matrix(1.00, 0.00, -0.00, -1.00, 308.7, 194.1)">W</text><text xml:space="preserve" font-family="MarkerFelt-Thin,Marker Felt" font-size="39.6" fill="#858585" transform="matrix(1.00, 0.00, -0.00, -1.00, 344.8, 194.1)">r</text><text xml:space="preserve" font-family="MarkerFelt-Thin,Marker Felt" font-size="39.6" fill="#858585" transform="matrix(1.00, 0.00, -0.00, -1.00, 362.2, 194.1)">i</text><text xml:space="preserve" font-family="MarkerFelt-Thin,Marker Felt" font-size="39.6" fill="#858585" transform="matrix(1.00, 0.00, -0.00, -1.00, 372.8, 194.1)">t</text><text xml:space="preserve" font-family="MarkerFelt-Thin,Marker Felt" font-size="39.6" fill="#858585" transform="matrix(1.00, 0.00, -0.00, -1.00, 387.8, 194.1)">e</text><text xml:space="preserve" font-family="MarkerFelt-Thin,Marker Felt" font-size="39.6" fill="#858585" transform="matrix(1.00, 0.00, -0.00, -1.00, 402.9, 194.1)"> </text><text xml:space="preserve" font-family="MarkerFelt-Thin,Marker Felt" font-size="39.6" fill="#858585" transform="matrix(1.00, 0.00, -0.00, -1.00, 412.8, 194.1)">p</text><text xml:space="preserve" font-family="MarkerFelt-Thin,Marker Felt" font-size="39.6" fill="#858585" transform="matrix(1.00, 0.00, -0.00, -1.00, 430.8, 194.1)">h</text><text xml:space="preserve" font-family="MarkerFelt-Thin,Marker Felt" font-size="39.6" fill="#858585" transform="matrix(1.00, 0.00, -0.00, -1.00, 450.8, 194.1)">p</text><text xml:space="preserve" font-family="MarkerFelt-Thin,Marker Felt" font-size="39.6" fill="#858585" transform="matrix(1.00, 0.00, -0.00, -1.00, 467.8, 194.1)"> </text><text xml:space="preserve" font-family="MarkerFelt-Thin,Marker Felt" font-size="39.6" fill="#858585" transform="matrix(1.00, 0.00, -0.00, -1.00, 477.7, 194.1)">e</text><text xml:space="preserve" font-family="MarkerFelt-Thin,Marker Felt" font-size="39.6" fill="#858585" transform="matrix(1.00, 0.00, -0.00, -1.00, 495.9, 194.1)">x</text><text xml:space="preserve" font-family="MarkerFelt-Thin,Marker Felt" font-size="39.6" fill="#858585" transform="matrix(1.00, 0.00, -0.00, -1.00, 513.7, 194.1)">t</text><text xml:space="preserve" font-family="MarkerFelt-Thin,Marker Felt" font-size="39.6" fill="#858585" transform="matrix(1.00, 0.00, -0.00, -1.00, 528.8, 194.1)">e</text><text xml:space="preserve" font-family="MarkerFelt-Thin,Marker Felt" font-size="39.6" fill="#858585" transform="matrix(1.00, 0.00, -0.00, -1.00, 546.4, 194.1)">n</text><text xml:space="preserve" font-family="MarkerFelt-Thin,Marker Felt" font-size="39.6" fill="#858585" transform="matrix(1.00, 0.00, -0.00, -1.00, 567.3, 194.1)">s</text><text xml:space="preserve" font-family="MarkerFelt-Thin,Marker Felt" font-size="39.6" fill="#858585" transform="matrix(1.00, 0.00, -0.00, -1.00, 583.6, 194.1)">i</text><text xml:space="preserve" font-family="MarkerFelt-Thin,Marker Felt" font-size="39.6" fill="#858585" transform="matrix(1.00, 0.00, -0.00, -1.00, 592.8, 194.1)">o</text><text xml:space="preserve" font-family="MarkerFelt-Thin,Marker Felt" font-size="39.6" fill="#858585" transform="matrix(1.00, 0.00, -0.00, -1.00, 610.7, 194.1)">n</text><text xml:space="preserve" font-family="MarkerFelt-Thin,Marker Felt" font-size="39.6" fill="#858585" transform="matrix(1.00, 0.00, -0.00, -1.00, 630.1, 194.1)"> </text><text xml:space="preserve" font-family="MarkerFelt-Thin,Marker Felt" font-size="39.6" fill="#858585" transform="matrix(1.00, 0.00, -0.00, -1.00, 640.0, 194.1)">w</text><text xml:space="preserve" font-family="MarkerFelt-Thin,Marker Felt" font-size="39.6" fill="#858585" transform="matrix(1.00, 0.00, -0.00, -1.00, 670.5, 194.1)">i</text><text xml:space="preserve" font-family="MarkerFelt-Thin,Marker Felt" font-size="39.6" fill="#858585" transform="matrix(1.00, 0.00, -0.00, -1.00, 681.0, 194.1)">t</text><text xml:space="preserve" font-family="MarkerFelt-Thin,Marker Felt" font-size="39.6" fill="#858585" transform="matrix(1.00, 0.00, -0.00, -1.00, 697.4, 194.1)">h</text><text xml:space="preserve" font-family="MarkerFelt-Thin,Marker Felt" font-size="39.6" fill="#858585" transform="matrix(1.00, 0.00, -0.00, -1.00, 716.0, 194.1)"> </text><text xml:space="preserve" font-family="MarkerFelt-Thin,Marker Felt" font-size="39.6" fill="#858585" transform="matrix(1.00, 0.00, -0.00, -1.00, 725.9, 194.1)">p</text><text xml:space="preserve" font-family="MarkerFelt-Thin,Marker Felt" font-size="39.6" fill="#858585" transform="matrix(1.00, 0.00, -0.00, -1.00, 744.6, 194.1)">u</text><text xml:space="preserve" font-family="MarkerFelt-Thin,Marker Felt" font-size="39.6" fill="#858585" transform="matrix(1.00, 0.00, -0.00, -1.00, 762.6, 194.1)">r</text><text xml:space="preserve" font-family="MarkerFelt-Thin,Marker Felt" font-size="39.6" fill="#858585" transform="matrix(1.00, 0.00, -0.00, -1.00, 777.7, 194.1)">e</text><text xml:space="preserve" font-family="MarkerFelt-Thin,Marker Felt" font-size="39.6" fill="#858585" transform="matrix(1.00, 0.00, -0.00, -1.00, 792.7, 194.1)"> </text><text xml:space="preserve" font-family="MarkerFelt-Thin,Marker Felt" font-size="39.6" fill="#858585" transform="matrix(1.00, 0.00, -0.00, -1.00, 802.6, 194.1)">c</text><text xml:space="preserve" font-family="MarkerFelt-Thin,Marker Felt" font-size="39.6" fill="#858585" transform="matrix(1.00, 0.00, -0.00, -1.00, 817.6, 194.1)">+</text><text xml:space="preserve" font-family="MarkerFelt-Thin,Marker Felt" font-size="39.6" fill="#858585" transform="matrix(1.00, 0.00, -0.00, -1.00, 835.0, 194.1)">+</text><text xml:space="preserve" font-family="MarkerFelt-Thin,Marker Felt" font-size="39.6" fill="#858585" transform="matrix(1.00, 0.00, -0.00, -1.00, 852.4, 194.1)"> </text><g><clipPath id="clip0x7fd40a833770"><path d="M 104.0 117.8 L 125.6 117.8 L 125.6 138.0 L 104.0 138.0 Z M 104.0 117.8 "></path></clipPath><g clip-path="url(#clip0x7fd40a833770)"><path d="M 125.3 125.0 C 125.5 124.7 125.6 124.4 125.6 124.1 C 125.6 123.4 125.3 122.8 124.6 122.3 C 123.8 121.7 123.0 121.5 122.1 121.5 C 121.0 121.5 119.6 122.3 118.0 124.1 C 118.0 124.1 118.0 121.5 118.0 121.5 C 118.0 121.2 118.1 120.9 118.2 120.5 C 118.4 120.2 118.5 119.9 118.5 119.8 C 118.5 119.2 118.2 118.7 117.6 118.4 C 117.1 118.0 116.5 117.8 116.0 117.8 C 115.0 117.8 114.1 118.2 113.4 119.1 C 113.2 119.3 113.1 120.0 113.2 121.2 C 113.3 122.3 113.3 123.5 113.4 124.7 C 112.8 124.3 111.7 123.6 110.0 122.7 C 109.8 122.4 109.1 122.0 107.9 121.6 C 107.1 121.6 106.2 121.7 105.3 122.1 C 104.4 122.5 104.0 123.1 104.0 123.8 C 104.0 123.9 104.0 124.1 104.1 124.3 C 104.3 124.6 104.7 124.9 105.2 125.1 C 106.1 125.4 106.6 125.6 106.7 125.6 C 106.7 125.6 111.4 128.2 111.4 128.2 C 111.4 128.2 108.1 129.8 108.1 129.8 C 107.6 129.8 106.9 130.1 106.1 130.5 C 105.9 130.8 105.8 131.1 105.8 131.4 C 105.8 132.2 106.3 133.0 107.3 133.7 C 108.2 134.5 109.2 134.9 110.2 134.9 C 110.5 134.9 110.8 134.8 111.1 134.7 C 111.4 134.6 111.7 134.3 112.0 133.9 C 112.3 133.3 112.7 132.8 113.4 132.3 C 113.4 132.3 113.6 135.4 113.6 135.4 C 113.4 135.8 113.4 136.4 113.6 137.2 C 113.9 137.7 114.8 138.0 116.2 138.0 C 117.4 138.0 118.2 137.6 118.6 136.9 C 118.8 136.6 118.8 135.9 118.7 134.8 C 118.6 133.8 118.5 132.9 118.4 131.9 C 118.4 131.9 120.2 132.8 120.2 132.8 C 120.5 133.2 121.2 133.6 122.1 134.0 C 122.8 134.0 123.5 133.8 124.2 133.2 C 124.8 132.6 125.1 132.0 125.1 131.3 C 125.1 131.0 125.1 130.7 124.9 130.5 C 124.7 130.2 124.4 130.1 124.0 130.0 C 123.4 129.8 123.1 129.7 122.9 129.6 C 122.9 129.6 120.3 127.8 120.3 127.8 C 120.3 127.8 123.7 125.9 123.7 125.9 C 124.1 125.8 124.7 125.5 125.3 125.0 Z M 125.3 125.0 " fill="#3995D6"></path></g></g><text xml:space="preserve" font-family="MarkerFelt-Thin,Marker Felt" font-size="39.6" fill="#858585" transform="matrix(1.00, 0.00, -0.00, -1.00, 147.0, 115.0)">H</text><text xml:space="preserve" font-family="MarkerFelt-Thin,Marker Felt" font-size="39.6" fill="#858585" transform="matrix(1.00, 0.00, -0.00, -1.00, 168.4, 115.0)">H</text><text xml:space="preserve" font-family="MarkerFelt-Thin,Marker Felt" font-size="39.6" fill="#858585" transform="matrix(1.00, 0.00, -0.00, -1.00, 189.7, 115.0)">V</text><text xml:space="preserve" font-family="MarkerFelt-Thin,Marker Felt" font-size="39.6" fill="#858585" transform="matrix(1.00, 0.00, -0.00, -1.00, 211.1, 115.0)">M</text></g></svg>