<?xml version="1.0" encoding="UTF-8" standalone="no"?><svg xmlns="http://www.w3.org/2000/svg" xmlns:xlink="http://www.w3.org/1999/xlink" clip-rule="evenodd" stroke-miterlimit="10" viewBox="0 0 1024 768"><desc>SVG generated by Keynote</desc><defs></defs><g transform="matrix(1.00, 0.00, -0.00, -1.00, 0.0, 768.0)"><g><clipPath id="clip0x7fd42709ec90"><path d="M 0.0 768.0 L 1024.0 768.0 L 1024.0 0.0 L 0.0 0.0 Z M 0.0 768.0 "></path></clipPath><g clip-path="url(#clip0x7fd42709ec90)"><image xlink:href="../../D3A9A44C-A1F3-457B-A38D-765D2DDF54DB/assets/EBB0417F320B7CF9EEE7A69128C7B5B4.jpeg" width="2048.00" height="1536.00" transform="matrix(0.50, 0.00, -0.00, -0.50, 0.0, 768.0)"></image></g></g><text xml:space="preserve" font-family="MarkerFelt-Thin,Marker Felt" font-size="80.0" fill="#45A6DE" transform="matrix(1.00, 0.00, -0.00, -1.00, 285.6, 626.4)">W</text><text xml:space="preserve" font-family="MarkerFelt-Thin,Marker Felt" font-size="80.0" fill="#45A6DE" transform="matrix(1.00, 0.00, -0.00, -1.00, 361.6, 626.4)">h</text><text xml:space="preserve" font-family="MarkerFelt-Thin,Marker Felt" font-size="80.0" fill="#45A6DE" transform="matrix(1.00, 0.00, -0.00, -1.00, 402.0, 626.4)">y</text><text xml:space="preserve" font-family="MarkerFelt-Thin,Marker Felt" font-size="80.0" fill="#45A6DE" transform="matrix(1.00, 0.00, -0.00, -1.00, 439.6, 626.4)"> </text><text xml:space="preserve" font-family="MarkerFelt-Thin,Marker Felt" font-size="80.0" fill="#45A6DE" transform="matrix(1.00, 0.00, -0.00, -1.00, 459.6, 626.4)">P</text><text xml:space="preserve" font-family="MarkerFelt-Thin,Marker Felt" font-size="80.0" fill="#45A6DE" transform="matrix(1.00, 0.00, -0.00, -1.00, 498.7, 626.4)">h</text><text xml:space="preserve" font-family="MarkerFelt-Thin,Marker Felt" font-size="80.0" fill="#45A6DE" transform="matrix(1.00, 0.00, -0.00, -1.00, 541.0, 626.4)">a</text><text xml:space="preserve" font-family="MarkerFelt-Thin,Marker Felt" font-size="80.0" fill="#45A6DE" transform="matrix(1.00, 0.00, -0.00, -1.00, 581.6, 626.4)">l</text><text xml:space="preserve" font-family="MarkerFelt-Thin,Marker Felt" font-size="80.0" fill="#45A6DE" transform="matrix(1.00, 0.00, -0.00, -1.00, 600.2, 626.4)">c</text><text xml:space="preserve" font-family="MarkerFelt-Thin,Marker Felt" font-size="80.0" fill="#45A6DE" transform="matrix(1.00, 0.00, -0.00, -1.00, 634.4, 626.4)">o</text><text xml:space="preserve" font-family="MarkerFelt-Thin,Marker Felt" font-size="80.0" fill="#45A6DE" transform="matrix(1.00, 0.00, -0.00, -1.00, 670.6, 626.4)">n</text><text xml:space="preserve" font-family="MarkerFelt-Thin,Marker Felt" font-size="80.0" fill="#45A6DE" transform="matrix(1.00, 0.00, -0.00, -1.00, 705.6, 626.4)">?</text><g><clipPath id="clip0x7fd4274c50c0"><path d="M 188.0 201.0 L 836.0 201.0 L 836.0 526.0 L 188.0 526.0 Z M 188.0 201.0 "></path></clipPath><g clip-path="url(#clip0x7fd4274c50c0)"><path d="M 188.0 526.0 L 836.0 526.0 L 836.0 201.0 L 188.0 201.0 Z M 188.0 526.0 " fill="#FFFFFF" fill-opacity="0.00"></path></g></g><g><clipPath id="clip0x7fd4274c61b0"><path d="M 188.0 526.0 L 836.0 526.0 L 836.0 201.0 L 188.0 201.0 Z M 188.0 526.0 "></path></clipPath><g clip-path="url(#clip0x7fd4274c61b0)"><g><clipPath id="clip0x7fd4274c6900"><path d="M 188.0 201.0 L 836.0 201.0 L 836.0 526.0 L 188.0 526.0 Z M 188.0 201.0 "></path></clipPath><g clip-path="url(#clip0x7fd4274c6900)"><image xlink:href="D5DD2E28EA99F21B08E3A48284A0E5E8.png" width="1045.00" height="524.00" transform="matrix(0.62, 0.00, -0.00, -0.62, 188.0, 526.0)"></image></g></g></g></g></g></svg>