<?xml version="1.0" encoding="UTF-8" standalone="no"?><svg xmlns="http://www.w3.org/2000/svg" xmlns:xlink="http://www.w3.org/1999/xlink" clip-rule="evenodd" stroke-miterlimit="10" viewBox="0 0 1024 768"><desc>SVG generated by Keynote</desc><defs></defs><g transform="matrix(1.00, 0.00, -0.00, -1.00, 0.0, 768.0)"><g><clipPath id="clip0x7fd42731d830"><path d="M 0.0 768.0 L 1024.0 768.0 L 1024.0 0.0 L 0.0 0.0 Z M 0.0 768.0 "></path></clipPath><g clip-path="url(#clip0x7fd42731d830)"><image xlink:href="../../D3A9A44C-A1F3-457B-A38D-765D2DDF54DB/assets/EBB0417F320B7CF9EEE7A69128C7B5B4.jpeg" width="2048.00" height="1536.00" transform="matrix(0.50, 0.00, -0.00, -0.50, 0.0, 768.0)"></image></g></g><text xml:space="preserve" font-family="MarkerFelt-Thin,Marker Felt" font-size="80.0" fill="#45A6DE" transform="matrix(1.00, 0.00, -0.00, -1.00, 131.2, 626.4)">F</text><text xml:space="preserve" font-family="MarkerFelt-Thin,Marker Felt" font-size="80.0" fill="#45A6DE" transform="matrix(1.00, 0.00, -0.00, -1.00, 164.8, 626.4)">r</text><text xml:space="preserve" font-family="MarkerFelt-Thin,Marker Felt" font-size="80.0" fill="#45A6DE" transform="matrix(1.00, 0.00, -0.00, -1.00, 197.5, 626.4)">a</text><text xml:space="preserve" font-family="MarkerFelt-Thin,Marker Felt" font-size="80.0" fill="#45A6DE" transform="matrix(1.00, 0.00, -0.00, -1.00, 234.3, 626.4)">m</text><text xml:space="preserve" font-family="MarkerFelt-Thin,Marker Felt" font-size="80.0" fill="#45A6DE" transform="matrix(1.00, 0.00, -0.00, -1.00, 291.9, 626.4)">e</text><text xml:space="preserve" font-family="MarkerFelt-Thin,Marker Felt" font-size="80.0" fill="#45A6DE" transform="matrix(1.00, 0.00, -0.00, -1.00, 328.8, 626.4)">w</text><text xml:space="preserve" font-family="MarkerFelt-Thin,Marker Felt" font-size="80.0" fill="#45A6DE" transform="matrix(1.00, 0.00, -0.00, -1.00, 386.4, 626.4)">o</text><text xml:space="preserve" font-family="MarkerFelt-Thin,Marker Felt" font-size="80.0" fill="#45A6DE" transform="matrix(1.00, 0.00, -0.00, -1.00, 422.3, 626.4)">r</text><text xml:space="preserve" font-family="MarkerFelt-Thin,Marker Felt" font-size="80.0" fill="#45A6DE" transform="matrix(1.00, 0.00, -0.00, -1.00, 457.2, 626.4)">k</text><text xml:space="preserve" font-family="MarkerFelt-Thin,Marker Felt" font-size="80.0" fill="#45A6DE" transform="matrix(1.00, 0.00, -0.00, -1.00, 500.4, 626.4)">:</text><text xml:space="preserve" font-family="MarkerFelt-Thin,Marker Felt" font-size="80.0" fill="#45A6DE" transform="matrix(1.00, 0.00, -0.00, -1.00, 518.8, 626.4)"> </text><text xml:space="preserve" font-family="MarkerFelt-Thin,Marker Felt" font-size="80.0" fill="#45A6DE" transform="matrix(1.00, 0.00, -0.00, -1.00, 538.8, 626.4)">A</text><text xml:space="preserve" font-family="MarkerFelt-Thin,Marker Felt" font-size="80.0" fill="#45A6DE" transform="matrix(1.00, 0.00, -0.00, -1.00, 591.0, 626.4)">u</text><text xml:space="preserve" font-family="MarkerFelt-Thin,Marker Felt" font-size="80.0" fill="#45A6DE" transform="matrix(1.00, 0.00, -0.00, -1.00, 629.4, 626.4)">t</text><text xml:space="preserve" font-family="MarkerFelt-Thin,Marker Felt" font-size="80.0" fill="#45A6DE" transform="matrix(1.00, 0.00, -0.00, -1.00, 661.6, 626.4)">o</text><text xml:space="preserve" font-family="MarkerFelt-Thin,Marker Felt" font-size="80.0" fill="#45A6DE" transform="matrix(1.00, 0.00, -0.00, -1.00, 697.8, 626.4)">l</text><text xml:space="preserve" font-family="MarkerFelt-Thin,Marker Felt" font-size="80.0" fill="#45A6DE" transform="matrix(1.00, 0.00, -0.00, -1.00, 716.9, 626.4)">o</text><text xml:space="preserve" font-family="MarkerFelt-Thin,Marker Felt" font-size="80.0" fill="#45A6DE" transform="matrix(1.00, 0.00, -0.00, -1.00, 753.8, 626.4)">a</text><text xml:space="preserve" font-family="MarkerFelt-Thin,Marker Felt" font-size="80.0" fill="#45A6DE" transform="matrix(1.00, 0.00, -0.00, -1.00, 792.8, 626.4)">d</text><text xml:space="preserve" font-family="MarkerFelt-Thin,Marker Felt" font-size="80.0" fill="#45A6DE" transform="matrix(1.00, 0.00, -0.00, -1.00, 827.2, 626.4)">e</text><text xml:space="preserve" font-family="MarkerFelt-Thin,Marker Felt" font-size="80.0" fill="#45A6DE" transform="matrix(1.00, 0.00, -0.00, -1.00, 862.4, 626.4)">r</text><g><clipPath id="clip0x7fd4274906c0"><path d="M 104.0 313.2 L 129.2 313.2 L 129.2 336.7 L 104.0 336.7 Z M 104.0 313.2 "></path></clipPath><g clip-path="url(#clip0x7fd4274906c0)"><path d="M 128.8 321.7 C 129.1 321.3 129.2 320.9 129.2 320.5 C 129.2 319.8 128.8 319.1 127.9 318.5 C 127.1 317.8 126.1 317.5 125.1 317.5 C 123.7 317.5 122.1 318.5 120.3 320.5 C 120.3 320.5 120.3 317.5 120.3 317.5 C 120.3 317.2 120.4 316.9 120.5 316.4 C 120.7 316.0 120.8 315.7 120.8 315.5 C 120.8 314.9 120.5 314.3 119.8 313.9 C 119.2 313.5 118.6 313.2 117.9 313.2 C 116.8 313.2 115.8 313.7 115.0 314.7 C 114.7 315.0 114.6 315.8 114.7 317.2 C 114.8 318.5 114.9 319.9 115.0 321.3 C 114.3 320.8 112.9 320.0 111.0 319.0 C 110.7 318.6 109.9 318.2 108.6 317.7 C 107.6 317.6 106.6 317.8 105.6 318.3 C 104.5 318.8 104.0 319.4 104.0 320.2 C 104.0 320.4 104.0 320.6 104.1 320.8 C 104.3 321.2 104.8 321.5 105.4 321.7 C 106.4 322.1 107.0 322.3 107.1 322.3 C 107.1 322.3 112.7 325.3 112.7 325.3 C 112.7 325.3 108.7 327.3 108.7 327.3 C 108.1 327.3 107.4 327.5 106.4 328.1 C 106.2 328.4 106.1 328.7 106.1 329.0 C 106.1 330.0 106.7 330.9 107.8 331.8 C 108.9 332.7 110.0 333.1 111.2 333.1 C 111.5 333.1 111.9 333.0 112.3 332.9 C 112.6 332.8 113.0 332.5 113.3 331.9 C 113.6 331.2 114.2 330.6 115.0 330.1 C 115.0 330.1 115.1 333.7 115.1 333.7 C 115.0 334.2 115.0 334.9 115.1 335.8 C 115.5 336.4 116.6 336.7 118.1 336.7 C 119.6 336.7 120.5 336.3 121.0 335.5 C 121.2 335.1 121.2 334.3 121.1 333.0 C 121.0 331.9 120.9 330.8 120.7 329.6 C 120.7 329.6 122.8 330.7 122.8 330.7 C 123.2 331.1 124.0 331.6 125.1 332.1 C 125.9 332.1 126.7 331.8 127.4 331.1 C 128.2 330.5 128.6 329.8 128.6 329.0 C 128.6 328.6 128.5 328.3 128.3 328.0 C 128.1 327.7 127.7 327.5 127.2 327.4 C 126.6 327.3 126.2 327.1 126.0 327.0 C 126.0 327.0 123.0 324.8 123.0 324.8 C 123.0 324.8 126.9 322.7 126.9 322.7 C 127.4 322.5 128.0 322.2 128.8 321.7 Z M 128.8 321.7 " fill="#3995D6"></path></g></g><text xml:space="preserve" font-family="MarkerFelt-Thin,Marker Felt" font-size="46.0" fill="#858585" transform="matrix(1.00, 0.00, -0.00, -1.00, 154.0, 310.0)">F</text><text xml:space="preserve" font-family="MarkerFelt-Thin,Marker Felt" font-size="46.0" fill="#858585" transform="matrix(1.00, 0.00, -0.00, -1.00, 173.3, 310.0)">o</text><text xml:space="preserve" font-family="MarkerFelt-Thin,Marker Felt" font-size="46.0" fill="#858585" transform="matrix(1.00, 0.00, -0.00, -1.00, 194.7, 310.0)">o</text><text xml:space="preserve" font-family="MarkerFelt-Thin,Marker Felt" font-size="46.0" fill="#858585" transform="matrix(1.00, 0.00, -0.00, -1.00, 213.5, 310.0)"> </text><text xml:space="preserve" font-family="MarkerFelt-Thin,Marker Felt" font-size="46.0" fill="#858585" transform="matrix(1.00, 0.00, -0.00, -1.00, 225.0, 310.0)"> </text><text xml:space="preserve" font-family="MarkerFelt-Thin,Marker Felt" font-size="46.0" fill="#858585" transform="matrix(1.00, 0.00, -0.00, -1.00, 236.5, 310.0)"> </text><text xml:space="preserve" font-family="MarkerFelt-Thin,Marker Felt" font-size="46.0" fill="#858585" transform="matrix(1.00, 0.00, -0.00, -1.00, 248.0, 310.0)"> </text><text xml:space="preserve" font-family="MarkerFelt-Thin,Marker Felt" font-size="46.0" fill="#858585" transform="matrix(1.00, 0.00, -0.00, -1.00, 259.5, 310.0)"> </text><text xml:space="preserve" font-family="MarkerFelt-Thin,Marker Felt" font-size="46.0" fill="#858585" transform="matrix(1.00, 0.00, -0.00, -1.00, 271.0, 310.0)"> </text><text xml:space="preserve" font-family="MarkerFelt-Thin,Marker Felt" font-size="46.0" fill="#858585" transform="matrix(1.00, 0.00, -0.00, -1.00, 282.5, 310.0)"> </text><text xml:space="preserve" font-family="MarkerFelt-Thin,Marker Felt" font-size="46.0" fill="#858585" transform="matrix(1.00, 0.00, -0.00, -1.00, 294.0, 310.0)"> </text><text xml:space="preserve" font-family="MarkerFelt-Thin,Marker Felt" font-size="46.0" fill="#858585" transform="matrix(1.00, 0.00, -0.00, -1.00, 305.5, 310.0)"> </text><text xml:space="preserve" font-family="MarkerFelt-Thin,Marker Felt" font-size="46.0" fill="#858585" transform="matrix(1.00, 0.00, -0.00, -1.00, 317.0, 310.0)"> </text><text xml:space="preserve" font-family="MarkerFelt-Thin,Marker Felt" font-size="46.0" fill="#858585" transform="matrix(1.00, 0.00, -0.00, -1.00, 328.5, 310.0)"> </text><text xml:space="preserve" font-family="MarkerFelt-Thin,Marker Felt" font-size="46.0" fill="#858585" transform="matrix(1.00, 0.00, -0.00, -1.00, 340.0, 310.0)"> </text><text xml:space="preserve" font-family="MarkerFelt-Thin,Marker Felt" font-size="46.0" fill="#858585" transform="matrix(1.00, 0.00, -0.00, -1.00, 351.5, 310.0)"> </text><text xml:space="preserve" font-family="MarkerFelt-Thin,Marker Felt" font-size="46.0" fill="#858585" transform="matrix(1.00, 0.00, -0.00, -1.00, 363.0, 310.0)"> </text><text xml:space="preserve" font-family="MarkerFelt-Thin,Marker Felt" font-size="46.0" fill="#858585" transform="matrix(1.00, 0.00, -0.00, -1.00, 374.5, 310.0)"> </text><text xml:space="preserve" font-family="MarkerFelt-Thin,Marker Felt" font-size="46.0" fill="#858585" transform="matrix(1.00, 0.00, -0.00, -1.00, 386.0, 310.0)"> </text><text xml:space="preserve" font-family="MarkerFelt-Thin,Marker Felt" font-size="46.0" fill="#858585" transform="matrix(1.00, 0.00, -0.00, -1.00, 397.5, 310.0)"> </text><text xml:space="preserve" font-family="MarkerFelt-Thin,Marker Felt" font-size="46.0" fill="#858585" transform="matrix(1.00, 0.00, -0.00, -1.00, 409.0, 310.0)"> </text><text xml:space="preserve" font-family="MarkerFelt-Thin,Marker Felt" font-size="46.0" fill="#858585" transform="matrix(1.00, 0.00, -0.00, -1.00, 420.5, 310.0)">-</text><text xml:space="preserve" font-family="MarkerFelt-Thin,Marker Felt" font-size="46.0" fill="#858585" transform="matrix(1.00, 0.00, -0.00, -1.00, 437.5, 310.0)">&gt;</text><text xml:space="preserve" font-family="MarkerFelt-Thin,Marker Felt" font-size="46.0" fill="#858585" transform="matrix(1.00, 0.00, -0.00, -1.00, 455.0, 310.0)"> </text><text xml:space="preserve" font-family="MarkerFelt-Thin,Marker Felt" font-size="46.0" fill="#858585" transform="matrix(1.00, 0.00, -0.00, -1.00, 466.5, 310.0)"> </text><text xml:space="preserve" font-family="MarkerFelt-Thin,Marker Felt" font-size="46.0" fill="#858585" transform="matrix(1.00, 0.00, -0.00, -1.00, 478.0, 310.0)">r</text><text xml:space="preserve" font-family="MarkerFelt-Thin,Marker Felt" font-size="46.0" fill="#858585" transform="matrix(1.00, 0.00, -0.00, -1.00, 495.5, 310.0)">e</text><text xml:space="preserve" font-family="MarkerFelt-Thin,Marker Felt" font-size="46.0" fill="#858585" transform="matrix(1.00, 0.00, -0.00, -1.00, 515.7, 310.0)">g</text><text xml:space="preserve" font-family="MarkerFelt-Thin,Marker Felt" font-size="46.0" fill="#858585" transform="matrix(1.00, 0.00, -0.00, -1.00, 536.5, 310.0)">i</text><text xml:space="preserve" font-family="MarkerFelt-Thin,Marker Felt" font-size="46.0" fill="#858585" transform="matrix(1.00, 0.00, -0.00, -1.00, 547.3, 310.0)">s</text><text xml:space="preserve" font-family="MarkerFelt-Thin,Marker Felt" font-size="46.0" fill="#858585" transform="matrix(1.00, 0.00, -0.00, -1.00, 567.3, 310.0)">t</text><text xml:space="preserve" font-family="MarkerFelt-Thin,Marker Felt" font-size="46.0" fill="#858585" transform="matrix(1.00, 0.00, -0.00, -1.00, 584.8, 310.0)">e</text><text xml:space="preserve" font-family="MarkerFelt-Thin,Marker Felt" font-size="46.0" fill="#858585" transform="matrix(1.00, 0.00, -0.00, -1.00, 605.0, 310.0)">r</text><text xml:space="preserve" font-family="MarkerFelt-Thin,Marker Felt" font-size="46.0" fill="#858585" transform="matrix(1.00, 0.00, -0.00, -1.00, 622.5, 310.0)">D</text><text xml:space="preserve" font-family="MarkerFelt-Thin,Marker Felt" font-size="46.0" fill="#858585" transform="matrix(1.00, 0.00, -0.00, -1.00, 646.7, 310.0)">i</text><text xml:space="preserve" font-family="MarkerFelt-Thin,Marker Felt" font-size="46.0" fill="#858585" transform="matrix(1.00, 0.00, -0.00, -1.00, 658.3, 310.0)">r</text><text xml:space="preserve" font-family="MarkerFelt-Thin,Marker Felt" font-size="46.0" fill="#858585" transform="matrix(1.00, 0.00, -0.00, -1.00, 675.7, 310.0)"> </text><g><clipPath id="clip0x7fd427491620"><path d="M 104.0 221.2 L 129.2 221.2 L 129.2 244.7 L 104.0 244.7 Z M 104.0 221.2 "></path></clipPath><g clip-path="url(#clip0x7fd427491620)"><path d="M 128.8 229.7 C 129.1 229.3 129.2 228.9 129.2 228.5 C 129.2 227.8 128.8 227.1 127.9 226.5 C 127.1 225.8 126.1 225.5 125.1 225.5 C 123.7 225.5 122.1 226.5 120.3 228.5 C 120.3 228.5 120.3 225.5 120.3 225.5 C 120.3 225.2 120.4 224.9 120.5 224.4 C 120.7 224.0 120.8 223.7 120.8 223.5 C 120.8 222.9 120.5 222.3 119.8 221.9 C 119.2 221.5 118.6 221.2 117.9 221.2 C 116.8 221.2 115.8 221.7 115.0 222.7 C 114.7 223.0 114.6 223.8 114.7 225.2 C 114.8 226.5 114.9 227.9 115.0 229.3 C 114.3 228.8 112.9 228.0 111.0 227.0 C 110.7 226.6 109.9 226.2 108.6 225.7 C 107.6 225.6 106.6 225.8 105.6 226.3 C 104.5 226.8 104.0 227.4 104.0 228.2 C 104.0 228.4 104.0 228.6 104.1 228.8 C 104.3 229.2 104.8 229.5 105.4 229.7 C 106.4 230.1 107.0 230.3 107.1 230.3 C 107.1 230.3 112.7 233.3 112.7 233.3 C 112.7 233.3 108.7 235.3 108.7 235.3 C 108.1 235.3 107.4 235.5 106.4 236.1 C 106.2 236.4 106.1 236.7 106.1 237.0 C 106.1 238.0 106.7 238.9 107.8 239.8 C 108.9 240.7 110.0 241.1 111.2 241.1 C 111.5 241.1 111.9 241.0 112.3 240.9 C 112.6 240.8 113.0 240.5 113.3 239.9 C 113.6 239.2 114.2 238.6 115.0 238.1 C 115.0 238.1 115.1 241.7 115.1 241.7 C 115.0 242.2 115.0 242.9 115.1 243.8 C 115.5 244.4 116.6 244.7 118.1 244.7 C 119.6 244.7 120.5 244.3 121.0 243.5 C 121.2 243.1 121.2 242.3 121.1 241.0 C 121.0 239.9 120.9 238.8 120.7 237.6 C 120.7 237.6 122.8 238.7 122.8 238.7 C 123.2 239.1 124.0 239.6 125.1 240.1 C 125.9 240.1 126.7 239.8 127.4 239.1 C 128.2 238.5 128.6 237.8 128.6 237.0 C 128.6 236.6 128.5 236.3 128.3 236.0 C 128.1 235.7 127.7 235.5 127.2 235.4 C 126.6 235.3 126.2 235.1 126.0 235.0 C 126.0 235.0 123.0 232.8 123.0 232.8 C 123.0 232.8 126.9 230.7 126.9 230.7 C 127.4 230.5 128.0 230.2 128.8 229.7 Z M 128.8 229.7 " fill="#3995D6"></path></g></g><text xml:space="preserve" font-family="MarkerFelt-Thin,Marker Felt" font-size="46.0" fill="#858585" transform="matrix(1.00, 0.00, -0.00, -1.00, 154.0, 218.0)">F</text><text xml:space="preserve" font-family="MarkerFelt-Thin,Marker Felt" font-size="46.0" fill="#858585" transform="matrix(1.00, 0.00, -0.00, -1.00, 173.3, 218.0)">o</text><text xml:space="preserve" font-family="MarkerFelt-Thin,Marker Felt" font-size="46.0" fill="#858585" transform="matrix(1.00, 0.00, -0.00, -1.00, 194.7, 218.0)">o</text><text xml:space="preserve" font-family="MarkerFelt-Thin,Marker Felt" font-size="46.0" fill="#858585" transform="matrix(1.00, 0.00, -0.00, -1.00, 213.5, 218.0)">_</text><text xml:space="preserve" font-family="MarkerFelt-Thin,Marker Felt" font-size="46.0" fill="#858585" transform="matrix(1.00, 0.00, -0.00, -1.00, 236.1, 218.0)">B</text><text xml:space="preserve" font-family="MarkerFelt-Thin,Marker Felt" font-size="46.0" fill="#858585" transform="matrix(1.00, 0.00, -0.00, -1.00, 258.6, 218.0)">a</text><text xml:space="preserve" font-family="MarkerFelt-Thin,Marker Felt" font-size="46.0" fill="#858585" transform="matrix(1.00, 0.00, -0.00, -1.00, 281.6, 218.0)">r</text><text xml:space="preserve" font-family="MarkerFelt-Thin,Marker Felt" font-size="46.0" fill="#858585" transform="matrix(1.00, 0.00, -0.00, -1.00, 299.1, 218.0)"> </text><text xml:space="preserve" font-family="MarkerFelt-Thin,Marker Felt" font-size="46.0" fill="#858585" transform="matrix(1.00, 0.00, -0.00, -1.00, 310.6, 218.0)"> </text><text xml:space="preserve" font-family="MarkerFelt-Thin,Marker Felt" font-size="46.0" fill="#858585" transform="matrix(1.00, 0.00, -0.00, -1.00, 322.1, 218.0)"> </text><text xml:space="preserve" font-family="MarkerFelt-Thin,Marker Felt" font-size="46.0" fill="#858585" transform="matrix(1.00, 0.00, -0.00, -1.00, 333.6, 218.0)"> </text><text xml:space="preserve" font-family="MarkerFelt-Thin,Marker Felt" font-size="46.0" fill="#858585" transform="matrix(1.00, 0.00, -0.00, -1.00, 345.1, 218.0)"> </text><text xml:space="preserve" font-family="MarkerFelt-Thin,Marker Felt" font-size="46.0" fill="#858585" transform="matrix(1.00, 0.00, -0.00, -1.00, 356.6, 218.0)"> </text><text xml:space="preserve" font-family="MarkerFelt-Thin,Marker Felt" font-size="46.0" fill="#858585" transform="matrix(1.00, 0.00, -0.00, -1.00, 368.1, 218.0)"> </text><text xml:space="preserve" font-family="MarkerFelt-Thin,Marker Felt" font-size="46.0" fill="#858585" transform="matrix(1.00, 0.00, -0.00, -1.00, 379.6, 218.0)"> </text><text xml:space="preserve" font-family="MarkerFelt-Thin,Marker Felt" font-size="46.0" fill="#858585" transform="matrix(1.00, 0.00, -0.00, -1.00, 391.1, 218.0)"> </text><text xml:space="preserve" font-family="MarkerFelt-Thin,Marker Felt" font-size="46.0" fill="#858585" transform="matrix(1.00, 0.00, -0.00, -1.00, 402.6, 218.0)"> </text><text xml:space="preserve" font-family="MarkerFelt-Thin,Marker Felt" font-size="46.0" fill="#858585" transform="matrix(1.00, 0.00, -0.00, -1.00, 414.1, 218.0)"> </text><text xml:space="preserve" font-family="MarkerFelt-Thin,Marker Felt" font-size="46.0" fill="#858585" transform="matrix(1.00, 0.00, -0.00, -1.00, 425.6, 218.0)">-</text><text xml:space="preserve" font-family="MarkerFelt-Thin,Marker Felt" font-size="46.0" fill="#858585" transform="matrix(1.00, 0.00, -0.00, -1.00, 442.6, 218.0)">&gt;</text><text xml:space="preserve" font-family="MarkerFelt-Thin,Marker Felt" font-size="46.0" fill="#858585" transform="matrix(1.00, 0.00, -0.00, -1.00, 460.1, 218.0)"> </text><text xml:space="preserve" font-family="MarkerFelt-Thin,Marker Felt" font-size="46.0" fill="#858585" transform="matrix(1.00, 0.00, -0.00, -1.00, 471.6, 218.0)">r</text><text xml:space="preserve" font-family="MarkerFelt-Thin,Marker Felt" font-size="46.0" fill="#858585" transform="matrix(1.00, 0.00, -0.00, -1.00, 489.1, 218.0)">e</text><text xml:space="preserve" font-family="MarkerFelt-Thin,Marker Felt" font-size="46.0" fill="#858585" transform="matrix(1.00, 0.00, -0.00, -1.00, 509.3, 218.0)">g</text><text xml:space="preserve" font-family="MarkerFelt-Thin,Marker Felt" font-size="46.0" fill="#858585" transform="matrix(1.00, 0.00, -0.00, -1.00, 530.1, 218.0)">i</text><text xml:space="preserve" font-family="MarkerFelt-Thin,Marker Felt" font-size="46.0" fill="#858585" transform="matrix(1.00, 0.00, -0.00, -1.00, 540.9, 218.0)">s</text><text xml:space="preserve" font-family="MarkerFelt-Thin,Marker Felt" font-size="46.0" fill="#858585" transform="matrix(1.00, 0.00, -0.00, -1.00, 560.9, 218.0)">t</text><text xml:space="preserve" font-family="MarkerFelt-Thin,Marker Felt" font-size="46.0" fill="#858585" transform="matrix(1.00, 0.00, -0.00, -1.00, 578.4, 218.0)">e</text><text xml:space="preserve" font-family="MarkerFelt-Thin,Marker Felt" font-size="46.0" fill="#858585" transform="matrix(1.00, 0.00, -0.00, -1.00, 598.6, 218.0)">r</text><text xml:space="preserve" font-family="MarkerFelt-Thin,Marker Felt" font-size="46.0" fill="#858585" transform="matrix(1.00, 0.00, -0.00, -1.00, 616.1, 218.0)">P</text><text xml:space="preserve" font-family="MarkerFelt-Thin,Marker Felt" font-size="46.0" fill="#858585" transform="matrix(1.00, 0.00, -0.00, -1.00, 636.8, 218.0)">r</text><text xml:space="preserve" font-family="MarkerFelt-Thin,Marker Felt" font-size="46.0" fill="#858585" transform="matrix(1.00, 0.00, -0.00, -1.00, 654.3, 218.0)">e</text><text xml:space="preserve" font-family="MarkerFelt-Thin,Marker Felt" font-size="46.0" fill="#858585" transform="matrix(1.00, 0.00, -0.00, -1.00, 671.8, 218.0)">ï¬</text><text xml:space="preserve" font-family="MarkerFelt-Thin,Marker Felt" font-size="46.0" fill="#858585" transform="matrix(1.00, 0.00, -0.00, -1.00, 692.5, 218.0)">x</text><text xml:space="preserve" font-family="MarkerFelt-Thin,Marker Felt" font-size="46.0" fill="#858585" transform="matrix(1.00, 0.00, -0.00, -1.00, 711.3, 218.0)"> </text><g><clipPath id="clip0x7fd4274ae520"><path d="M 104.0 129.2 L 129.2 129.2 L 129.2 152.7 L 104.0 152.7 Z M 104.0 129.2 "></path></clipPath><g clip-path="url(#clip0x7fd4274ae520)"><path d="M 128.8 137.7 C 129.1 137.3 129.2 136.9 129.2 136.5 C 129.2 135.8 128.8 135.1 127.9 134.5 C 127.1 133.8 126.1 133.5 125.1 133.5 C 123.7 133.5 122.1 134.5 120.3 136.5 C 120.3 136.5 120.3 133.5 120.3 133.5 C 120.3 133.2 120.4 132.9 120.5 132.4 C 120.7 132.0 120.8 131.7 120.8 131.5 C 120.8 130.9 120.5 130.3 119.8 129.9 C 119.2 129.5 118.6 129.2 117.9 129.2 C 116.8 129.2 115.8 129.7 115.0 130.7 C 114.7 131.0 114.6 131.8 114.7 133.2 C 114.8 134.5 114.9 135.9 115.0 137.3 C 114.3 136.8 112.9 136.0 111.0 135.0 C 110.7 134.6 109.9 134.2 108.6 133.7 C 107.6 133.6 106.6 133.8 105.6 134.3 C 104.5 134.8 104.0 135.4 104.0 136.2 C 104.0 136.4 104.0 136.6 104.1 136.8 C 104.3 137.2 104.8 137.5 105.4 137.7 C 106.4 138.1 107.0 138.3 107.1 138.3 C 107.1 138.3 112.7 141.3 112.7 141.3 C 112.7 141.3 108.7 143.3 108.7 143.3 C 108.1 143.3 107.4 143.5 106.4 144.1 C 106.2 144.4 106.1 144.7 106.1 145.0 C 106.1 146.0 106.7 146.9 107.8 147.8 C 108.9 148.7 110.0 149.1 111.2 149.1 C 111.5 149.1 111.9 149.0 112.3 148.9 C 112.6 148.8 113.0 148.5 113.3 147.9 C 113.6 147.2 114.2 146.6 115.0 146.1 C 115.0 146.1 115.1 149.7 115.1 149.7 C 115.0 150.2 115.0 150.9 115.1 151.8 C 115.5 152.4 116.6 152.7 118.1 152.7 C 119.6 152.7 120.5 152.3 121.0 151.5 C 121.2 151.1 121.2 150.3 121.1 149.0 C 121.0 147.9 120.9 146.8 120.7 145.6 C 120.7 145.6 122.8 146.7 122.8 146.7 C 123.2 147.1 124.0 147.6 125.1 148.1 C 125.9 148.1 126.7 147.8 127.4 147.1 C 128.2 146.5 128.6 145.8 128.6 145.0 C 128.6 144.6 128.5 144.3 128.3 144.0 C 128.1 143.7 127.7 143.5 127.2 143.4 C 126.6 143.3 126.2 143.1 126.0 143.0 C 126.0 143.0 123.0 140.8 123.0 140.8 C 123.0 140.8 126.9 138.7 126.9 138.7 C 127.4 138.5 128.0 138.2 128.8 137.7 Z M 128.8 137.7 " fill="#3995D6"></path></g></g><text xml:space="preserve" font-family="MarkerFelt-Thin,Marker Felt" font-size="46.0" fill="#858585" transform="matrix(1.00, 0.00, -0.00, -1.00, 154.0, 126.0)">F</text><text xml:space="preserve" font-family="MarkerFelt-Thin,Marker Felt" font-size="46.0" fill="#858585" transform="matrix(1.00, 0.00, -0.00, -1.00, 173.3, 126.0)">o</text><text xml:space="preserve" font-family="MarkerFelt-Thin,Marker Felt" font-size="46.0" fill="#858585" transform="matrix(1.00, 0.00, -0.00, -1.00, 194.7, 126.0)">o</text><text xml:space="preserve" font-family="MarkerFelt-Thin,Marker Felt" font-size="46.0" fill="#858585" transform="matrix(1.00, 0.00, -0.00, -1.00, 208.0, 126.0)">\</text><text xml:space="preserve" font-family="MarkerFelt-Thin,Marker Felt" font-size="46.0" fill="#858585" transform="matrix(1.00, 0.00, -0.00, -1.00, 232.0, 126.0)">B</text><text xml:space="preserve" font-family="MarkerFelt-Thin,Marker Felt" font-size="46.0" fill="#858585" transform="matrix(1.00, 0.00, -0.00, -1.00, 254.6, 126.0)">a</text><text xml:space="preserve" font-family="MarkerFelt-Thin,Marker Felt" font-size="46.0" fill="#858585" transform="matrix(1.00, 0.00, -0.00, -1.00, 277.6, 126.0)">r</text><text xml:space="preserve" font-family="MarkerFelt-Thin,Marker Felt" font-size="46.0" fill="#858585" transform="matrix(1.00, 0.00, -0.00, -1.00, 295.1, 126.0)"> </text><text xml:space="preserve" font-family="MarkerFelt-Thin,Marker Felt" font-size="46.0" fill="#858585" transform="matrix(1.00, 0.00, -0.00, -1.00, 306.6, 126.0)"> </text><text xml:space="preserve" font-family="MarkerFelt-Thin,Marker Felt" font-size="46.0" fill="#858585" transform="matrix(1.00, 0.00, -0.00, -1.00, 318.1, 126.0)"> </text><text xml:space="preserve" font-family="MarkerFelt-Thin,Marker Felt" font-size="46.0" fill="#858585" transform="matrix(1.00, 0.00, -0.00, -1.00, 329.6, 126.0)"> </text><text xml:space="preserve" font-family="MarkerFelt-Thin,Marker Felt" font-size="46.0" fill="#858585" transform="matrix(1.00, 0.00, -0.00, -1.00, 341.1, 126.0)"> </text><text xml:space="preserve" font-family="MarkerFelt-Thin,Marker Felt" font-size="46.0" fill="#858585" transform="matrix(1.00, 0.00, -0.00, -1.00, 352.6, 126.0)"> </text><text xml:space="preserve" font-family="MarkerFelt-Thin,Marker Felt" font-size="46.0" fill="#858585" transform="matrix(1.00, 0.00, -0.00, -1.00, 364.1, 126.0)"> </text><text xml:space="preserve" font-family="MarkerFelt-Thin,Marker Felt" font-size="46.0" fill="#858585" transform="matrix(1.00, 0.00, -0.00, -1.00, 375.6, 126.0)"> </text><text xml:space="preserve" font-family="MarkerFelt-Thin,Marker Felt" font-size="46.0" fill="#858585" transform="matrix(1.00, 0.00, -0.00, -1.00, 387.1, 126.0)"> </text><text xml:space="preserve" font-family="MarkerFelt-Thin,Marker Felt" font-size="46.0" fill="#858585" transform="matrix(1.00, 0.00, -0.00, -1.00, 398.6, 126.0)"> </text><text xml:space="preserve" font-family="MarkerFelt-Thin,Marker Felt" font-size="46.0" fill="#858585" transform="matrix(1.00, 0.00, -0.00, -1.00, 410.1, 126.0)"> </text><text xml:space="preserve" font-family="MarkerFelt-Thin,Marker Felt" font-size="46.0" fill="#858585" transform="matrix(1.00, 0.00, -0.00, -1.00, 421.6, 126.0)"> </text><text xml:space="preserve" font-family="MarkerFelt-Thin,Marker Felt" font-size="46.0" fill="#858585" transform="matrix(1.00, 0.00, -0.00, -1.00, 433.1, 126.0)">-</text><text xml:space="preserve" font-family="MarkerFelt-Thin,Marker Felt" font-size="46.0" fill="#858585" transform="matrix(1.00, 0.00, -0.00, -1.00, 450.1, 126.0)">&gt;</text><text xml:space="preserve" font-family="MarkerFelt-Thin,Marker Felt" font-size="46.0" fill="#858585" transform="matrix(1.00, 0.00, -0.00, -1.00, 467.6, 126.0)"> </text><text xml:space="preserve" font-family="MarkerFelt-Thin,Marker Felt" font-size="46.0" fill="#858585" transform="matrix(1.00, 0.00, -0.00, -1.00, 479.1, 126.0)">r</text><text xml:space="preserve" font-family="MarkerFelt-Thin,Marker Felt" font-size="46.0" fill="#858585" transform="matrix(1.00, 0.00, -0.00, -1.00, 496.6, 126.0)">e</text><text xml:space="preserve" font-family="MarkerFelt-Thin,Marker Felt" font-size="46.0" fill="#858585" transform="matrix(1.00, 0.00, -0.00, -1.00, 516.8, 126.0)">g</text><text xml:space="preserve" font-family="MarkerFelt-Thin,Marker Felt" font-size="46.0" fill="#858585" transform="matrix(1.00, 0.00, -0.00, -1.00, 537.6, 126.0)">i</text><text xml:space="preserve" font-family="MarkerFelt-Thin,Marker Felt" font-size="46.0" fill="#858585" transform="matrix(1.00, 0.00, -0.00, -1.00, 548.4, 126.0)">s</text><text xml:space="preserve" font-family="MarkerFelt-Thin,Marker Felt" font-size="46.0" fill="#858585" transform="matrix(1.00, 0.00, -0.00, -1.00, 568.3, 126.0)">t</text><text xml:space="preserve" font-family="MarkerFelt-Thin,Marker Felt" font-size="46.0" fill="#858585" transform="matrix(1.00, 0.00, -0.00, -1.00, 585.8, 126.0)">e</text><text xml:space="preserve" font-family="MarkerFelt-Thin,Marker Felt" font-size="46.0" fill="#858585" transform="matrix(1.00, 0.00, -0.00, -1.00, 606.1, 126.0)">r</text><text xml:space="preserve" font-family="MarkerFelt-Thin,Marker Felt" font-size="46.0" fill="#858585" transform="matrix(1.00, 0.00, -0.00, -1.00, 623.6, 126.0)">N</text><text xml:space="preserve" font-family="MarkerFelt-Thin,Marker Felt" font-size="46.0" fill="#858585" transform="matrix(1.00, 0.00, -0.00, -1.00, 653.6, 126.0)">a</text><text xml:space="preserve" font-family="MarkerFelt-Thin,Marker Felt" font-size="46.0" fill="#858585" transform="matrix(1.00, 0.00, -0.00, -1.00, 674.8, 126.0)">m</text><text xml:space="preserve" font-family="MarkerFelt-Thin,Marker Felt" font-size="46.0" fill="#858585" transform="matrix(1.00, 0.00, -0.00, -1.00, 707.9, 126.0)">e</text><text xml:space="preserve" font-family="MarkerFelt-Thin,Marker Felt" font-size="46.0" fill="#858585" transform="matrix(1.00, 0.00, -0.00, -1.00, 728.9, 126.0)">s</text><text xml:space="preserve" font-family="MarkerFelt-Thin,Marker Felt" font-size="46.0" fill="#858585" transform="matrix(1.00, 0.00, -0.00, -1.00, 747.3, 126.0)">p</text><text xml:space="preserve" font-family="MarkerFelt-Thin,Marker Felt" font-size="46.0" fill="#858585" transform="matrix(1.00, 0.00, -0.00, -1.00, 769.2, 126.0)">a</text><text xml:space="preserve" font-family="MarkerFelt-Thin,Marker Felt" font-size="46.0" fill="#858585" transform="matrix(1.00, 0.00, -0.00, -1.00, 791.5, 126.0)">c</text><text xml:space="preserve" font-family="MarkerFelt-Thin,Marker Felt" font-size="46.0" fill="#858585" transform="matrix(1.00, 0.00, -0.00, -1.00, 810.7, 126.0)">e</text><text xml:space="preserve" font-family="MarkerFelt-Thin,Marker Felt" font-size="32.0" fill="#858584" transform="matrix(1.00, 0.00, -0.00, -1.00, 474.9, 581.3)">P</text><text xml:space="preserve" font-family="MarkerFelt-Thin,Marker Felt" font-size="32.0" fill="#858584" transform="matrix(1.00, 0.00, -0.00, -1.00, 489.3, 581.3)">S</text><text xml:space="preserve" font-family="MarkerFelt-Thin,Marker Felt" font-size="32.0" fill="#858584" transform="matrix(1.00, 0.00, -0.00, -1.00, 505.0, 581.3)">R</text><text xml:space="preserve" font-family="MarkerFelt-Thin,Marker Felt" font-size="32.0" fill="#858584" transform="matrix(1.00, 0.00, -0.00, -1.00, 517.5, 581.3)">-</text><text xml:space="preserve" font-family="MarkerFelt-Thin,Marker Felt" font-size="32.0" fill="#858584" transform="matrix(1.00, 0.00, -0.00, -1.00, 530.9, 581.3)">4</text><image xlink:href="../../970F39A3-2F5A-4422-B858-4EB0C0EA28CA/assets/12A822D32BED92886966078DDEC8CB44.png" width="922.00" height="262.00" transform="matrix(0.73, 0.00, -0.00, -0.73, 174.0, 564.0)"></image></g></svg>