<?xml version="1.0" encoding="UTF-8" standalone="no"?><svg xmlns="http://www.w3.org/2000/svg" xmlns:xlink="http://www.w3.org/1999/xlink" clip-rule="evenodd" stroke-miterlimit="10" viewBox="0 0 1024 768"><desc>SVG generated by Keynote</desc><defs></defs><g transform="matrix(1.00, 0.00, -0.00, -1.00, 0.0, 768.0)"><g><clipPath id="clip0x7fd40844d6c0"><path d="M 0.0 768.0 L 1024.0 768.0 L 1024.0 0.0 L 0.0 0.0 Z M 0.0 768.0 "></path></clipPath><g clip-path="url(#clip0x7fd40844d6c0)"><image xlink:href="../../D3A9A44C-A1F3-457B-A38D-765D2DDF54DB/assets/EBB0417F320B7CF9EEE7A69128C7B5B4.jpeg" width="2048.00" height="1536.00" transform="matrix(0.50, 0.00, -0.00, -0.50, 0.0, 768.0)"></image></g></g><text xml:space="preserve" font-family="MarkerFelt-Thin,Marker Felt" font-size="80.0" fill="#45A6DE" transform="matrix(1.00, 0.00, -0.00, -1.00, 256.8, 626.4)">b</text><text xml:space="preserve" font-family="MarkerFelt-Thin,Marker Felt" font-size="80.0" fill="#45A6DE" transform="matrix(1.00, 0.00, -0.00, -1.00, 295.4, 626.4)">a</text><text xml:space="preserve" font-family="MarkerFelt-Thin,Marker Felt" font-size="80.0" fill="#45A6DE" transform="matrix(1.00, 0.00, -0.00, -1.00, 334.3, 626.4)">c</text><text xml:space="preserve" font-family="MarkerFelt-Thin,Marker Felt" font-size="80.0" fill="#45A6DE" transform="matrix(1.00, 0.00, -0.00, -1.00, 367.7, 626.4)">k</text><text xml:space="preserve" font-family="MarkerFelt-Thin,Marker Felt" font-size="80.0" fill="#45A6DE" transform="matrix(1.00, 0.00, -0.00, -1.00, 409.6, 626.4)">e</text><text xml:space="preserve" font-family="MarkerFelt-Thin,Marker Felt" font-size="80.0" fill="#45A6DE" transform="matrix(1.00, 0.00, -0.00, -1.00, 445.1, 626.4)">n</text><text xml:space="preserve" font-family="MarkerFelt-Thin,Marker Felt" font-size="80.0" fill="#45A6DE" transform="matrix(1.00, 0.00, -0.00, -1.00, 487.2, 626.4)">d</text><text xml:space="preserve" font-family="MarkerFelt-Thin,Marker Felt" font-size="80.0" fill="#45A6DE" transform="matrix(1.00, 0.00, -0.00, -1.00, 523.8, 626.4)">:</text><text xml:space="preserve" font-family="MarkerFelt-Thin,Marker Felt" font-size="80.0" fill="#45A6DE" transform="matrix(1.00, 0.00, -0.00, -1.00, 542.2, 626.4)"> </text><text xml:space="preserve" font-family="MarkerFelt-Thin,Marker Felt" font-size="80.0" fill="#45A6DE" transform="matrix(1.00, 0.00, -0.00, -1.00, 562.2, 626.4)">P</text><text xml:space="preserve" font-family="MarkerFelt-Thin,Marker Felt" font-size="80.0" fill="#45A6DE" transform="matrix(1.00, 0.00, -0.00, -1.00, 598.2, 626.4)">r</text><text xml:space="preserve" font-family="MarkerFelt-Thin,Marker Felt" font-size="80.0" fill="#45A6DE" transform="matrix(1.00, 0.00, -0.00, -1.00, 630.7, 626.4)">o</text><text xml:space="preserve" font-family="MarkerFelt-Thin,Marker Felt" font-size="80.0" fill="#45A6DE" transform="matrix(1.00, 0.00, -0.00, -1.00, 669.1, 626.4)">t</text><text xml:space="preserve" font-family="MarkerFelt-Thin,Marker Felt" font-size="80.0" fill="#45A6DE" transform="matrix(1.00, 0.00, -0.00, -1.00, 701.2, 626.4)">o</text><text xml:space="preserve" font-family="MarkerFelt-Thin,Marker Felt" font-size="80.0" fill="#45A6DE" transform="matrix(1.00, 0.00, -0.00, -1.00, 737.6, 626.4)">s</text><image xlink:href="../../0C9FC29B-EA22-4658-89A4-AF8296CFC759/assets/7DF951F34863834A35BEA84EB6EA0A7F.png" width="2482.00" height="1264.00" transform="matrix(0.41, 0.00, -0.00, -0.41, 0.0, 525.0)"></image><text xml:space="preserve" font-family="MarkerFelt-Thin,Marker Felt" font-size="32.0" fill="#858584" transform="matrix(1.00, 0.00, -0.00, -1.00, 224.3, 560.1)">h</text><text xml:space="preserve" font-family="MarkerFelt-Thin,Marker Felt" font-size="32.0" fill="#858584" transform="matrix(1.00, 0.00, -0.00, -1.00, 241.2, 560.1)">t</text><text xml:space="preserve" font-family="MarkerFelt-Thin,Marker Felt" font-size="32.0" fill="#858584" transform="matrix(1.00, 0.00, -0.00, -1.00, 255.5, 560.1)">t</text><text xml:space="preserve" font-family="MarkerFelt-Thin,Marker Felt" font-size="32.0" fill="#858584" transform="matrix(1.00, 0.00, -0.00, -1.00, 269.2, 560.1)">p</text><text xml:space="preserve" font-family="MarkerFelt-Thin,Marker Felt" font-size="32.0" fill="#858584" transform="matrix(1.00, 0.00, -0.00, -1.00, 283.0, 560.1)">:</text><text xml:space="preserve" font-family="MarkerFelt-Thin,Marker Felt" font-size="32.0" fill="#858584" transform="matrix(1.00, 0.00, -0.00, -1.00, 290.3, 560.1)">/</text><text xml:space="preserve" font-family="MarkerFelt-Thin,Marker Felt" font-size="32.0" fill="#858584" transform="matrix(1.00, 0.00, -0.00, -1.00, 299.5, 560.1)">/</text><text xml:space="preserve" font-family="MarkerFelt-Thin,Marker Felt" font-size="32.0" fill="#858584" transform="matrix(1.00, 0.00, -0.00, -1.00, 311.5, 560.1)">d</text><text xml:space="preserve" font-family="MarkerFelt-Thin,Marker Felt" font-size="32.0" fill="#858584" transform="matrix(1.00, 0.00, -0.00, -1.00, 325.2, 560.1)">e</text><text xml:space="preserve" font-family="MarkerFelt-Thin,Marker Felt" font-size="32.0" fill="#858584" transform="matrix(1.00, 0.00, -0.00, -1.00, 339.8, 560.1)">v</text><text xml:space="preserve" font-family="MarkerFelt-Thin,Marker Felt" font-size="32.0" fill="#858584" transform="matrix(1.00, 0.00, -0.00, -1.00, 355.7, 560.1)">h</text><text xml:space="preserve" font-family="MarkerFelt-Thin,Marker Felt" font-size="32.0" fill="#858584" transform="matrix(1.00, 0.00, -0.00, -1.00, 372.2, 560.1)">e</text><text xml:space="preserve" font-family="MarkerFelt-Thin,Marker Felt" font-size="32.0" fill="#858584" transform="matrix(1.00, 0.00, -0.00, -1.00, 386.3, 560.1)">l</text><text xml:space="preserve" font-family="MarkerFelt-Thin,Marker Felt" font-size="32.0" fill="#858584" transform="matrix(1.00, 0.00, -0.00, -1.00, 393.7, 560.1)">p</text><text xml:space="preserve" font-family="MarkerFelt-Thin,Marker Felt" font-size="32.0" fill="#858584" transform="matrix(1.00, 0.00, -0.00, -1.00, 408.6, 560.1)">e</text><text xml:space="preserve" font-family="MarkerFelt-Thin,Marker Felt" font-size="32.0" fill="#858584" transform="matrix(1.00, 0.00, -0.00, -1.00, 422.7, 560.1)">r</text><text xml:space="preserve" font-family="MarkerFelt-Thin,Marker Felt" font-size="32.0" fill="#858584" transform="matrix(1.00, 0.00, -0.00, -1.00, 430.8, 560.1)">.</text><text xml:space="preserve" font-family="MarkerFelt-Thin,Marker Felt" font-size="32.0" fill="#858584" transform="matrix(1.00, 0.00, -0.00, -1.00, 436.9, 560.1)">ï¬</text><text xml:space="preserve" font-family="MarkerFelt-Thin,Marker Felt" font-size="32.0" fill="#858584" transform="matrix(1.00, 0.00, -0.00, -1.00, 451.3, 560.1)">r</text><text xml:space="preserve" font-family="MarkerFelt-Thin,Marker Felt" font-size="32.0" fill="#858584" transform="matrix(1.00, 0.00, -0.00, -1.00, 463.4, 560.1)">s</text><text xml:space="preserve" font-family="MarkerFelt-Thin,Marker Felt" font-size="32.0" fill="#858584" transform="matrix(1.00, 0.00, -0.00, -1.00, 477.3, 560.1)">t</text><text xml:space="preserve" font-family="MarkerFelt-Thin,Marker Felt" font-size="32.0" fill="#858584" transform="matrix(1.00, 0.00, -0.00, -1.00, 491.0, 560.1)">p</text><text xml:space="preserve" font-family="MarkerFelt-Thin,Marker Felt" font-size="32.0" fill="#858584" transform="matrix(1.00, 0.00, -0.00, -1.00, 504.1, 560.1)">2</text><text xml:space="preserve" font-family="MarkerFelt-Thin,Marker Felt" font-size="32.0" fill="#858584" transform="matrix(1.00, 0.00, -0.00, -1.00, 522.3, 560.1)">p</text><text xml:space="preserve" font-family="MarkerFelt-Thin,Marker Felt" font-size="32.0" fill="#858584" transform="matrix(1.00, 0.00, -0.00, -1.00, 537.2, 560.1)">l</text><text xml:space="preserve" font-family="MarkerFelt-Thin,Marker Felt" font-size="32.0" fill="#858584" transform="matrix(1.00, 0.00, -0.00, -1.00, 544.9, 560.1)">o</text><text xml:space="preserve" font-family="MarkerFelt-Thin,Marker Felt" font-size="32.0" fill="#858584" transform="matrix(1.00, 0.00, -0.00, -1.00, 559.6, 560.1)">c</text><text xml:space="preserve" font-family="MarkerFelt-Thin,Marker Felt" font-size="32.0" fill="#858584" transform="matrix(1.00, 0.00, -0.00, -1.00, 573.6, 560.1)">a</text><text xml:space="preserve" font-family="MarkerFelt-Thin,Marker Felt" font-size="32.0" fill="#858584" transform="matrix(1.00, 0.00, -0.00, -1.00, 589.8, 560.1)">l</text><text xml:space="preserve" font-family="MarkerFelt-Thin,Marker Felt" font-size="32.0" fill="#858584" transform="matrix(1.00, 0.00, -0.00, -1.00, 597.9, 560.1)">.</text><text xml:space="preserve" font-family="MarkerFelt-Thin,Marker Felt" font-size="32.0" fill="#858584" transform="matrix(1.00, 0.00, -0.00, -1.00, 604.9, 560.1)">c</text><text xml:space="preserve" font-family="MarkerFelt-Thin,Marker Felt" font-size="32.0" fill="#858584" transform="matrix(1.00, 0.00, -0.00, -1.00, 618.6, 560.1)">o</text><text xml:space="preserve" font-family="MarkerFelt-Thin,Marker Felt" font-size="32.0" fill="#858584" transform="matrix(1.00, 0.00, -0.00, -1.00, 632.4, 560.1)">m</text><text xml:space="preserve" font-family="MarkerFelt-Thin,Marker Felt" font-size="32.0" fill="#858584" transform="matrix(1.00, 0.00, -0.00, -1.00, 657.2, 560.1)">/</text><text xml:space="preserve" font-family="MarkerFelt-Thin,Marker Felt" font-size="32.0" fill="#858584" transform="matrix(1.00, 0.00, -0.00, -1.00, 673.8, 560.1)">i</text><text xml:space="preserve" font-family="MarkerFelt-Thin,Marker Felt" font-size="32.0" fill="#858584" transform="matrix(1.00, 0.00, -0.00, -1.00, 680.9, 560.1)">d</text><text xml:space="preserve" font-family="MarkerFelt-Thin,Marker Felt" font-size="32.0" fill="#858584" transform="matrix(1.00, 0.00, -0.00, -1.00, 695.9, 560.1)">l</text><text xml:space="preserve" font-family="MarkerFelt-Thin,Marker Felt" font-size="32.0" fill="#858584" transform="matrix(1.00, 0.00, -0.00, -1.00, 703.5, 560.1)">/</text><text xml:space="preserve" font-family="MarkerFelt-Thin,Marker Felt" font-size="32.0" fill="#858584" transform="matrix(1.00, 0.00, -0.00, -1.00, 717.3, 560.1)">p</text><text xml:space="preserve" font-family="MarkerFelt-Thin,Marker Felt" font-size="32.0" fill="#858584" transform="matrix(1.00, 0.00, -0.00, -1.00, 732.1, 560.1)">r</text><text xml:space="preserve" font-family="MarkerFelt-Thin,Marker Felt" font-size="32.0" fill="#858584" transform="matrix(1.00, 0.00, -0.00, -1.00, 745.1, 560.1)">o</text><text xml:space="preserve" font-family="MarkerFelt-Thin,Marker Felt" font-size="32.0" fill="#858584" transform="matrix(1.00, 0.00, -0.00, -1.00, 760.4, 560.1)">t</text><text xml:space="preserve" font-family="MarkerFelt-Thin,Marker Felt" font-size="32.0" fill="#858584" transform="matrix(1.00, 0.00, -0.00, -1.00, 773.3, 560.1)">o</text><text xml:space="preserve" font-family="MarkerFelt-Thin,Marker Felt" font-size="32.0" fill="#858584" transform="matrix(1.00, 0.00, -0.00, -1.00, 787.8, 560.1)">s</text><g><clipPath id="clip0x7fd40844fb80"><path d="M 223.3 554.5 L 799.7 554.5 L 799.7 557.2 L 223.3 557.2 Z M 223.3 554.5 "></path></clipPath><g clip-path="url(#clip0x7fd40844fb80)"><path d="M 4.5 36.3 L 579.9 36.3 " fill="none" stroke="#858584" stroke-width="0.64" transform="matrix(1.00, 0.00, 0.00, -1.00, 219.8, 592.1)"></path></g></g></g></svg>