<?xml version="1.0" encoding="UTF-8" standalone="no"?><svg xmlns="http://www.w3.org/2000/svg" xmlns:xlink="http://www.w3.org/1999/xlink" clip-rule="evenodd" stroke-miterlimit="10" viewBox="0 0 1024 768"><desc>SVG generated by Keynote</desc><defs></defs><g transform="matrix(1.00, 0.00, -0.00, -1.00, 0.0, 768.0)"><g><clipPath id="clip0x7fd4273f97f0"><path d="M 0.0 768.0 L 1024.0 768.0 L 1024.0 0.0 L 0.0 0.0 Z M 0.0 768.0 "></path></clipPath><g clip-path="url(#clip0x7fd4273f97f0)"><image xlink:href="../../D3A9A44C-A1F3-457B-A38D-765D2DDF54DB/assets/EBB0417F320B7CF9EEE7A69128C7B5B4.jpeg" width="2048.00" height="1536.00" transform="matrix(0.50, 0.00, -0.00, -0.50, 0.0, 768.0)"></image></g></g><text xml:space="preserve" font-family="MarkerFelt-Thin,Marker Felt" font-size="80.0" fill="#45A6DE" transform="matrix(1.00, 0.00, -0.00, -1.00, 210.8, 626.4)">b</text><text xml:space="preserve" font-family="MarkerFelt-Thin,Marker Felt" font-size="80.0" fill="#45A6DE" transform="matrix(1.00, 0.00, -0.00, -1.00, 249.4, 626.4)">a</text><text xml:space="preserve" font-family="MarkerFelt-Thin,Marker Felt" font-size="80.0" fill="#45A6DE" transform="matrix(1.00, 0.00, -0.00, -1.00, 288.2, 626.4)">c</text><text xml:space="preserve" font-family="MarkerFelt-Thin,Marker Felt" font-size="80.0" fill="#45A6DE" transform="matrix(1.00, 0.00, -0.00, -1.00, 321.7, 626.4)">k</text><text xml:space="preserve" font-family="MarkerFelt-Thin,Marker Felt" font-size="80.0" fill="#45A6DE" transform="matrix(1.00, 0.00, -0.00, -1.00, 363.5, 626.4)">e</text><text xml:space="preserve" font-family="MarkerFelt-Thin,Marker Felt" font-size="80.0" fill="#45A6DE" transform="matrix(1.00, 0.00, -0.00, -1.00, 399.0, 626.4)">n</text><text xml:space="preserve" font-family="MarkerFelt-Thin,Marker Felt" font-size="80.0" fill="#45A6DE" transform="matrix(1.00, 0.00, -0.00, -1.00, 441.2, 626.4)">d</text><text xml:space="preserve" font-family="MarkerFelt-Thin,Marker Felt" font-size="80.0" fill="#45A6DE" transform="matrix(1.00, 0.00, -0.00, -1.00, 477.8, 626.4)">:</text><text xml:space="preserve" font-family="MarkerFelt-Thin,Marker Felt" font-size="80.0" fill="#45A6DE" transform="matrix(1.00, 0.00, -0.00, -1.00, 496.2, 626.4)"> </text><text xml:space="preserve" font-family="MarkerFelt-Thin,Marker Felt" font-size="80.0" fill="#45A6DE" transform="matrix(1.00, 0.00, -0.00, -1.00, 516.2, 626.4)">i</text><text xml:space="preserve" font-family="MarkerFelt-Thin,Marker Felt" font-size="80.0" fill="#45A6DE" transform="matrix(1.00, 0.00, -0.00, -1.00, 536.0, 626.4)">n</text><text xml:space="preserve" font-family="MarkerFelt-Thin,Marker Felt" font-size="80.0" fill="#45A6DE" transform="matrix(1.00, 0.00, -0.00, -1.00, 578.2, 626.4)">d</text><text xml:space="preserve" font-family="MarkerFelt-Thin,Marker Felt" font-size="80.0" fill="#45A6DE" transform="matrix(1.00, 0.00, -0.00, -1.00, 612.6, 626.4)">e</text><text xml:space="preserve" font-family="MarkerFelt-Thin,Marker Felt" font-size="80.0" fill="#45A6DE" transform="matrix(1.00, 0.00, -0.00, -1.00, 649.4, 626.4)">x</text><text xml:space="preserve" font-family="MarkerFelt-Thin,Marker Felt" font-size="80.0" fill="#45A6DE" transform="matrix(1.00, 0.00, -0.00, -1.00, 684.9, 626.4)">.</text><text xml:space="preserve" font-family="MarkerFelt-Thin,Marker Felt" font-size="80.0" fill="#45A6DE" transform="matrix(1.00, 0.00, -0.00, -1.00, 701.9, 626.4)">p</text><text xml:space="preserve" font-family="MarkerFelt-Thin,Marker Felt" font-size="80.0" fill="#45A6DE" transform="matrix(1.00, 0.00, -0.00, -1.00, 738.5, 626.4)">h</text><text xml:space="preserve" font-family="MarkerFelt-Thin,Marker Felt" font-size="80.0" fill="#45A6DE" transform="matrix(1.00, 0.00, -0.00, -1.00, 778.8, 626.4)">p</text><image xlink:href="432B84970376919145A34380BD0F22EF.png" width="2576.00" height="1156.00" transform="matrix(0.40, 0.00, -0.00, -0.40, 0.0, 460.0)"></image><image xlink:href="16C033266AAC99CDCE72D3B69F14FDA9.png" width="996.00" height="150.00" transform="matrix(0.66, 0.00, -0.00, -0.66, 183.0, 595.0)"></image><text xml:space="preserve" font-family="MarkerFelt-Thin,Marker Felt" font-size="96.0" fill="#858584" transform="matrix(1.00, 0.00, -0.00, -1.00, 702.6, 200.3)">M</text><text xml:space="preserve" font-family="MarkerFelt-Thin,Marker Felt" font-size="96.0" fill="#858584" transform="matrix(1.00, 0.00, -0.00, -1.00, 796.3, 200.3)">a</text><text xml:space="preserve" font-family="MarkerFelt-Thin,Marker Felt" font-size="96.0" fill="#858584" transform="matrix(1.00, 0.00, -0.00, -1.00, 842.4, 200.3)">g</text><text xml:space="preserve" font-family="MarkerFelt-Thin,Marker Felt" font-size="96.0" fill="#858584" transform="matrix(1.00, 0.00, -0.00, -1.00, 885.9, 200.3)">i</text><text xml:space="preserve" font-family="MarkerFelt-Thin,Marker Felt" font-size="96.0" fill="#858584" transform="matrix(1.00, 0.00, -0.00, -1.00, 907.7, 200.3)">c</text></g></svg>