<?xml version="1.0" encoding="UTF-8" standalone="no"?><svg xmlns="http://www.w3.org/2000/svg" xmlns:xlink="http://www.w3.org/1999/xlink" clip-rule="evenodd" stroke-miterlimit="10" viewBox="0 0 1024 768"><desc>SVG generated by Keynote</desc><defs></defs><g transform="matrix(1.00, 0.00, -0.00, -1.00, 0.0, 768.0)"><g><clipPath id="clip0x7fd425ba4ba0"><path d="M 0.0 768.0 L 1024.0 768.0 L 1024.0 0.0 L 0.0 0.0 Z M 0.0 768.0 "></path></clipPath><g clip-path="url(#clip0x7fd425ba4ba0)"><image xlink:href="../../D3A9A44C-A1F3-457B-A38D-765D2DDF54DB/assets/EBB0417F320B7CF9EEE7A69128C7B5B4.jpeg" width="2048.00" height="1536.00" transform="matrix(0.50, 0.00, -0.00, -0.50, 0.0, 768.0)"></image></g></g><text xml:space="preserve" font-family="MarkerFelt-Thin,Marker Felt" font-size="95.0" fill="#45A6DE" transform="matrix(1.00, 0.00, -0.00, -1.00, 345.3, 455.7)">L</text><text xml:space="preserve" font-family="MarkerFelt-Thin,Marker Felt" font-size="95.0" fill="#45A6DE" transform="matrix(1.00, 0.00, -0.00, -1.00, 388.3, 455.7)">e</text><text xml:space="preserve" font-family="MarkerFelt-Thin,Marker Felt" font-size="95.0" fill="#45A6DE" transform="matrix(1.00, 0.00, -0.00, -1.00, 431.6, 455.7)">s</text><text xml:space="preserve" font-family="MarkerFelt-Thin,Marker Felt" font-size="95.0" fill="#45A6DE" transform="matrix(1.00, 0.00, -0.00, -1.00, 471.8, 455.7)">s</text><text xml:space="preserve" font-family="MarkerFelt-Thin,Marker Felt" font-size="95.0" fill="#45A6DE" transform="matrix(1.00, 0.00, -0.00, -1.00, 511.2, 455.7)">o</text><text xml:space="preserve" font-family="MarkerFelt-Thin,Marker Felt" font-size="95.0" fill="#45A6DE" transform="matrix(1.00, 0.00, -0.00, -1.00, 554.3, 455.7)">n</text><text xml:space="preserve" font-family="MarkerFelt-Thin,Marker Felt" font-size="95.0" fill="#45A6DE" transform="matrix(1.00, 0.00, -0.00, -1.00, 600.8, 455.7)"> </text><text xml:space="preserve" font-family="MarkerFelt-Thin,Marker Felt" font-size="95.0" fill="#45A6DE" transform="matrix(1.00, 0.00, -0.00, -1.00, 624.6, 455.7)">1</text><text xml:space="preserve" font-family="MarkerFelt-Thin,Marker Felt" font-size="95.0" fill="#45A6DE" transform="matrix(1.00, 0.00, -0.00, -1.00, 678.7, 455.7)"> </text><text xml:space="preserve" font-family="MarkerFelt-Thin,Marker Felt" font-size="95.0" fill="#45A6DE" transform="matrix(1.00, 0.00, -0.00, -1.00, 326.8, 249.7)">O</text><text xml:space="preserve" font-family="MarkerFelt-Thin,Marker Felt" font-size="95.0" fill="#45A6DE" transform="matrix(1.00, 0.00, -0.00, -1.00, 384.4, 249.7)">v</text><text xml:space="preserve" font-family="MarkerFelt-Thin,Marker Felt" font-size="95.0" fill="#45A6DE" transform="matrix(1.00, 0.00, -0.00, -1.00, 428.2, 249.7)">e</text><text xml:space="preserve" font-family="MarkerFelt-Thin,Marker Felt" font-size="95.0" fill="#45A6DE" transform="matrix(1.00, 0.00, -0.00, -1.00, 470.0, 249.7)">r</text><text xml:space="preserve" font-family="MarkerFelt-Thin,Marker Felt" font-size="95.0" fill="#45A6DE" transform="matrix(1.00, 0.00, -0.00, -1.00, 515.6, 249.7)">v</text><text xml:space="preserve" font-family="MarkerFelt-Thin,Marker Felt" font-size="95.0" fill="#45A6DE" transform="matrix(1.00, 0.00, -0.00, -1.00, 564.2, 249.7)">i</text><text xml:space="preserve" font-family="MarkerFelt-Thin,Marker Felt" font-size="95.0" fill="#45A6DE" transform="matrix(1.00, 0.00, -0.00, -1.00, 585.1, 249.7)">e</text><text xml:space="preserve" font-family="MarkerFelt-Thin,Marker Felt" font-size="95.0" fill="#45A6DE" transform="matrix(1.00, 0.00, -0.00, -1.00, 628.9, 249.7)">w</text></g></svg>