<?xml version="1.0" encoding="UTF-8" standalone="no"?><svg xmlns="http://www.w3.org/2000/svg" xmlns:xlink="http://www.w3.org/1999/xlink" clip-rule="evenodd" stroke-miterlimit="10" viewBox="0 0 1024 768"><desc>SVG generated by Keynote</desc><defs></defs><g transform="matrix(1.00, 0.00, -0.00, -1.00, 0.0, 768.0)"><g><clipPath id="clip0x7fd40a852040"><path d="M 0.0 768.0 L 1024.0 768.0 L 1024.0 0.0 L 0.0 0.0 Z M 0.0 768.0 "></path></clipPath><g clip-path="url(#clip0x7fd40a852040)"><image xlink:href="../../D3A9A44C-A1F3-457B-A38D-765D2DDF54DB/assets/EBB0417F320B7CF9EEE7A69128C7B5B4.jpeg" width="2048.00" height="1536.00" transform="matrix(0.50, 0.00, -0.00, -0.50, 0.0, 768.0)"></image></g></g><text xml:space="preserve" font-family="MarkerFelt-Thin,Marker Felt" font-size="96.0" fill="#858584" transform="matrix(1.00, 0.00, -0.00, -1.00, 427.5, 352.4)">Q</text><text xml:space="preserve" font-family="MarkerFelt-Thin,Marker Felt" font-size="96.0" fill="#858584" transform="matrix(1.00, 0.00, -0.00, -1.00, 483.2, 352.4)">&amp;</text><text xml:space="preserve" font-family="MarkerFelt-Thin,Marker Felt" font-size="96.0" fill="#858584" transform="matrix(1.00, 0.00, -0.00, -1.00, 537.0, 352.4)">A</text><image xlink:href="D2E0EE1C8CA86F658DFFB58363BE2D37.png" width="128.00" height="128.00" transform="matrix(1.00, 0.00, -0.00, -1.00, 448.0, 582.0)"></image><image xlink:href="1378E13743E61339B20812703DF61BE4.png" width="128.00" height="128.00" transform="matrix(1.00, 0.00, -0.00, -1.00, 287.0, 582.0)"></image><image xlink:href="4015163487FE518E39C1C3CBCB562118.png" width="128.00" height="128.00" transform="matrix(1.00, 0.00, -0.00, -1.00, 609.0, 582.0)"></image></g></svg>