<?xml version="1.0" encoding="UTF-8" standalone="no"?><svg xmlns="http://www.w3.org/2000/svg" xmlns:xlink="http://www.w3.org/1999/xlink" clip-rule="evenodd" stroke-miterlimit="10" viewBox="0 0 1024 768"><desc>SVG generated by Keynote</desc><defs></defs><g transform="matrix(1.00, 0.00, -0.00, -1.00, 0.0, 768.0)"><g><clipPath id="clip0x7fd4247128d0"><path d="M 0.0 768.0 L 1024.0 768.0 L 1024.0 0.0 L 0.0 0.0 Z M 0.0 768.0 "></path></clipPath><g clip-path="url(#clip0x7fd4247128d0)"><image xlink:href="../../D3A9A44C-A1F3-457B-A38D-765D2DDF54DB/assets/EBB0417F320B7CF9EEE7A69128C7B5B4.jpeg" width="2048.00" height="1536.00" transform="matrix(0.50, 0.00, -0.00, -0.50, 0.0, 768.0)"></image></g></g><text xml:space="preserve" font-family="MarkerFelt-Thin,Marker Felt" font-size="80.0" fill="#45A6DE" transform="matrix(1.00, 0.00, -0.00, -1.00, 365.8, 626.4)">E</text><text xml:space="preserve" font-family="MarkerFelt-Thin,Marker Felt" font-size="80.0" fill="#45A6DE" transform="matrix(1.00, 0.00, -0.00, -1.00, 398.0, 626.4)">v</text><text xml:space="preserve" font-family="MarkerFelt-Thin,Marker Felt" font-size="80.0" fill="#45A6DE" transform="matrix(1.00, 0.00, -0.00, -1.00, 436.6, 626.4)">o</text><text xml:space="preserve" font-family="MarkerFelt-Thin,Marker Felt" font-size="80.0" fill="#45A6DE" transform="matrix(1.00, 0.00, -0.00, -1.00, 472.8, 626.4)">l</text><text xml:space="preserve" font-family="MarkerFelt-Thin,Marker Felt" font-size="80.0" fill="#45A6DE" transform="matrix(1.00, 0.00, -0.00, -1.00, 491.5, 626.4)">u</text><text xml:space="preserve" font-family="MarkerFelt-Thin,Marker Felt" font-size="80.0" fill="#45A6DE" transform="matrix(1.00, 0.00, -0.00, -1.00, 529.9, 626.4)">t</text><text xml:space="preserve" font-family="MarkerFelt-Thin,Marker Felt" font-size="80.0" fill="#45A6DE" transform="matrix(1.00, 0.00, -0.00, -1.00, 564.2, 626.4)">i</text><text xml:space="preserve" font-family="MarkerFelt-Thin,Marker Felt" font-size="80.0" fill="#45A6DE" transform="matrix(1.00, 0.00, -0.00, -1.00, 582.8, 626.4)">o</text><text xml:space="preserve" font-family="MarkerFelt-Thin,Marker Felt" font-size="80.0" fill="#45A6DE" transform="matrix(1.00, 0.00, -0.00, -1.00, 619.0, 626.4)">n</text><g><clipPath id="clip0x7fd42439f8a0"><path d="M 104.0 451.2 L 129.2 451.2 L 129.2 474.7 L 104.0 474.7 Z M 104.0 451.2 "></path></clipPath><g clip-path="url(#clip0x7fd42439f8a0)"><path d="M 128.8 459.7 C 129.1 459.3 129.2 458.9 129.2 458.5 C 129.2 457.8 128.8 457.1 127.9 456.5 C 127.1 455.8 126.1 455.5 125.1 455.5 C 123.7 455.5 122.1 456.5 120.3 458.5 C 120.3 458.5 120.3 455.5 120.3 455.5 C 120.3 455.2 120.4 454.9 120.5 454.4 C 120.7 454.0 120.8 453.7 120.8 453.5 C 120.8 452.9 120.5 452.3 119.8 451.9 C 119.2 451.5 118.6 451.2 117.9 451.2 C 116.8 451.2 115.8 451.7 115.0 452.7 C 114.7 453.0 114.6 453.8 114.7 455.2 C 114.8 456.5 114.9 457.9 115.0 459.3 C 114.3 458.8 112.9 458.0 111.0 457.0 C 110.7 456.6 109.9 456.2 108.6 455.7 C 107.6 455.6 106.6 455.8 105.6 456.3 C 104.5 456.8 104.0 457.4 104.0 458.2 C 104.0 458.4 104.0 458.6 104.1 458.8 C 104.3 459.2 104.8 459.5 105.4 459.7 C 106.4 460.1 107.0 460.3 107.1 460.3 C 107.1 460.3 112.7 463.3 112.7 463.3 C 112.7 463.3 108.7 465.3 108.7 465.3 C 108.1 465.3 107.4 465.5 106.4 466.1 C 106.2 466.4 106.1 466.7 106.1 467.0 C 106.1 468.0 106.7 468.9 107.8 469.8 C 108.9 470.7 110.0 471.1 111.2 471.1 C 111.5 471.1 111.9 471.0 112.3 470.9 C 112.6 470.8 113.0 470.5 113.3 469.9 C 113.6 469.2 114.2 468.6 115.0 468.1 C 115.0 468.1 115.1 471.7 115.1 471.7 C 115.0 472.2 115.0 472.9 115.1 473.8 C 115.5 474.4 116.6 474.7 118.1 474.7 C 119.6 474.7 120.5 474.3 121.0 473.5 C 121.2 473.1 121.2 472.3 121.1 471.0 C 121.0 469.9 120.9 468.8 120.7 467.6 C 120.7 467.6 122.8 468.7 122.8 468.7 C 123.2 469.1 124.0 469.6 125.1 470.1 C 125.9 470.1 126.7 469.8 127.4 469.1 C 128.2 468.5 128.6 467.8 128.6 467.0 C 128.6 466.6 128.5 466.3 128.3 466.0 C 128.1 465.7 127.7 465.5 127.2 465.4 C 126.6 465.3 126.2 465.1 126.0 465.0 C 126.0 465.0 123.0 462.8 123.0 462.8 C 123.0 462.8 126.9 460.7 126.9 460.7 C 127.4 460.5 128.0 460.2 128.8 459.7 Z M 128.8 459.7 " fill="#3995D6"></path></g></g><text xml:space="preserve" font-family="MarkerFelt-Thin,Marker Felt" font-size="46.0" fill="#858585" transform="matrix(1.00, 0.00, -0.00, -1.00, 154.0, 448.0)">P</text><text xml:space="preserve" font-family="MarkerFelt-Thin,Marker Felt" font-size="46.0" fill="#858585" transform="matrix(1.00, 0.00, -0.00, -1.00, 175.9, 448.0)">H</text><text xml:space="preserve" font-family="MarkerFelt-Thin,Marker Felt" font-size="46.0" fill="#858585" transform="matrix(1.00, 0.00, -0.00, -1.00, 200.1, 448.0)">P</text><text xml:space="preserve" font-family="MarkerFelt-Thin,Marker Felt" font-size="46.0" fill="#858585" transform="matrix(1.00, 0.00, -0.00, -1.00, 220.8, 448.0)"> </text><text xml:space="preserve" font-family="MarkerFelt-Thin,Marker Felt" font-size="46.0" fill="#858585" transform="matrix(1.00, 0.00, -0.00, -1.00, 232.3, 448.0)">4</text><text xml:space="preserve" font-family="MarkerFelt-Thin,Marker Felt" font-size="46.0" fill="#858585" transform="matrix(1.00, 0.00, -0.00, -1.00, 255.1, 448.0)">.</text><text xml:space="preserve" font-family="MarkerFelt-Thin,Marker Felt" font-size="46.0" fill="#858585" transform="matrix(1.00, 0.00, -0.00, -1.00, 266.2, 448.0)">X</text><text xml:space="preserve" font-family="MarkerFelt-Thin,Marker Felt" font-size="46.0" fill="#858585" transform="matrix(1.00, 0.00, -0.00, -1.00, 294.3, 448.0)"> </text><g><clipPath id="clip0x7fd4243a4910"><path d="M 104.0 359.2 L 129.2 359.2 L 129.2 382.7 L 104.0 382.7 Z M 104.0 359.2 "></path></clipPath><g clip-path="url(#clip0x7fd4243a4910)"><path d="M 128.8 367.7 C 129.1 367.3 129.2 366.9 129.2 366.5 C 129.2 365.8 128.8 365.1 127.9 364.5 C 127.1 363.8 126.1 363.5 125.1 363.5 C 123.7 363.5 122.1 364.5 120.3 366.5 C 120.3 366.5 120.3 363.5 120.3 363.5 C 120.3 363.2 120.4 362.9 120.5 362.4 C 120.7 362.0 120.8 361.7 120.8 361.5 C 120.8 360.9 120.5 360.3 119.8 359.9 C 119.2 359.5 118.6 359.2 117.9 359.2 C 116.8 359.2 115.8 359.7 115.0 360.7 C 114.7 361.0 114.6 361.8 114.7 363.2 C 114.8 364.5 114.9 365.9 115.0 367.3 C 114.3 366.8 112.9 366.0 111.0 365.0 C 110.7 364.6 109.9 364.2 108.6 363.7 C 107.6 363.6 106.6 363.8 105.6 364.3 C 104.5 364.8 104.0 365.4 104.0 366.2 C 104.0 366.4 104.0 366.6 104.1 366.8 C 104.3 367.2 104.8 367.5 105.4 367.7 C 106.4 368.1 107.0 368.3 107.1 368.3 C 107.1 368.3 112.7 371.3 112.7 371.3 C 112.7 371.3 108.7 373.3 108.7 373.3 C 108.1 373.3 107.4 373.5 106.4 374.1 C 106.2 374.4 106.1 374.7 106.1 375.0 C 106.1 376.0 106.7 376.9 107.8 377.8 C 108.9 378.7 110.0 379.1 111.2 379.1 C 111.5 379.1 111.9 379.0 112.3 378.9 C 112.6 378.8 113.0 378.5 113.3 377.9 C 113.6 377.2 114.2 376.6 115.0 376.1 C 115.0 376.1 115.1 379.7 115.1 379.7 C 115.0 380.2 115.0 380.9 115.1 381.8 C 115.5 382.4 116.6 382.7 118.1 382.7 C 119.6 382.7 120.5 382.3 121.0 381.5 C 121.2 381.1 121.2 380.3 121.1 379.0 C 121.0 377.9 120.9 376.8 120.7 375.6 C 120.7 375.6 122.8 376.7 122.8 376.7 C 123.2 377.1 124.0 377.6 125.1 378.1 C 125.9 378.1 126.7 377.8 127.4 377.1 C 128.2 376.5 128.6 375.8 128.6 375.0 C 128.6 374.6 128.5 374.3 128.3 374.0 C 128.1 373.7 127.7 373.5 127.2 373.4 C 126.6 373.3 126.2 373.1 126.0 373.0 C 126.0 373.0 123.0 370.8 123.0 370.8 C 123.0 370.8 126.9 368.7 126.9 368.7 C 127.4 368.5 128.0 368.2 128.8 367.7 Z M 128.8 367.7 " fill="#3995D6"></path></g></g><text xml:space="preserve" font-family="MarkerFelt-Thin,Marker Felt" font-size="46.0" fill="#858585" transform="matrix(1.00, 0.00, -0.00, -1.00, 154.0, 356.0)">P</text><text xml:space="preserve" font-family="MarkerFelt-Thin,Marker Felt" font-size="46.0" fill="#858585" transform="matrix(1.00, 0.00, -0.00, -1.00, 175.9, 356.0)">H</text><text xml:space="preserve" font-family="MarkerFelt-Thin,Marker Felt" font-size="46.0" fill="#858585" transform="matrix(1.00, 0.00, -0.00, -1.00, 200.1, 356.0)">P</text><text xml:space="preserve" font-family="MarkerFelt-Thin,Marker Felt" font-size="46.0" fill="#858585" transform="matrix(1.00, 0.00, -0.00, -1.00, 220.8, 356.0)"> </text><text xml:space="preserve" font-family="MarkerFelt-Thin,Marker Felt" font-size="46.0" fill="#858585" transform="matrix(1.00, 0.00, -0.00, -1.00, 232.3, 356.0)">5</text><text xml:space="preserve" font-family="MarkerFelt-Thin,Marker Felt" font-size="46.0" fill="#858585" transform="matrix(1.00, 0.00, -0.00, -1.00, 253.0, 356.0)">.</text><text xml:space="preserve" font-family="MarkerFelt-Thin,Marker Felt" font-size="46.0" fill="#858585" transform="matrix(1.00, 0.00, -0.00, -1.00, 263.2, 356.0)">2</text><text xml:space="preserve" font-family="MarkerFelt-Thin,Marker Felt" font-size="46.0" fill="#858585" transform="matrix(1.00, 0.00, -0.00, -1.00, 291.2, 356.0)">.</text><text xml:space="preserve" font-family="MarkerFelt-Thin,Marker Felt" font-size="46.0" fill="#858585" transform="matrix(1.00, 0.00, -0.00, -1.00, 302.3, 356.0)">X</text><text xml:space="preserve" font-family="MarkerFelt-Thin,Marker Felt" font-size="46.0" fill="#858585" transform="matrix(1.00, 0.00, -0.00, -1.00, 330.4, 356.0)"> </text><text xml:space="preserve" font-family="MarkerFelt-Thin,Marker Felt" font-size="46.0" fill="#858585" transform="matrix(1.00, 0.00, -0.00, -1.00, 341.9, 356.0)"> </text><g><clipPath id="clip0x7fd4243a9fd0"><path d="M 104.0 267.2 L 129.2 267.2 L 129.2 290.7 L 104.0 290.7 Z M 104.0 267.2 "></path></clipPath><g clip-path="url(#clip0x7fd4243a9fd0)"><path d="M 128.8 275.7 C 129.1 275.3 129.2 274.9 129.2 274.5 C 129.2 273.8 128.8 273.1 127.9 272.5 C 127.1 271.8 126.1 271.5 125.1 271.5 C 123.7 271.5 122.1 272.5 120.3 274.5 C 120.3 274.5 120.3 271.5 120.3 271.5 C 120.3 271.2 120.4 270.9 120.5 270.4 C 120.7 270.0 120.8 269.7 120.8 269.5 C 120.8 268.9 120.5 268.3 119.8 267.9 C 119.2 267.5 118.6 267.2 117.9 267.2 C 116.8 267.2 115.8 267.7 115.0 268.7 C 114.7 269.0 114.6 269.8 114.7 271.2 C 114.8 272.5 114.9 273.9 115.0 275.3 C 114.3 274.8 112.9 274.0 111.0 273.0 C 110.7 272.6 109.9 272.2 108.6 271.7 C 107.6 271.6 106.6 271.8 105.6 272.3 C 104.5 272.8 104.0 273.4 104.0 274.2 C 104.0 274.4 104.0 274.6 104.1 274.8 C 104.3 275.2 104.8 275.5 105.4 275.7 C 106.4 276.1 107.0 276.3 107.1 276.3 C 107.1 276.3 112.7 279.3 112.7 279.3 C 112.7 279.3 108.7 281.3 108.7 281.3 C 108.1 281.3 107.4 281.5 106.4 282.1 C 106.2 282.4 106.1 282.7 106.1 283.0 C 106.1 284.0 106.7 284.9 107.8 285.8 C 108.9 286.7 110.0 287.1 111.2 287.1 C 111.5 287.1 111.9 287.0 112.3 286.9 C 112.6 286.8 113.0 286.5 113.3 285.9 C 113.6 285.2 114.2 284.6 115.0 284.1 C 115.0 284.1 115.1 287.7 115.1 287.7 C 115.0 288.2 115.0 288.9 115.1 289.8 C 115.5 290.4 116.6 290.7 118.1 290.7 C 119.6 290.7 120.5 290.3 121.0 289.5 C 121.2 289.1 121.2 288.3 121.1 287.0 C 121.0 285.9 120.9 284.8 120.7 283.6 C 120.7 283.6 122.8 284.7 122.8 284.7 C 123.2 285.1 124.0 285.6 125.1 286.1 C 125.9 286.1 126.7 285.8 127.4 285.1 C 128.2 284.5 128.6 283.8 128.6 283.0 C 128.6 282.6 128.5 282.3 128.3 282.0 C 128.1 281.7 127.7 281.5 127.2 281.4 C 126.6 281.3 126.2 281.1 126.0 281.0 C 126.0 281.0 123.0 278.8 123.0 278.8 C 123.0 278.8 126.9 276.7 126.9 276.7 C 127.4 276.5 128.0 276.2 128.8 275.7 Z M 128.8 275.7 " fill="#3995D6"></path></g></g><text xml:space="preserve" font-family="MarkerFelt-Thin,Marker Felt" font-size="46.0" fill="#858585" transform="matrix(1.00, 0.00, -0.00, -1.00, 154.0, 264.0)">P</text><text xml:space="preserve" font-family="MarkerFelt-Thin,Marker Felt" font-size="46.0" fill="#858585" transform="matrix(1.00, 0.00, -0.00, -1.00, 175.9, 264.0)">H</text><text xml:space="preserve" font-family="MarkerFelt-Thin,Marker Felt" font-size="46.0" fill="#858585" transform="matrix(1.00, 0.00, -0.00, -1.00, 200.1, 264.0)">P</text><text xml:space="preserve" font-family="MarkerFelt-Thin,Marker Felt" font-size="46.0" fill="#858585" transform="matrix(1.00, 0.00, -0.00, -1.00, 220.8, 264.0)"> </text><text xml:space="preserve" font-family="MarkerFelt-Thin,Marker Felt" font-size="46.0" fill="#858585" transform="matrix(1.00, 0.00, -0.00, -1.00, 232.3, 264.0)">5</text><text xml:space="preserve" font-family="MarkerFelt-Thin,Marker Felt" font-size="46.0" fill="#858585" transform="matrix(1.00, 0.00, -0.00, -1.00, 253.0, 264.0)">.</text><text xml:space="preserve" font-family="MarkerFelt-Thin,Marker Felt" font-size="46.0" fill="#858585" transform="matrix(1.00, 0.00, -0.00, -1.00, 261.8, 264.0)">3</text><text xml:space="preserve" font-family="MarkerFelt-Thin,Marker Felt" font-size="46.0" fill="#858585" transform="matrix(1.00, 0.00, -0.00, -1.00, 283.0, 264.0)">.</text><text xml:space="preserve" font-family="MarkerFelt-Thin,Marker Felt" font-size="46.0" fill="#858585" transform="matrix(1.00, 0.00, -0.00, -1.00, 294.1, 264.0)">X</text><text xml:space="preserve" font-family="MarkerFelt-Thin,Marker Felt" font-size="46.0" fill="#858585" transform="matrix(1.00, 0.00, -0.00, -1.00, 322.2, 264.0)"> </text><text xml:space="preserve" font-family="MarkerFelt-Thin,Marker Felt" font-size="46.0" fill="#858585" transform="matrix(1.00, 0.00, -0.00, -1.00, 333.7, 264.0)">a</text><text xml:space="preserve" font-family="MarkerFelt-Thin,Marker Felt" font-size="46.0" fill="#858585" transform="matrix(1.00, 0.00, -0.00, -1.00, 356.6, 264.0)">n</text><text xml:space="preserve" font-family="MarkerFelt-Thin,Marker Felt" font-size="46.0" fill="#858585" transform="matrix(1.00, 0.00, -0.00, -1.00, 380.9, 264.0)">d</text><text xml:space="preserve" font-family="MarkerFelt-Thin,Marker Felt" font-size="46.0" fill="#858585" transform="matrix(1.00, 0.00, -0.00, -1.00, 400.7, 264.0)"> </text><text xml:space="preserve" font-family="MarkerFelt-Thin,Marker Felt" font-size="46.0" fill="#858585" transform="matrix(1.00, 0.00, -0.00, -1.00, 412.2, 264.0)">l</text><text xml:space="preserve" font-family="MarkerFelt-Thin,Marker Felt" font-size="46.0" fill="#858585" transform="matrix(1.00, 0.00, -0.00, -1.00, 423.5, 264.0)">a</text><text xml:space="preserve" font-family="MarkerFelt-Thin,Marker Felt" font-size="46.0" fill="#858585" transform="matrix(1.00, 0.00, -0.00, -1.00, 446.0, 264.0)">t</text><text xml:space="preserve" font-family="MarkerFelt-Thin,Marker Felt" font-size="46.0" fill="#858585" transform="matrix(1.00, 0.00, -0.00, -1.00, 463.5, 264.0)">e</text><text xml:space="preserve" font-family="MarkerFelt-Thin,Marker Felt" font-size="46.0" fill="#858585" transform="matrix(1.00, 0.00, -0.00, -1.00, 483.7, 264.0)">r</text><text xml:space="preserve" font-family="MarkerFelt-Thin,Marker Felt" font-size="46.0" fill="#858585" transform="matrix(1.00, 0.00, -0.00, -1.00, 501.2, 264.0)"> </text><g><clipPath id="clip0x7fd4243aaf30"><path d="M 104.0 175.2 L 129.2 175.2 L 129.2 198.7 L 104.0 198.7 Z M 104.0 175.2 "></path></clipPath><g clip-path="url(#clip0x7fd4243aaf30)"><path d="M 128.8 183.7 C 129.1 183.3 129.2 182.9 129.2 182.5 C 129.2 181.8 128.8 181.1 127.9 180.5 C 127.1 179.8 126.1 179.5 125.1 179.5 C 123.7 179.5 122.1 180.5 120.3 182.5 C 120.3 182.5 120.3 179.5 120.3 179.5 C 120.3 179.2 120.4 178.9 120.5 178.4 C 120.7 178.0 120.8 177.7 120.8 177.5 C 120.8 176.9 120.5 176.3 119.8 175.9 C 119.2 175.5 118.6 175.2 117.9 175.2 C 116.8 175.2 115.8 175.7 115.0 176.7 C 114.7 177.0 114.6 177.8 114.7 179.2 C 114.8 180.5 114.9 181.9 115.0 183.3 C 114.3 182.8 112.9 182.0 111.0 181.0 C 110.7 180.6 109.9 180.2 108.6 179.7 C 107.6 179.6 106.6 179.8 105.6 180.3 C 104.5 180.8 104.0 181.4 104.0 182.2 C 104.0 182.4 104.0 182.6 104.1 182.8 C 104.3 183.2 104.8 183.5 105.4 183.7 C 106.4 184.1 107.0 184.3 107.1 184.3 C 107.1 184.3 112.7 187.3 112.7 187.3 C 112.7 187.3 108.7 189.3 108.7 189.3 C 108.1 189.3 107.4 189.5 106.4 190.1 C 106.2 190.4 106.1 190.7 106.1 191.0 C 106.1 192.0 106.7 192.9 107.8 193.8 C 108.9 194.7 110.0 195.1 111.2 195.1 C 111.5 195.1 111.9 195.0 112.3 194.9 C 112.6 194.8 113.0 194.5 113.3 193.9 C 113.6 193.2 114.2 192.6 115.0 192.1 C 115.0 192.1 115.1 195.7 115.1 195.7 C 115.0 196.2 115.0 196.9 115.1 197.8 C 115.5 198.4 116.6 198.7 118.1 198.7 C 119.6 198.7 120.5 198.3 121.0 197.5 C 121.2 197.1 121.2 196.3 121.1 195.0 C 121.0 193.9 120.9 192.8 120.7 191.6 C 120.7 191.6 122.8 192.7 122.8 192.7 C 123.2 193.1 124.0 193.6 125.1 194.1 C 125.9 194.1 126.7 193.8 127.4 193.1 C 128.2 192.5 128.6 191.8 128.6 191.0 C 128.6 190.6 128.5 190.3 128.3 190.0 C 128.1 189.7 127.7 189.5 127.2 189.4 C 126.6 189.3 126.2 189.1 126.0 189.0 C 126.0 189.0 123.0 186.8 123.0 186.8 C 123.0 186.8 126.9 184.7 126.9 184.7 C 127.4 184.5 128.0 184.2 128.8 183.7 Z M 128.8 183.7 " fill="#3995D6"></path></g></g><text xml:space="preserve" font-family="MarkerFelt-Thin,Marker Felt" font-size="46.0" fill="#858585" transform="matrix(1.00, 0.00, -0.00, -1.00, 154.0, 172.0)">P</text><text xml:space="preserve" font-family="MarkerFelt-Thin,Marker Felt" font-size="46.0" fill="#858585" transform="matrix(1.00, 0.00, -0.00, -1.00, 175.9, 172.0)">H</text><text xml:space="preserve" font-family="MarkerFelt-Thin,Marker Felt" font-size="46.0" fill="#858585" transform="matrix(1.00, 0.00, -0.00, -1.00, 200.1, 172.0)">P</text><text xml:space="preserve" font-family="MarkerFelt-Thin,Marker Felt" font-size="46.0" fill="#858585" transform="matrix(1.00, 0.00, -0.00, -1.00, 220.8, 172.0)"> </text><text xml:space="preserve" font-family="MarkerFelt-Thin,Marker Felt" font-size="46.0" fill="#858585" transform="matrix(1.00, 0.00, -0.00, -1.00, 232.3, 172.0)">7</text><path d="M 541.3 313.0 C 541.4 312.7 541.4 311.6 541.2 311.6 C 541.3 312.0 541.1 312.9 541.3 313.0 C 541.3 313.0 541.3 313.0 541.3 313.0 Z M 541.4 315.2 C 541.5 314.8 541.5 313.9 541.3 313.6 C 541.4 314.1 541.2 315.0 541.4 315.2 C 541.4 315.2 541.4 315.2 541.4 315.2 Z M 540.8 311.8 C 540.8 311.2 540.9 310.1 540.7 309.9 C 540.8 310.5 540.7 311.5 540.8 311.8 C 540.8 311.8 540.8 311.8 540.8 311.8 Z M 544.2 342.8 C 544.3 342.6 544.4 341.5 544.2 341.5 C 544.2 341.9 544.1 342.7 544.2 342.8 C 544.2 342.8 544.2 342.8 544.2 342.8 Z M 543.7 336.7 C 543.9 336.3 543.8 335.4 543.7 335.1 C 543.7 335.6 543.6 336.5 543.7 336.7 C 543.7 336.7 543.7 336.7 543.7 336.7 Z M 543.8 333.1 C 543.8 332.3 543.8 331.4 543.6 331.6 C 543.8 331.8 543.6 333.0 543.8 333.1 C 543.8 333.1 543.8 333.1 543.8 333.1 Z M 532.7 312.5 C 532.8 313.4 532.6 314.0 532.6 314.6 C 532.7 317.7 533.0 313.1 532.7 312.5 C 532.7 312.5 532.7 312.5 532.7 312.5 Z M 543.2 326.9 C 543.2 327.5 543.2 327.9 543.3 328.2 C 543.3 327.7 543.4 326.9 543.2 326.9 C 543.2 326.9 543.2 326.9 543.2 326.9 Z M 543.0 321.7 C 543.1 321.6 543.1 318.5 542.9 316.8 C 542.9 318.3 542.9 321.8 543.0 321.7 C 543.0 321.7 543.0 321.7 543.0 321.7 Z M 532.6 319.7 C 532.8 321.7 532.8 324.8 532.9 326.3 C 532.9 327.7 533.0 323.7 533.0 320.1 C 532.9 316.4 532.6 319.4 532.5 317.9 C 532.4 316.5 532.3 319.4 532.4 320.9 C 532.5 322.3 532.5 319.9 532.6 319.7 C 532.6 319.7 532.6 319.7 532.6 319.7 Z M 531.9 319.6 C 531.9 318.9 531.9 318.3 531.8 317.9 C 531.7 318.6 531.7 319.3 531.9 319.6 C 531.9 319.6 531.9 319.6 531.9 319.6 Z M 537.0 425.9 C 539.0 425.6 540.7 423.9 541.9 422.0 C 542.1 421.5 542.4 421.1 542.7 420.6 C 543.5 417.1 544.0 413.6 544.2 410.1 C 544.3 409.4 544.3 408.7 544.3 408.0 C 544.5 405.9 544.5 403.7 544.6 401.6 C 544.6 400.9 544.6 400.1 544.6 399.4 C 544.9 396.8 544.6 394.3 544.6 391.8 C 544.6 390.5 544.7 389.2 545.0 387.9 C 545.1 387.2 545.1 384.4 544.9 383.4 C 545.3 384.3 545.2 379.7 545.2 379.9 C 545.0 379.4 544.9 378.8 544.9 378.3 C 544.8 377.7 544.7 378.4 544.7 379.1 C 544.6 378.5 544.6 377.9 544.6 377.3 C 544.6 376.6 544.6 376.0 544.6 375.3 C 544.8 373.1 544.6 370.8 544.4 368.7 C 544.5 363.2 544.3 348.0 544.2 350.7 C 544.1 353.8 543.9 352.2 543.9 351.4 C 543.9 350.9 543.9 350.3 543.8 349.5 C 543.9 349.6 544.0 349.6 544.0 349.7 C 544.1 348.3 544.3 346.4 544.1 344.5 C 544.1 344.8 544.1 345.3 544.0 345.5 C 544.0 344.5 543.7 345.3 543.7 344.6 C 543.6 342.9 543.6 342.0 543.6 344.1 C 543.4 342.2 543.1 341.0 542.8 339.1 C 542.8 338.4 542.8 338.8 542.9 339.0 C 543.0 337.7 543.0 334.9 543.1 334.6 C 543.2 334.4 543.1 342.3 543.3 340.9 C 543.3 340.3 543.3 339.1 543.4 338.7 C 543.4 339.7 543.4 340.9 543.5 341.6 C 543.5 340.9 543.5 339.9 543.6 339.3 C 543.6 340.0 543.6 340.5 543.7 340.7 C 543.7 339.7 543.7 339.0 543.7 337.8 C 543.7 337.3 543.5 338.2 543.5 337.1 C 543.4 336.9 543.5 337.9 543.4 337.8 C 543.4 336.9 543.4 335.1 543.3 334.7 C 543.2 334.2 543.3 335.7 543.2 335.8 C 543.2 332.3 543.1 328.4 543.1 327.1 C 543.0 325.9 543.0 327.1 543.0 327.6 C 542.9 326.2 542.9 325.1 542.9 323.4 C 542.8 322.3 542.8 322.7 542.8 323.1 C 542.8 322.9 542.7 322.6 542.7 322.4 C 542.7 322.3 542.7 322.0 542.6 321.8 C 542.6 322.5 542.6 323.7 542.6 324.2 C 542.4 323.2 542.6 320.9 542.4 320.0 C 542.3 321.4 542.3 322.9 542.3 324.4 C 542.2 321.4 542.6 318.3 542.2 315.9 C 542.2 316.3 542.1 316.5 542.0 316.9 C 542.1 316.0 542.3 314.6 542.0 313.8 C 542.0 313.3 541.9 312.4 541.9 311.5 C 541.8 313.1 541.8 314.1 541.8 315.2 C 541.8 315.2 541.8 315.1 541.7 314.9 C 541.4 317.4 542.0 318.8 542.1 320.6 C 542.1 320.7 542.1 320.8 542.0 321.0 C 541.9 321.5 541.9 319.5 541.8 319.3 C 541.7 321.9 541.9 324.8 541.6 326.0 C 541.6 322.9 541.7 320.2 541.5 317.9 C 541.3 318.5 541.4 320.8 541.3 322.0 C 541.1 316.9 541.1 316.4 541.0 316.0 C 541.0 316.4 541.0 316.8 541.0 317.2 C 540.9 317.1 540.9 317.0 540.9 316.9 C 540.8 314.6 540.8 312.0 540.8 312.2 C 540.7 312.3 540.7 314.3 540.7 316.4 C 540.6 316.2 540.5 316.0 540.4 315.8 C 540.4 313.3 540.0 310.4 540.2 307.9 C 540.0 308.3 540.0 308.1 539.9 307.6 C 539.8 308.4 539.8 309.5 539.7 310.3 C 539.6 310.1 539.6 309.5 539.5 309.4 C 539.5 309.8 539.5 310.5 539.4 310.7 C 539.3 309.5 539.3 308.2 539.2 307.0 C 539.0 306.7 539.2 307.5 539.1 307.4 C 539.0 306.2 539.1 304.6 538.9 303.7 C 538.8 304.7 538.9 306.7 538.8 307.3 C 538.7 306.9 538.7 306.5 538.6 306.1 C 538.6 305.3 538.6 304.9 538.5 305.8 C 538.4 306.3 538.4 306.3 538.4 306.1 C 538.3 305.6 538.3 303.7 538.0 303.7 C 538.0 304.2 538.0 306.1 537.8 306.6 C 537.6 306.3 537.8 305.3 537.6 305.2 C 537.7 307.3 537.6 307.2 537.7 307.8 C 537.7 307.5 537.7 306.9 537.8 306.9 C 537.8 308.3 537.8 309.6 537.8 310.9 C 537.8 310.9 537.8 310.9 537.8 310.9 C 537.8 310.9 537.8 310.9 537.8 310.9 C 537.8 310.9 537.8 310.9 537.8 310.9 C 537.6 310.8 537.5 310.9 537.4 311.0 C 537.4 310.4 537.3 309.8 537.3 308.7 C 537.1 309.0 537.1 310.0 537.2 310.9 C 537.1 310.9 537.1 310.9 537.1 310.9 C 537.1 309.4 537.0 307.2 536.8 305.7 C 536.8 306.3 536.8 308.9 536.8 310.6 C 536.8 310.6 536.7 310.5 536.7 310.4 C 536.7 312.6 536.5 315.2 536.6 317.6 C 536.3 316.4 536.5 315.1 536.5 313.5 C 536.4 312.8 536.3 312.2 536.2 311.5 C 536.3 309.6 536.3 303.9 536.2 303.2 C 536.1 302.5 536.1 308.3 536.0 308.3 C 535.9 308.4 535.8 305.7 535.8 306.9 C 535.9 307.6 535.9 309.1 535.9 310.1 C 535.7 310.1 535.6 310.2 535.4 310.2 C 535.4 309.3 535.3 308.2 535.6 308.2 C 535.6 307.7 535.7 306.8 535.6 306.6 C 535.6 306.8 535.6 307.0 535.5 307.0 C 535.5 306.8 535.5 306.5 535.4 306.4 C 535.4 307.5 535.3 309.1 535.3 310.3 C 535.3 310.4 535.2 310.5 535.1 310.6 C 535.1 310.6 535.0 309.6 535.0 308.8 C 534.9 308.0 534.8 309.7 534.9 311.1 C 534.8 311.4 534.7 311.6 534.6 311.8 C 534.6 311.3 534.6 310.8 534.6 310.1 C 534.5 309.3 534.4 309.3 534.3 308.6 C 534.2 310.0 534.2 311.7 534.2 313.1 C 534.1 313.6 533.9 314.1 533.8 314.6 C 533.7 313.5 533.6 312.4 533.5 311.8 C 533.5 311.3 533.5 310.7 533.4 310.6 C 533.4 311.0 533.3 309.8 533.1 310.0 C 533.3 310.7 533.2 312.0 533.5 312.5 C 533.5 313.6 533.5 314.7 533.5 315.8 C 533.5 315.9 533.4 316.0 533.4 316.2 C 533.4 315.3 533.4 314.4 533.3 313.5 C 533.0 313.9 533.0 316.5 533.1 318.4 C 532.9 322.2 533.9 326.0 534.1 329.8 C 534.1 329.9 534.1 330.2 534.0 330.4 C 533.9 330.7 533.9 331.0 533.8 331.2 C 533.8 330.3 533.7 329.5 533.7 328.9 C 533.5 331.5 533.5 325.0 533.3 324.6 C 533.0 328.9 533.2 337.1 533.0 342.1 C 533.0 340.9 533.0 340.5 532.9 341.8 C 532.9 342.1 532.9 342.5 532.8 342.9 C 532.6 337.8 533.1 332.4 532.7 328.4 C 532.6 330.8 532.8 334.5 532.5 335.5 C 532.5 334.8 532.6 333.7 532.5 333.6 C 532.3 334.8 532.5 339.0 532.3 340.2 C 532.2 334.2 532.3 326.2 532.0 321.8 C 532.1 328.4 531.9 337.4 532.2 343.0 C 532.2 342.1 532.3 342.0 532.4 342.6 C 532.4 344.3 532.5 346.1 532.5 347.9 C 532.5 348.3 532.5 348.1 532.4 347.3 C 532.3 346.6 532.4 346.1 532.3 345.9 C 532.2 346.4 532.2 352.0 532.2 347.5 C 532.1 343.1 532.0 335.4 531.9 339.9 C 531.8 344.4 531.7 346.2 531.6 343.7 C 531.5 341.2 531.3 333.4 531.2 336.1 C 531.2 338.7 531.1 344.2 531.1 347.3 C 531.1 350.4 531.8 345.2 531.8 349.7 C 531.8 354.3 531.6 350.5 531.6 351.4 C 531.6 352.8 531.6 355.3 531.6 357.7 C 531.6 359.4 531.6 361.6 531.5 362.7 C 531.3 362.6 531.4 357.5 531.3 359.5 C 531.3 364.5 531.3 370.1 531.5 367.8 C 531.5 370.9 531.5 373.2 531.6 375.1 C 531.3 378.2 531.4 381.7 531.3 382.0 C 531.2 382.5 531.7 390.7 531.0 393.8 C 531.0 394.0 531.2 399.6 531.4 400.1 C 531.2 405.3 531.0 404.6 531.1 409.8 C 531.1 414.1 531.3 415.5 531.3 416.2 C 531.4 420.8 531.2 420.7 532.2 423.0 C 532.5 423.7 532.5 424.7 533.0 425.1 C 534.1 425.8 535.4 426.1 537.0 425.9 C 537.0 425.9 537.0 425.9 537.0 425.9 Z M 538.1 311.5 C 538.2 310.7 538.2 309.3 538.3 308.4 C 538.5 309.4 538.4 310.6 538.3 311.8 C 538.3 311.7 538.2 311.6 538.1 311.5 C 538.1 311.5 538.1 311.5 538.1 311.5 Z M 535.0 317.8 C 535.0 317.2 535.1 316.6 535.1 316.0 C 535.1 315.4 535.1 314.8 535.0 313.9 C 534.9 314.0 534.8 315.4 534.8 316.6 C 534.8 316.6 534.7 316.6 534.7 316.6 C 534.6 316.0 534.5 315.4 534.5 314.6 C 534.5 314.4 534.5 314.1 534.6 313.8 C 534.7 313.8 534.7 314.2 534.7 314.4 C 534.9 314.2 535.0 313.5 535.0 312.6 C 535.0 312.5 535.1 312.4 535.1 312.3 C 535.3 312.2 535.3 312.8 535.3 312.1 C 535.5 312.6 535.3 314.0 535.4 314.8 C 535.0 313.9 535.3 317.4 535.1 318.3 C 535.1 318.1 535.0 318.0 535.0 317.8 Z M 542.2 324.6 C 542.2 325.1 542.2 325.5 542.2 326.0 C 542.2 325.3 542.2 324.8 542.2 324.3 C 542.2 324.4 542.2 324.5 542.2 324.6 Z M 543.9 364.5 C 543.4 361.6 543.8 355.5 543.6 355.1 C 543.6 354.4 543.6 353.8 543.7 353.2 C 543.7 357.2 543.8 361.6 543.9 364.5 C 543.9 364.5 543.9 364.5 543.9 364.5 Z M 532.4 354.2 C 532.4 354.0 532.4 354.1 532.5 354.7 C 532.6 357.8 532.7 359.6 532.7 357.7 C 532.7 356.0 532.8 352.3 532.9 353.4 C 532.9 354.8 532.9 356.2 533.0 357.7 C 532.9 358.8 532.7 359.9 532.5 361.1 C 532.4 358.6 532.4 356.3 532.4 354.2 C 532.4 354.2 532.4 354.2 532.4 354.2 Z M 532.2 362.4 C 532.2 361.5 532.2 360.5 532.2 359.5 C 532.2 360.4 532.3 361.3 532.3 362.2 C 532.2 362.3 532.2 362.3 532.2 362.4 Z M 531.9 363.5 C 531.9 361.8 532.0 360.0 532.0 361.8 C 532.0 362.2 532.1 362.6 532.1 363.0 C 532.0 363.2 532.0 363.3 531.9 363.5 Z M 531.8 364.6 C 531.9 364.6 532.0 364.3 532.0 363.7 C 532.0 364.9 532.0 367.3 531.9 367.2 C 531.9 366.4 531.8 365.5 531.8 364.6 C 531.8 364.6 531.8 364.6 531.8 364.6 Z M 544.1 366.4 C 544.2 365.6 544.2 364.9 544.3 366.2 C 544.3 366.6 544.3 367.1 544.3 367.6 C 544.3 367.2 544.2 366.8 544.1 366.4 Z M 532.4 325.8 C 532.5 326.1 532.4 327.3 532.5 328.1 C 533.0 328.2 532.7 325.3 532.4 325.8 C 532.4 325.8 532.4 325.8 532.4 325.8 Z M 532.2 321.0 C 532.2 321.3 532.2 322.6 532.3 323.3 C 532.8 323.4 532.4 320.6 532.2 321.0 C 532.2 321.0 532.2 321.0 532.2 321.0 Z M 531.0 393.8 C 531.0 393.8 531.0 393.8 531.0 393.8 C 531.0 393.8 531.0 393.8 531.0 393.8 C 531.0 393.8 531.0 393.8 531.0 393.8 Z M 531.0 393.8 " fill="#3895D6"></path><path d="M 565.9 311.2 C 566.7 310.0 566.2 309.1 566.1 308.8 C 566.1 308.8 566.1 308.8 566.1 308.8 L 566.1 308.8 L 566.0 308.7 L 566.0 308.7 L 565.9 308.5 L 565.7 308.2 L 565.4 307.6 C 565.3 307.3 565.3 307.0 565.3 306.7 C 565.6 306.3 566.5 308.4 566.9 308.0 C 567.0 307.5 563.3 300.2 563.2 300.0 C 562.7 299.6 561.6 297.8 561.3 297.3 C 562.0 298.5 562.8 299.2 563.1 299.6 C 563.1 299.6 564.3 301.2 563.8 299.2 C 564.0 299.4 564.1 299.5 564.2 299.4 L 564.2 299.3 C 564.2 299.3 564.9 301.4 565.4 301.2 C 566.3 301.0 562.0 295.4 562.1 294.6 C 562.5 295.4 562.9 295.8 563.2 296.1 C 562.1 294.7 558.8 287.7 558.0 286.3 C 555.3 281.5 551.8 276.7 548.9 271.9 C 547.5 269.8 546.0 267.3 544.4 264.7 L 542.0 260.7 L 541.8 260.4 L 541.7 260.3 L 541.7 260.2 C 541.5 259.9 542.2 260.9 541.2 259.5 C 540.8 257.6 535.0 257.9 534.9 259.6 C 534.1 260.8 534.7 259.9 534.5 260.2 L 534.4 260.2 L 534.2 260.8 L 533.6 261.9 L 532.6 264.0 C 529.7 269.8 526.6 275.6 524.0 280.1 C 522.2 283.1 516.2 295.7 515.6 296.2 C 515.5 296.5 513.6 300.3 511.7 304.0 L 510.4 306.7 L 509.7 307.9 L 509.6 308.2 L 509.5 308.4 L 509.5 308.5 L 509.5 308.5 L 509.5 308.5 C 509.9 308.2 508.4 308.8 509.6 311.5 C 513.6 314.1 511.5 312.3 512.1 312.8 L 512.1 312.8 L 512.7 312.8 C 514.3 312.8 515.4 312.8 515.5 312.8 C 515.9 312.9 514.9 313.5 514.9 313.6 L 517.2 313.6 C 516.9 313.8 516.5 313.9 516.0 314.0 C 519.9 314.3 528.0 313.1 530.8 313.2 C 530.6 313.0 531.2 312.7 531.2 312.7 C 531.2 312.8 553.6 313.2 556.0 313.2 C 558.2 313.2 563.6 311.7 561.3 311.2 C 559.6 310.9 561.0 310.7 562.1 310.5 C 559.2 308.6 567.9 311.4 561.2 308.6 C 561.1 308.6 563.3 307.7 564.1 308.0 C 561.1 308.6 563.3 307.7 564.1 308.0 C 561.1 308.6 563.3 307.7 564.1 308.0 " fill="#3895D6"></path><g><clipPath id="clip0x7fd4243745a0"><path d="M 595.3 456.2 L 620.5 456.2 L 620.5 479.7 L 595.3 479.7 Z M 595.3 456.2 "></path></clipPath><g clip-path="url(#clip0x7fd4243745a0)"><path d="M 620.1 464.7 C 620.3 464.3 620.5 463.9 620.5 463.5 C 620.5 462.8 620.0 462.1 619.2 461.5 C 618.4 460.8 617.4 460.5 616.4 460.5 C 615.0 460.5 613.4 461.5 611.6 463.5 C 611.6 463.5 611.6 460.5 611.6 460.5 C 611.6 460.2 611.7 459.9 611.8 459.4 C 612.0 459.0 612.1 458.7 612.1 458.5 C 612.1 457.9 611.8 457.3 611.1 456.9 C 610.5 456.5 609.8 456.2 609.2 456.2 C 608.1 456.2 607.1 456.7 606.2 457.7 C 606.0 458.0 605.9 458.8 606.0 460.2 C 606.1 461.5 606.1 462.9 606.2 464.3 C 605.5 463.8 604.2 463.0 602.2 462.0 C 602.0 461.6 601.2 461.2 599.9 460.7 C 598.9 460.6 597.9 460.8 596.8 461.3 C 595.8 461.8 595.3 462.4 595.3 463.2 C 595.3 463.4 595.3 463.6 595.4 463.8 C 595.6 464.2 596.0 464.5 596.7 464.7 C 597.7 465.1 598.3 465.3 598.4 465.3 C 598.4 465.3 603.9 468.3 603.9 468.3 C 603.9 468.3 600.0 470.3 600.0 470.3 C 599.4 470.3 598.7 470.5 597.7 471.1 C 597.5 471.4 597.4 471.7 597.4 472.0 C 597.4 473.0 598.0 473.9 599.1 474.8 C 600.2 475.7 601.3 476.1 602.5 476.1 C 602.8 476.1 603.2 476.0 603.5 475.9 C 603.9 475.8 604.2 475.5 604.5 474.9 C 604.9 474.2 605.4 473.6 606.2 473.1 C 606.2 473.1 606.4 476.7 606.4 476.7 C 606.2 477.2 606.2 477.9 606.4 478.8 C 606.8 479.4 607.8 479.7 609.4 479.7 C 610.9 479.7 611.8 479.3 612.3 478.5 C 612.5 478.1 612.5 477.3 612.4 476.0 C 612.3 474.9 612.2 473.8 612.0 472.6 C 612.0 472.6 614.1 473.7 614.1 473.7 C 614.5 474.1 615.2 474.6 616.4 475.1 C 617.2 475.1 617.9 474.8 618.7 474.1 C 619.5 473.5 619.9 472.8 619.9 472.0 C 619.9 471.6 619.8 471.3 619.6 471.0 C 619.4 470.7 619.0 470.5 618.5 470.4 C 617.9 470.3 617.5 470.1 617.3 470.0 C 617.3 470.0 614.2 467.8 614.2 467.8 C 614.2 467.8 618.2 465.7 618.2 465.7 C 618.7 465.5 619.3 465.2 620.1 464.7 Z M 620.1 464.7 " fill="#3995D6"></path></g></g><text xml:space="preserve" font-family="MarkerFelt-Thin,Marker Felt" font-size="46.0" fill="#858585" transform="matrix(1.00, 0.00, -0.00, -1.00, 645.3, 453.0)">u</text><text xml:space="preserve" font-family="MarkerFelt-Thin,Marker Felt" font-size="46.0" fill="#858585" transform="matrix(1.00, 0.00, -0.00, -1.00, 665.9, 453.0)">n</text><text xml:space="preserve" font-family="MarkerFelt-Thin,Marker Felt" font-size="46.0" fill="#858585" transform="matrix(1.00, 0.00, -0.00, -1.00, 690.4, 453.0)">k</text><text xml:space="preserve" font-family="MarkerFelt-Thin,Marker Felt" font-size="46.0" fill="#858585" transform="matrix(1.00, 0.00, -0.00, -1.00, 715.5, 453.0)">n</text><text xml:space="preserve" font-family="MarkerFelt-Thin,Marker Felt" font-size="46.0" fill="#858585" transform="matrix(1.00, 0.00, -0.00, -1.00, 739.8, 453.0)">o</text><text xml:space="preserve" font-family="MarkerFelt-Thin,Marker Felt" font-size="46.0" fill="#858585" transform="matrix(1.00, 0.00, -0.00, -1.00, 761.4, 453.0)">w</text><text xml:space="preserve" font-family="MarkerFelt-Thin,Marker Felt" font-size="46.0" fill="#858585" transform="matrix(1.00, 0.00, -0.00, -1.00, 796.9, 453.0)">n</text><text xml:space="preserve" font-family="MarkerFelt-Thin,Marker Felt" font-size="46.0" fill="#858585" transform="matrix(1.00, 0.00, -0.00, -1.00, 819.5, 453.0)"> </text><g><clipPath id="clip0x7fd424371700"><path d="M 595.3 364.2 L 620.5 364.2 L 620.5 387.7 L 595.3 387.7 Z M 595.3 364.2 "></path></clipPath><g clip-path="url(#clip0x7fd424371700)"><path d="M 620.1 372.7 C 620.3 372.3 620.5 371.9 620.5 371.5 C 620.5 370.8 620.0 370.1 619.2 369.5 C 618.4 368.8 617.4 368.5 616.4 368.5 C 615.0 368.5 613.4 369.5 611.6 371.5 C 611.6 371.5 611.6 368.5 611.6 368.5 C 611.6 368.2 611.7 367.9 611.8 367.4 C 612.0 367.0 612.1 366.7 612.1 366.5 C 612.1 365.9 611.8 365.3 611.1 364.9 C 610.5 364.5 609.8 364.2 609.2 364.2 C 608.1 364.2 607.1 364.7 606.2 365.7 C 606.0 366.0 605.9 366.8 606.0 368.2 C 606.1 369.5 606.1 370.9 606.2 372.3 C 605.5 371.8 604.2 371.0 602.2 370.0 C 602.0 369.6 601.2 369.2 599.9 368.7 C 598.9 368.6 597.9 368.8 596.8 369.3 C 595.8 369.8 595.3 370.4 595.3 371.2 C 595.3 371.4 595.3 371.6 595.4 371.8 C 595.6 372.2 596.0 372.5 596.7 372.7 C 597.7 373.1 598.3 373.3 598.4 373.3 C 598.4 373.3 603.9 376.3 603.9 376.3 C 603.9 376.3 600.0 378.3 600.0 378.3 C 599.4 378.3 598.7 378.5 597.7 379.1 C 597.5 379.4 597.4 379.7 597.4 380.0 C 597.4 381.0 598.0 381.9 599.1 382.8 C 600.2 383.7 601.3 384.1 602.5 384.1 C 602.8 384.1 603.2 384.0 603.5 383.9 C 603.9 383.8 604.2 383.5 604.5 382.9 C 604.9 382.2 605.4 381.6 606.2 381.1 C 606.2 381.1 606.4 384.7 606.4 384.7 C 606.2 385.2 606.2 385.9 606.4 386.8 C 606.8 387.4 607.8 387.7 609.4 387.7 C 610.9 387.7 611.8 387.3 612.3 386.5 C 612.5 386.1 612.5 385.3 612.4 384.0 C 612.3 382.9 612.2 381.8 612.0 380.6 C 612.0 380.6 614.1 381.7 614.1 381.7 C 614.5 382.1 615.2 382.6 616.4 383.1 C 617.2 383.1 617.9 382.8 618.7 382.1 C 619.5 381.5 619.9 380.8 619.9 380.0 C 619.9 379.6 619.8 379.3 619.6 379.0 C 619.4 378.7 619.0 378.5 618.5 378.4 C 617.9 378.3 617.5 378.1 617.3 378.0 C 617.3 378.0 614.2 375.8 614.2 375.8 C 614.2 375.8 618.2 373.7 618.2 373.7 C 618.7 373.5 619.3 373.2 620.1 372.7 Z M 620.1 372.7 " fill="#3995D6"></path></g></g><text xml:space="preserve" font-family="MarkerFelt-Thin,Marker Felt" font-size="46.0" fill="#858585" transform="matrix(1.00, 0.00, -0.00, -1.00, 645.3, 361.0)">Z</text><text xml:space="preserve" font-family="MarkerFelt-Thin,Marker Felt" font-size="46.0" fill="#858585" transform="matrix(1.00, 0.00, -0.00, -1.00, 672.9, 361.0)">F</text><text xml:space="preserve" font-family="MarkerFelt-Thin,Marker Felt" font-size="46.0" fill="#858585" transform="matrix(1.00, 0.00, -0.00, -1.00, 692.2, 361.0)"> </text><text xml:space="preserve" font-family="MarkerFelt-Thin,Marker Felt" font-size="46.0" fill="#858585" transform="matrix(1.00, 0.00, -0.00, -1.00, 703.7, 361.0)">1</text><text xml:space="preserve" font-family="MarkerFelt-Thin,Marker Felt" font-size="46.0" fill="#858585" transform="matrix(1.00, 0.00, -0.00, -1.00, 725.0, 361.0)">.</text><text xml:space="preserve" font-family="MarkerFelt-Thin,Marker Felt" font-size="46.0" fill="#858585" transform="matrix(1.00, 0.00, -0.00, -1.00, 732.3, 361.0)">0</text><text xml:space="preserve" font-family="MarkerFelt-Thin,Marker Felt" font-size="46.0" fill="#858585" transform="matrix(1.00, 0.00, -0.00, -1.00, 758.5, 361.0)"> </text><g><clipPath id="clip0x7fd42436ea50"><path d="M 595.3 272.2 L 620.5 272.2 L 620.5 295.7 L 595.3 295.7 Z M 595.3 272.2 "></path></clipPath><g clip-path="url(#clip0x7fd42436ea50)"><path d="M 620.1 280.7 C 620.3 280.3 620.5 279.9 620.5 279.5 C 620.5 278.8 620.0 278.1 619.2 277.5 C 618.4 276.8 617.4 276.5 616.4 276.5 C 615.0 276.5 613.4 277.5 611.6 279.5 C 611.6 279.5 611.6 276.5 611.6 276.5 C 611.6 276.2 611.7 275.9 611.8 275.4 C 612.0 275.0 612.1 274.7 612.1 274.5 C 612.1 273.9 611.8 273.3 611.1 272.9 C 610.5 272.5 609.8 272.2 609.2 272.2 C 608.1 272.2 607.1 272.7 606.2 273.7 C 606.0 274.0 605.9 274.8 606.0 276.2 C 606.1 277.5 606.1 278.9 606.2 280.3 C 605.5 279.8 604.2 279.0 602.2 278.0 C 602.0 277.6 601.2 277.2 599.9 276.7 C 598.9 276.6 597.9 276.8 596.8 277.3 C 595.8 277.8 595.3 278.4 595.3 279.2 C 595.3 279.4 595.3 279.6 595.4 279.8 C 595.6 280.2 596.0 280.5 596.7 280.7 C 597.7 281.1 598.3 281.3 598.4 281.3 C 598.4 281.3 603.9 284.3 603.9 284.3 C 603.9 284.3 600.0 286.3 600.0 286.3 C 599.4 286.3 598.7 286.5 597.7 287.1 C 597.5 287.4 597.4 287.7 597.4 288.0 C 597.4 289.0 598.0 289.9 599.1 290.8 C 600.2 291.7 601.3 292.1 602.5 292.1 C 602.8 292.1 603.2 292.0 603.5 291.9 C 603.9 291.8 604.2 291.5 604.5 290.9 C 604.9 290.2 605.4 289.6 606.2 289.1 C 606.2 289.1 606.4 292.7 606.4 292.7 C 606.2 293.2 606.2 293.9 606.4 294.8 C 606.8 295.4 607.8 295.7 609.4 295.7 C 610.9 295.7 611.8 295.3 612.3 294.5 C 612.5 294.1 612.5 293.3 612.4 292.0 C 612.3 290.9 612.2 289.8 612.0 288.6 C 612.0 288.6 614.1 289.7 614.1 289.7 C 614.5 290.1 615.2 290.6 616.4 291.1 C 617.2 291.1 617.9 290.8 618.7 290.1 C 619.5 289.5 619.9 288.8 619.9 288.0 C 619.9 287.6 619.8 287.3 619.6 287.0 C 619.4 286.7 619.0 286.5 618.5 286.4 C 617.9 286.3 617.5 286.1 617.3 286.0 C 617.3 286.0 614.2 283.8 614.2 283.8 C 614.2 283.8 618.2 281.7 618.2 281.7 C 618.7 281.5 619.3 281.2 620.1 280.7 Z M 620.1 280.7 " fill="#3995D6"></path></g></g><text xml:space="preserve" font-family="MarkerFelt-Thin,Marker Felt" font-size="46.0" fill="#858585" transform="matrix(1.00, 0.00, -0.00, -1.00, 645.3, 269.0)">Z</text><text xml:space="preserve" font-family="MarkerFelt-Thin,Marker Felt" font-size="46.0" fill="#858585" transform="matrix(1.00, 0.00, -0.00, -1.00, 672.9, 269.0)">F</text><text xml:space="preserve" font-family="MarkerFelt-Thin,Marker Felt" font-size="46.0" fill="#858585" transform="matrix(1.00, 0.00, -0.00, -1.00, 692.2, 269.0)"> </text><text xml:space="preserve" font-family="MarkerFelt-Thin,Marker Felt" font-size="46.0" fill="#858585" transform="matrix(1.00, 0.00, -0.00, -1.00, 703.7, 269.0)">2</text><text xml:space="preserve" font-family="MarkerFelt-Thin,Marker Felt" font-size="46.0" fill="#858585" transform="matrix(1.00, 0.00, -0.00, -1.00, 731.7, 269.0)">.</text><text xml:space="preserve" font-family="MarkerFelt-Thin,Marker Felt" font-size="46.0" fill="#858585" transform="matrix(1.00, 0.00, -0.00, -1.00, 739.0, 269.0)">0</text><text xml:space="preserve" font-family="MarkerFelt-Thin,Marker Felt" font-size="46.0" fill="#858585" transform="matrix(1.00, 0.00, -0.00, -1.00, 765.2, 269.0)"> </text><g><clipPath id="clip0x7fd424365860"><path d="M 595.3 180.2 L 620.5 180.2 L 620.5 203.7 L 595.3 203.7 Z M 595.3 180.2 "></path></clipPath><g clip-path="url(#clip0x7fd424365860)"><path d="M 620.1 188.7 C 620.3 188.3 620.5 187.9 620.5 187.5 C 620.5 186.8 620.0 186.1 619.2 185.5 C 618.4 184.8 617.4 184.5 616.4 184.5 C 615.0 184.5 613.4 185.5 611.6 187.5 C 611.6 187.5 611.6 184.5 611.6 184.5 C 611.6 184.2 611.7 183.9 611.8 183.4 C 612.0 183.0 612.1 182.7 612.1 182.5 C 612.1 181.9 611.8 181.3 611.1 180.9 C 610.5 180.5 609.8 180.2 609.2 180.2 C 608.1 180.2 607.1 180.7 606.2 181.7 C 606.0 182.0 605.9 182.8 606.0 184.2 C 606.1 185.5 606.1 186.9 606.2 188.3 C 605.5 187.8 604.2 187.0 602.2 186.0 C 602.0 185.6 601.2 185.2 599.9 184.7 C 598.9 184.6 597.9 184.8 596.8 185.3 C 595.8 185.8 595.3 186.4 595.3 187.2 C 595.3 187.4 595.3 187.6 595.4 187.8 C 595.6 188.2 596.0 188.5 596.7 188.7 C 597.7 189.1 598.3 189.3 598.4 189.3 C 598.4 189.3 603.9 192.3 603.9 192.3 C 603.9 192.3 600.0 194.3 600.0 194.3 C 599.4 194.3 598.7 194.5 597.7 195.1 C 597.5 195.4 597.4 195.7 597.4 196.0 C 597.4 197.0 598.0 197.9 599.1 198.8 C 600.2 199.7 601.3 200.1 602.5 200.1 C 602.8 200.1 603.2 200.0 603.5 199.9 C 603.9 199.8 604.2 199.5 604.5 198.9 C 604.9 198.2 605.4 197.6 606.2 197.1 C 606.2 197.1 606.4 200.7 606.4 200.7 C 606.2 201.2 606.2 201.9 606.4 202.8 C 606.8 203.4 607.8 203.7 609.4 203.7 C 610.9 203.7 611.8 203.3 612.3 202.5 C 612.5 202.1 612.5 201.3 612.4 200.0 C 612.3 198.9 612.2 197.8 612.0 196.6 C 612.0 196.6 614.1 197.7 614.1 197.7 C 614.5 198.1 615.2 198.6 616.4 199.1 C 617.2 199.1 617.9 198.8 618.7 198.1 C 619.5 197.5 619.9 196.8 619.9 196.0 C 619.9 195.6 619.8 195.3 619.6 195.0 C 619.4 194.7 619.0 194.5 618.5 194.4 C 617.9 194.3 617.5 194.1 617.3 194.0 C 617.3 194.0 614.2 191.8 614.2 191.8 C 614.2 191.8 618.2 189.7 618.2 189.7 C 618.7 189.5 619.3 189.2 620.1 188.7 Z M 620.1 188.7 " fill="#3995D6"></path></g></g><text xml:space="preserve" font-family="MarkerFelt-Thin,Marker Felt" font-size="46.0" fill="#858585" transform="matrix(1.00, 0.00, -0.00, -1.00, 645.3, 177.0)">u</text><text xml:space="preserve" font-family="MarkerFelt-Thin,Marker Felt" font-size="46.0" fill="#858585" transform="matrix(1.00, 0.00, -0.00, -1.00, 665.9, 177.0)">n</text><text xml:space="preserve" font-family="MarkerFelt-Thin,Marker Felt" font-size="46.0" fill="#858585" transform="matrix(1.00, 0.00, -0.00, -1.00, 690.4, 177.0)">k</text><text xml:space="preserve" font-family="MarkerFelt-Thin,Marker Felt" font-size="46.0" fill="#858585" transform="matrix(1.00, 0.00, -0.00, -1.00, 715.5, 177.0)">n</text><text xml:space="preserve" font-family="MarkerFelt-Thin,Marker Felt" font-size="46.0" fill="#858585" transform="matrix(1.00, 0.00, -0.00, -1.00, 739.8, 177.0)">o</text><text xml:space="preserve" font-family="MarkerFelt-Thin,Marker Felt" font-size="46.0" fill="#858585" transform="matrix(1.00, 0.00, -0.00, -1.00, 761.4, 177.0)">w</text><text xml:space="preserve" font-family="MarkerFelt-Thin,Marker Felt" font-size="46.0" fill="#858585" transform="matrix(1.00, 0.00, -0.00, -1.00, 796.9, 177.0)">n</text><text xml:space="preserve" font-family="MarkerFelt-Thin,Marker Felt" font-size="46.0" fill="#858585" transform="matrix(1.00, 0.00, -0.00, -1.00, 819.5, 177.0)"> </text><text xml:space="preserve" font-family="MarkerFelt-Thin,Marker Felt" font-size="46.0" fill="#858585" transform="matrix(1.00, 0.00, -0.00, -1.00, 831.0, 177.0)">y</text><text xml:space="preserve" font-family="MarkerFelt-Thin,Marker Felt" font-size="46.0" fill="#858585" transform="matrix(1.00, 0.00, -0.00, -1.00, 852.6, 177.0)">e</text><text xml:space="preserve" font-family="MarkerFelt-Thin,Marker Felt" font-size="46.0" fill="#858585" transform="matrix(1.00, 0.00, -0.00, -1.00, 873.9, 177.0)">t</text><text xml:space="preserve" font-family="MarkerFelt-Thin,Marker Felt" font-size="64.0" fill="#F0352E" transform="matrix(1.00, 0.00, -0.00, -1.00, 69.9, 262.6)">√</text></g></svg>