<?xml version="1.0" encoding="UTF-8" standalone="no"?><svg xmlns="http://www.w3.org/2000/svg" xmlns:xlink="http://www.w3.org/1999/xlink" clip-rule="evenodd" stroke-miterlimit="10" viewBox="0 0 1024 768"><desc>SVG generated by Keynote</desc><defs></defs><g transform="matrix(1.00, 0.00, -0.00, -1.00, 0.0, 768.0)"><g><clipPath id="clip0x7fd424386050"><path d="M 0.0 768.0 L 1024.0 768.0 L 1024.0 0.0 L 0.0 0.0 Z M 0.0 768.0 "></path></clipPath><g clip-path="url(#clip0x7fd424386050)"><image xlink:href="../../D3A9A44C-A1F3-457B-A38D-765D2DDF54DB/assets/EBB0417F320B7CF9EEE7A69128C7B5B4.jpeg" width="2048.00" height="1536.00" transform="matrix(0.50, 0.00, -0.00, -0.50, 0.0, 768.0)"></image></g></g><text xml:space="preserve" font-family="MarkerFelt-Thin,Marker Felt" font-size="80.0" fill="#45A6DE" transform="matrix(1.00, 0.00, -0.00, -1.00, 397.5, 626.4)">O</text><text xml:space="preserve" font-family="MarkerFelt-Thin,Marker Felt" font-size="80.0" fill="#45A6DE" transform="matrix(1.00, 0.00, -0.00, -1.00, 443.6, 626.4)">u</text><text xml:space="preserve" font-family="MarkerFelt-Thin,Marker Felt" font-size="80.0" fill="#45A6DE" transform="matrix(1.00, 0.00, -0.00, -1.00, 482.0, 626.4)">t</text><text xml:space="preserve" font-family="MarkerFelt-Thin,Marker Felt" font-size="80.0" fill="#45A6DE" transform="matrix(1.00, 0.00, -0.00, -1.00, 516.2, 626.4)">l</text><text xml:space="preserve" font-family="MarkerFelt-Thin,Marker Felt" font-size="80.0" fill="#45A6DE" transform="matrix(1.00, 0.00, -0.00, -1.00, 534.9, 626.4)">i</text><text xml:space="preserve" font-family="MarkerFelt-Thin,Marker Felt" font-size="80.0" fill="#45A6DE" transform="matrix(1.00, 0.00, -0.00, -1.00, 554.7, 626.4)">n</text><text xml:space="preserve" font-family="MarkerFelt-Thin,Marker Felt" font-size="80.0" fill="#45A6DE" transform="matrix(1.00, 0.00, -0.00, -1.00, 596.1, 626.4)">e</text><g><clipPath id="clip0x7fd424717c10"><path d="M 104.0 497.2 L 129.2 497.2 L 129.2 520.7 L 104.0 520.7 Z M 104.0 497.2 "></path></clipPath><g clip-path="url(#clip0x7fd424717c10)"><path d="M 128.8 505.7 C 129.1 505.3 129.2 504.9 129.2 504.5 C 129.2 503.8 128.8 503.1 127.9 502.5 C 127.1 501.8 126.1 501.5 125.1 501.5 C 123.7 501.5 122.1 502.5 120.3 504.5 C 120.3 504.5 120.3 501.5 120.3 501.5 C 120.3 501.2 120.4 500.9 120.5 500.4 C 120.7 500.0 120.8 499.7 120.8 499.5 C 120.8 498.9 120.5 498.3 119.8 497.9 C 119.2 497.5 118.6 497.2 117.9 497.2 C 116.8 497.2 115.8 497.7 115.0 498.7 C 114.7 499.0 114.6 499.8 114.7 501.2 C 114.8 502.5 114.9 503.9 115.0 505.3 C 114.3 504.8 112.9 504.0 111.0 503.0 C 110.7 502.6 109.9 502.2 108.6 501.7 C 107.6 501.6 106.6 501.8 105.6 502.3 C 104.5 502.8 104.0 503.4 104.0 504.2 C 104.0 504.4 104.0 504.6 104.1 504.8 C 104.3 505.2 104.8 505.5 105.4 505.7 C 106.4 506.1 107.0 506.3 107.1 506.3 C 107.1 506.3 112.7 509.3 112.7 509.3 C 112.7 509.3 108.7 511.3 108.7 511.3 C 108.1 511.3 107.4 511.5 106.4 512.1 C 106.2 512.4 106.1 512.7 106.1 513.0 C 106.1 514.0 106.7 514.9 107.8 515.8 C 108.9 516.7 110.0 517.1 111.2 517.1 C 111.5 517.1 111.9 517.0 112.3 516.9 C 112.6 516.8 113.0 516.5 113.3 515.9 C 113.6 515.2 114.2 514.6 115.0 514.1 C 115.0 514.1 115.1 517.7 115.1 517.7 C 115.0 518.2 115.0 518.9 115.1 519.8 C 115.5 520.4 116.6 520.7 118.1 520.7 C 119.6 520.7 120.5 520.3 121.0 519.5 C 121.2 519.1 121.2 518.3 121.1 517.0 C 121.0 515.9 120.9 514.8 120.7 513.6 C 120.7 513.6 122.8 514.7 122.8 514.7 C 123.2 515.1 124.0 515.6 125.1 516.1 C 125.9 516.1 126.7 515.8 127.4 515.1 C 128.2 514.5 128.6 513.8 128.6 513.0 C 128.6 512.6 128.5 512.3 128.3 512.0 C 128.1 511.7 127.7 511.5 127.2 511.4 C 126.6 511.3 126.2 511.1 126.0 511.0 C 126.0 511.0 123.0 508.8 123.0 508.8 C 123.0 508.8 126.9 506.7 126.9 506.7 C 127.4 506.5 128.0 506.2 128.8 505.7 Z M 128.8 505.7 " fill="#3995D6"></path></g></g><text xml:space="preserve" font-family="MarkerFelt-Thin,Marker Felt" font-size="46.0" fill="#858585" transform="matrix(1.00, 0.00, -0.00, -1.00, 154.0, 494.0)">F</text><text xml:space="preserve" font-family="MarkerFelt-Thin,Marker Felt" font-size="46.0" fill="#858585" transform="matrix(1.00, 0.00, -0.00, -1.00, 173.3, 494.0)">r</text><text xml:space="preserve" font-family="MarkerFelt-Thin,Marker Felt" font-size="46.0" fill="#858585" transform="matrix(1.00, 0.00, -0.00, -1.00, 192.1, 494.0)">a</text><text xml:space="preserve" font-family="MarkerFelt-Thin,Marker Felt" font-size="46.0" fill="#858585" transform="matrix(1.00, 0.00, -0.00, -1.00, 213.3, 494.0)">m</text><text xml:space="preserve" font-family="MarkerFelt-Thin,Marker Felt" font-size="46.0" fill="#858585" transform="matrix(1.00, 0.00, -0.00, -1.00, 246.4, 494.0)">e</text><text xml:space="preserve" font-family="MarkerFelt-Thin,Marker Felt" font-size="46.0" fill="#858585" transform="matrix(1.00, 0.00, -0.00, -1.00, 267.6, 494.0)">w</text><text xml:space="preserve" font-family="MarkerFelt-Thin,Marker Felt" font-size="46.0" fill="#858585" transform="matrix(1.00, 0.00, -0.00, -1.00, 300.7, 494.0)">o</text><text xml:space="preserve" font-family="MarkerFelt-Thin,Marker Felt" font-size="46.0" fill="#858585" transform="matrix(1.00, 0.00, -0.00, -1.00, 321.4, 494.0)">r</text><text xml:space="preserve" font-family="MarkerFelt-Thin,Marker Felt" font-size="46.0" fill="#858585" transform="matrix(1.00, 0.00, -0.00, -1.00, 341.4, 494.0)">k</text><text xml:space="preserve" font-family="MarkerFelt-Thin,Marker Felt" font-size="46.0" fill="#858585" transform="matrix(1.00, 0.00, -0.00, -1.00, 363.5, 494.0)"> </text><g><clipPath id="clip0x7fd42471cb50"><path d="M 104.0 405.2 L 129.2 405.2 L 129.2 428.7 L 104.0 428.7 Z M 104.0 405.2 "></path></clipPath><g clip-path="url(#clip0x7fd42471cb50)"><path d="M 128.8 413.7 C 129.1 413.3 129.2 412.9 129.2 412.5 C 129.2 411.8 128.8 411.1 127.9 410.5 C 127.1 409.8 126.1 409.5 125.1 409.5 C 123.7 409.5 122.1 410.5 120.3 412.5 C 120.3 412.5 120.3 409.5 120.3 409.5 C 120.3 409.2 120.4 408.9 120.5 408.4 C 120.7 408.0 120.8 407.7 120.8 407.5 C 120.8 406.9 120.5 406.3 119.8 405.9 C 119.2 405.5 118.6 405.2 117.9 405.2 C 116.8 405.2 115.8 405.7 115.0 406.7 C 114.7 407.0 114.6 407.8 114.7 409.2 C 114.8 410.5 114.9 411.9 115.0 413.3 C 114.3 412.8 112.9 412.0 111.0 411.0 C 110.7 410.6 109.9 410.2 108.6 409.7 C 107.6 409.6 106.6 409.8 105.6 410.3 C 104.5 410.8 104.0 411.4 104.0 412.2 C 104.0 412.4 104.0 412.6 104.1 412.8 C 104.3 413.2 104.8 413.5 105.4 413.7 C 106.4 414.1 107.0 414.3 107.1 414.3 C 107.1 414.3 112.7 417.3 112.7 417.3 C 112.7 417.3 108.7 419.3 108.7 419.3 C 108.1 419.3 107.4 419.5 106.4 420.1 C 106.2 420.4 106.1 420.7 106.1 421.0 C 106.1 422.0 106.7 422.9 107.8 423.8 C 108.9 424.7 110.0 425.1 111.2 425.1 C 111.5 425.1 111.9 425.0 112.3 424.9 C 112.6 424.8 113.0 424.5 113.3 423.9 C 113.6 423.2 114.2 422.6 115.0 422.1 C 115.0 422.1 115.1 425.7 115.1 425.7 C 115.0 426.2 115.0 426.9 115.1 427.8 C 115.5 428.4 116.6 428.7 118.1 428.7 C 119.6 428.7 120.5 428.3 121.0 427.5 C 121.2 427.1 121.2 426.3 121.1 425.0 C 121.0 423.9 120.9 422.8 120.7 421.6 C 120.7 421.6 122.8 422.7 122.8 422.7 C 123.2 423.1 124.0 423.6 125.1 424.1 C 125.9 424.1 126.7 423.8 127.4 423.1 C 128.2 422.5 128.6 421.8 128.6 421.0 C 128.6 420.6 128.5 420.3 128.3 420.0 C 128.1 419.7 127.7 419.5 127.2 419.4 C 126.6 419.3 126.2 419.1 126.0 419.0 C 126.0 419.0 123.0 416.8 123.0 416.8 C 123.0 416.8 126.9 414.7 126.9 414.7 C 127.4 414.5 128.0 414.2 128.8 413.7 Z M 128.8 413.7 " fill="#3995D6"></path></g></g><text xml:space="preserve" font-family="MarkerFelt-Thin,Marker Felt" font-size="46.0" fill="#858585" transform="matrix(1.00, 0.00, -0.00, -1.00, 154.0, 402.0)">C</text><text xml:space="preserve" font-family="MarkerFelt-Thin,Marker Felt" font-size="46.0" fill="#858585" transform="matrix(1.00, 0.00, -0.00, -1.00, 177.2, 402.0)">o</text><text xml:space="preserve" font-family="MarkerFelt-Thin,Marker Felt" font-size="46.0" fill="#858585" transform="matrix(1.00, 0.00, -0.00, -1.00, 198.0, 402.0)">n</text><text xml:space="preserve" font-family="MarkerFelt-Thin,Marker Felt" font-size="46.0" fill="#858585" transform="matrix(1.00, 0.00, -0.00, -1.00, 222.1, 402.0)">c</text><text xml:space="preserve" font-family="MarkerFelt-Thin,Marker Felt" font-size="46.0" fill="#858585" transform="matrix(1.00, 0.00, -0.00, -1.00, 241.3, 402.0)">e</text><text xml:space="preserve" font-family="MarkerFelt-Thin,Marker Felt" font-size="46.0" fill="#858585" transform="matrix(1.00, 0.00, -0.00, -1.00, 261.2, 402.0)">p</text><text xml:space="preserve" font-family="MarkerFelt-Thin,Marker Felt" font-size="46.0" fill="#858585" transform="matrix(1.00, 0.00, -0.00, -1.00, 283.9, 402.0)">t</text><text xml:space="preserve" font-family="MarkerFelt-Thin,Marker Felt" font-size="46.0" fill="#858585" transform="matrix(1.00, 0.00, -0.00, -1.00, 300.5, 402.0)"> </text><g><clipPath id="clip0x7fd424702e00"><path d="M 104.0 313.2 L 129.2 313.2 L 129.2 336.7 L 104.0 336.7 Z M 104.0 313.2 "></path></clipPath><g clip-path="url(#clip0x7fd424702e00)"><path d="M 128.8 321.7 C 129.1 321.3 129.2 320.9 129.2 320.5 C 129.2 319.8 128.8 319.1 127.9 318.5 C 127.1 317.8 126.1 317.5 125.1 317.5 C 123.7 317.5 122.1 318.5 120.3 320.5 C 120.3 320.5 120.3 317.5 120.3 317.5 C 120.3 317.2 120.4 316.9 120.5 316.4 C 120.7 316.0 120.8 315.7 120.8 315.5 C 120.8 314.9 120.5 314.3 119.8 313.9 C 119.2 313.5 118.6 313.2 117.9 313.2 C 116.8 313.2 115.8 313.7 115.0 314.7 C 114.7 315.0 114.6 315.8 114.7 317.2 C 114.8 318.5 114.9 319.9 115.0 321.3 C 114.3 320.8 112.9 320.0 111.0 319.0 C 110.7 318.6 109.9 318.2 108.6 317.7 C 107.6 317.6 106.6 317.8 105.6 318.3 C 104.5 318.8 104.0 319.4 104.0 320.2 C 104.0 320.4 104.0 320.6 104.1 320.8 C 104.3 321.2 104.8 321.5 105.4 321.7 C 106.4 322.1 107.0 322.3 107.1 322.3 C 107.1 322.3 112.7 325.3 112.7 325.3 C 112.7 325.3 108.7 327.3 108.7 327.3 C 108.1 327.3 107.4 327.5 106.4 328.1 C 106.2 328.4 106.1 328.7 106.1 329.0 C 106.1 330.0 106.7 330.9 107.8 331.8 C 108.9 332.7 110.0 333.1 111.2 333.1 C 111.5 333.1 111.9 333.0 112.3 332.9 C 112.6 332.8 113.0 332.5 113.3 331.9 C 113.6 331.2 114.2 330.6 115.0 330.1 C 115.0 330.1 115.1 333.7 115.1 333.7 C 115.0 334.2 115.0 334.9 115.1 335.8 C 115.5 336.4 116.6 336.7 118.1 336.7 C 119.6 336.7 120.5 336.3 121.0 335.5 C 121.2 335.1 121.2 334.3 121.1 333.0 C 121.0 331.9 120.9 330.8 120.7 329.6 C 120.7 329.6 122.8 330.7 122.8 330.7 C 123.2 331.1 124.0 331.6 125.1 332.1 C 125.9 332.1 126.7 331.8 127.4 331.1 C 128.2 330.5 128.6 329.8 128.6 329.0 C 128.6 328.6 128.5 328.3 128.3 328.0 C 128.1 327.7 127.7 327.5 127.2 327.4 C 126.6 327.3 126.2 327.1 126.0 327.0 C 126.0 327.0 123.0 324.8 123.0 324.8 C 123.0 324.8 126.9 322.7 126.9 322.7 C 127.4 322.5 128.0 322.2 128.8 321.7 Z M 128.8 321.7 " fill="#3995D6"></path></g></g><text xml:space="preserve" font-family="MarkerFelt-Thin,Marker Felt" font-size="46.0" fill="#858585" transform="matrix(1.00, 0.00, -0.00, -1.00, 154.0, 310.0)">P</text><text xml:space="preserve" font-family="MarkerFelt-Thin,Marker Felt" font-size="46.0" fill="#858585" transform="matrix(1.00, 0.00, -0.00, -1.00, 174.7, 310.0)">r</text><text xml:space="preserve" font-family="MarkerFelt-Thin,Marker Felt" font-size="46.0" fill="#858585" transform="matrix(1.00, 0.00, -0.00, -1.00, 193.4, 310.0)">o</text><text xml:space="preserve" font-family="MarkerFelt-Thin,Marker Felt" font-size="46.0" fill="#858585" transform="matrix(1.00, 0.00, -0.00, -1.00, 213.9, 310.0)">j</text><text xml:space="preserve" font-family="MarkerFelt-Thin,Marker Felt" font-size="46.0" fill="#858585" transform="matrix(1.00, 0.00, -0.00, -1.00, 224.5, 310.0)">e</text><text xml:space="preserve" font-family="MarkerFelt-Thin,Marker Felt" font-size="46.0" fill="#858585" transform="matrix(1.00, 0.00, -0.00, -1.00, 244.8, 310.0)">c</text><text xml:space="preserve" font-family="MarkerFelt-Thin,Marker Felt" font-size="46.0" fill="#858585" transform="matrix(1.00, 0.00, -0.00, -1.00, 264.9, 310.0)">t</text><text xml:space="preserve" font-family="MarkerFelt-Thin,Marker Felt" font-size="46.0" fill="#858585" transform="matrix(1.00, 0.00, -0.00, -1.00, 281.5, 310.0)"> </text><g><clipPath id="clip0x7fd424707180"><path d="M 104.0 221.2 L 129.2 221.2 L 129.2 244.7 L 104.0 244.7 Z M 104.0 221.2 "></path></clipPath><g clip-path="url(#clip0x7fd424707180)"><path d="M 128.8 229.7 C 129.1 229.3 129.2 228.9 129.2 228.5 C 129.2 227.8 128.8 227.1 127.9 226.5 C 127.1 225.8 126.1 225.5 125.1 225.5 C 123.7 225.5 122.1 226.5 120.3 228.5 C 120.3 228.5 120.3 225.5 120.3 225.5 C 120.3 225.2 120.4 224.9 120.5 224.4 C 120.7 224.0 120.8 223.7 120.8 223.5 C 120.8 222.9 120.5 222.3 119.8 221.9 C 119.2 221.5 118.6 221.2 117.9 221.2 C 116.8 221.2 115.8 221.7 115.0 222.7 C 114.7 223.0 114.6 223.8 114.7 225.2 C 114.8 226.5 114.9 227.9 115.0 229.3 C 114.3 228.8 112.9 228.0 111.0 227.0 C 110.7 226.6 109.9 226.2 108.6 225.7 C 107.6 225.6 106.6 225.8 105.6 226.3 C 104.5 226.8 104.0 227.4 104.0 228.2 C 104.0 228.4 104.0 228.6 104.1 228.8 C 104.3 229.2 104.8 229.5 105.4 229.7 C 106.4 230.1 107.0 230.3 107.1 230.3 C 107.1 230.3 112.7 233.3 112.7 233.3 C 112.7 233.3 108.7 235.3 108.7 235.3 C 108.1 235.3 107.4 235.5 106.4 236.1 C 106.2 236.4 106.1 236.7 106.1 237.0 C 106.1 238.0 106.7 238.9 107.8 239.8 C 108.9 240.7 110.0 241.1 111.2 241.1 C 111.5 241.1 111.9 241.0 112.3 240.9 C 112.6 240.8 113.0 240.5 113.3 239.9 C 113.6 239.2 114.2 238.6 115.0 238.1 C 115.0 238.1 115.1 241.7 115.1 241.7 C 115.0 242.2 115.0 242.9 115.1 243.8 C 115.5 244.4 116.6 244.7 118.1 244.7 C 119.6 244.7 120.5 244.3 121.0 243.5 C 121.2 243.1 121.2 242.3 121.1 241.0 C 121.0 239.9 120.9 238.8 120.7 237.6 C 120.7 237.6 122.8 238.7 122.8 238.7 C 123.2 239.1 124.0 239.6 125.1 240.1 C 125.9 240.1 126.7 239.8 127.4 239.1 C 128.2 238.5 128.6 237.8 128.6 237.0 C 128.6 236.6 128.5 236.3 128.3 236.0 C 128.1 235.7 127.7 235.5 127.2 235.4 C 126.6 235.3 126.2 235.1 126.0 235.0 C 126.0 235.0 123.0 232.8 123.0 232.8 C 123.0 232.8 126.9 230.7 126.9 230.7 C 127.4 230.5 128.0 230.2 128.8 229.7 Z M 128.8 229.7 " fill="#3995D6"></path></g></g><text xml:space="preserve" font-family="MarkerFelt-Thin,Marker Felt" font-size="46.0" fill="#858585" transform="matrix(1.00, 0.00, -0.00, -1.00, 154.0, 218.0)">F</text><text xml:space="preserve" font-family="MarkerFelt-Thin,Marker Felt" font-size="46.0" fill="#858585" transform="matrix(1.00, 0.00, -0.00, -1.00, 173.3, 218.0)">e</text><text xml:space="preserve" font-family="MarkerFelt-Thin,Marker Felt" font-size="46.0" fill="#858585" transform="matrix(1.00, 0.00, -0.00, -1.00, 194.7, 218.0)">a</text><text xml:space="preserve" font-family="MarkerFelt-Thin,Marker Felt" font-size="46.0" fill="#858585" transform="matrix(1.00, 0.00, -0.00, -1.00, 217.2, 218.0)">t</text><text xml:space="preserve" font-family="MarkerFelt-Thin,Marker Felt" font-size="46.0" fill="#858585" transform="matrix(1.00, 0.00, -0.00, -1.00, 236.9, 218.0)">u</text><text xml:space="preserve" font-family="MarkerFelt-Thin,Marker Felt" font-size="46.0" fill="#858585" transform="matrix(1.00, 0.00, -0.00, -1.00, 257.9, 218.0)">r</text><text xml:space="preserve" font-family="MarkerFelt-Thin,Marker Felt" font-size="46.0" fill="#858585" transform="matrix(1.00, 0.00, -0.00, -1.00, 275.3, 218.0)">e</text><text xml:space="preserve" font-family="MarkerFelt-Thin,Marker Felt" font-size="46.0" fill="#858585" transform="matrix(1.00, 0.00, -0.00, -1.00, 292.8, 218.0)"> </text><g><clipPath id="clip0x7fd42470b530"><path d="M 104.0 129.2 L 129.2 129.2 L 129.2 152.7 L 104.0 152.7 Z M 104.0 129.2 "></path></clipPath><g clip-path="url(#clip0x7fd42470b530)"><path d="M 128.8 137.7 C 129.1 137.3 129.2 136.9 129.2 136.5 C 129.2 135.8 128.8 135.1 127.9 134.5 C 127.1 133.8 126.1 133.5 125.1 133.5 C 123.7 133.5 122.1 134.5 120.3 136.5 C 120.3 136.5 120.3 133.5 120.3 133.5 C 120.3 133.2 120.4 132.9 120.5 132.4 C 120.7 132.0 120.8 131.7 120.8 131.5 C 120.8 130.9 120.5 130.3 119.8 129.9 C 119.2 129.5 118.6 129.2 117.9 129.2 C 116.8 129.2 115.8 129.7 115.0 130.7 C 114.7 131.0 114.6 131.8 114.7 133.2 C 114.8 134.5 114.9 135.9 115.0 137.3 C 114.3 136.8 112.9 136.0 111.0 135.0 C 110.7 134.6 109.9 134.2 108.6 133.7 C 107.6 133.6 106.6 133.8 105.6 134.3 C 104.5 134.8 104.0 135.4 104.0 136.2 C 104.0 136.4 104.0 136.6 104.1 136.8 C 104.3 137.2 104.8 137.5 105.4 137.7 C 106.4 138.1 107.0 138.3 107.1 138.3 C 107.1 138.3 112.7 141.3 112.7 141.3 C 112.7 141.3 108.7 143.3 108.7 143.3 C 108.1 143.3 107.4 143.5 106.4 144.1 C 106.2 144.4 106.1 144.7 106.1 145.0 C 106.1 146.0 106.7 146.9 107.8 147.8 C 108.9 148.7 110.0 149.1 111.2 149.1 C 111.5 149.1 111.9 149.0 112.3 148.9 C 112.6 148.8 113.0 148.5 113.3 147.9 C 113.6 147.2 114.2 146.6 115.0 146.1 C 115.0 146.1 115.1 149.7 115.1 149.7 C 115.0 150.2 115.0 150.9 115.1 151.8 C 115.5 152.4 116.6 152.7 118.1 152.7 C 119.6 152.7 120.5 152.3 121.0 151.5 C 121.2 151.1 121.2 150.3 121.1 149.0 C 121.0 147.9 120.9 146.8 120.7 145.6 C 120.7 145.6 122.8 146.7 122.8 146.7 C 123.2 147.1 124.0 147.6 125.1 148.1 C 125.9 148.1 126.7 147.8 127.4 147.1 C 128.2 146.5 128.6 145.8 128.6 145.0 C 128.6 144.6 128.5 144.3 128.3 144.0 C 128.1 143.7 127.7 143.5 127.2 143.4 C 126.6 143.3 126.2 143.1 126.0 143.0 C 126.0 143.0 123.0 140.8 123.0 140.8 C 123.0 140.8 126.9 138.7 126.9 138.7 C 127.4 138.5 128.0 138.2 128.8 137.7 Z M 128.8 137.7 " fill="#3995D6"></path></g></g><text xml:space="preserve" font-family="MarkerFelt-Thin,Marker Felt" font-size="46.0" fill="#858585" transform="matrix(1.00, 0.00, -0.00, -1.00, 154.0, 126.0)">E</text><text xml:space="preserve" font-family="MarkerFelt-Thin,Marker Felt" font-size="46.0" fill="#858585" transform="matrix(1.00, 0.00, -0.00, -1.00, 175.2, 126.0)">x</text><text xml:space="preserve" font-family="MarkerFelt-Thin,Marker Felt" font-size="46.0" fill="#858585" transform="matrix(1.00, 0.00, -0.00, -1.00, 195.9, 126.0)">t</text><text xml:space="preserve" font-family="MarkerFelt-Thin,Marker Felt" font-size="46.0" fill="#858585" transform="matrix(1.00, 0.00, -0.00, -1.00, 213.4, 126.0)">e</text><text xml:space="preserve" font-family="MarkerFelt-Thin,Marker Felt" font-size="46.0" fill="#858585" transform="matrix(1.00, 0.00, -0.00, -1.00, 233.9, 126.0)">n</text><text xml:space="preserve" font-family="MarkerFelt-Thin,Marker Felt" font-size="46.0" fill="#858585" transform="matrix(1.00, 0.00, -0.00, -1.00, 258.1, 126.0)">d</text></g></svg>