<?xml version="1.0" encoding="UTF-8" standalone="no"?><svg xmlns="http://www.w3.org/2000/svg" xmlns:xlink="http://www.w3.org/1999/xlink" clip-rule="evenodd" stroke-miterlimit="10" viewBox="0 0 1024 768"><desc>SVG generated by Keynote</desc><defs></defs><g transform="matrix(1.00, 0.00, -0.00, -1.00, 0.0, 768.0)"><g><clipPath id="clip0x7fd427599270"><path d="M 0.0 768.0 L 1024.0 768.0 L 1024.0 0.0 L 0.0 0.0 Z M 0.0 768.0 "></path></clipPath><g clip-path="url(#clip0x7fd427599270)"><image xlink:href="../../D3A9A44C-A1F3-457B-A38D-765D2DDF54DB/assets/EBB0417F320B7CF9EEE7A69128C7B5B4.jpeg" width="2048.00" height="1536.00" transform="matrix(0.50, 0.00, -0.00, -0.50, 0.0, 768.0)"></image></g></g><text xml:space="preserve" font-family="MarkerFelt-Thin,Marker Felt" font-size="80.0" fill="#45A6DE" transform="matrix(1.00, 0.00, -0.00, -1.00, 257.7, 626.4)">f</text><text xml:space="preserve" font-family="MarkerFelt-Thin,Marker Felt" font-size="80.0" fill="#45A6DE" transform="matrix(1.00, 0.00, -0.00, -1.00, 292.6, 626.4)">r</text><text xml:space="preserve" font-family="MarkerFelt-Thin,Marker Felt" font-size="80.0" fill="#45A6DE" transform="matrix(1.00, 0.00, -0.00, -1.00, 325.1, 626.4)">o</text><text xml:space="preserve" font-family="MarkerFelt-Thin,Marker Felt" font-size="80.0" fill="#45A6DE" transform="matrix(1.00, 0.00, -0.00, -1.00, 361.4, 626.4)">n</text><text xml:space="preserve" font-family="MarkerFelt-Thin,Marker Felt" font-size="80.0" fill="#45A6DE" transform="matrix(1.00, 0.00, -0.00, -1.00, 405.2, 626.4)">t</text><text xml:space="preserve" font-family="MarkerFelt-Thin,Marker Felt" font-size="80.0" fill="#45A6DE" transform="matrix(1.00, 0.00, -0.00, -1.00, 435.7, 626.4)">e</text><text xml:space="preserve" font-family="MarkerFelt-Thin,Marker Felt" font-size="80.0" fill="#45A6DE" transform="matrix(1.00, 0.00, -0.00, -1.00, 471.2, 626.4)">n</text><text xml:space="preserve" font-family="MarkerFelt-Thin,Marker Felt" font-size="80.0" fill="#45A6DE" transform="matrix(1.00, 0.00, -0.00, -1.00, 513.4, 626.4)">d</text><text xml:space="preserve" font-family="MarkerFelt-Thin,Marker Felt" font-size="80.0" fill="#45A6DE" transform="matrix(1.00, 0.00, -0.00, -1.00, 549.9, 626.4)">:</text><text xml:space="preserve" font-family="MarkerFelt-Thin,Marker Felt" font-size="80.0" fill="#45A6DE" transform="matrix(1.00, 0.00, -0.00, -1.00, 568.3, 626.4)"> </text><text xml:space="preserve" font-family="MarkerFelt-Thin,Marker Felt" font-size="80.0" fill="#45A6DE" transform="matrix(1.00, 0.00, -0.00, -1.00, 588.3, 626.4)">c</text><text xml:space="preserve" font-family="MarkerFelt-Thin,Marker Felt" font-size="80.0" fill="#45A6DE" transform="matrix(1.00, 0.00, -0.00, -1.00, 621.8, 626.4)">l</text><text xml:space="preserve" font-family="MarkerFelt-Thin,Marker Felt" font-size="80.0" fill="#45A6DE" transform="matrix(1.00, 0.00, -0.00, -1.00, 640.6, 626.4)">i</text><text xml:space="preserve" font-family="MarkerFelt-Thin,Marker Felt" font-size="80.0" fill="#45A6DE" transform="matrix(1.00, 0.00, -0.00, -1.00, 658.2, 626.4)">e</text><text xml:space="preserve" font-family="MarkerFelt-Thin,Marker Felt" font-size="80.0" fill="#45A6DE" transform="matrix(1.00, 0.00, -0.00, -1.00, 693.7, 626.4)">n</text><text xml:space="preserve" font-family="MarkerFelt-Thin,Marker Felt" font-size="80.0" fill="#45A6DE" transform="matrix(1.00, 0.00, -0.00, -1.00, 737.5, 626.4)">t</text><g><clipPath id="clip0x7fd42769f340"><path d="M 104.0 517.6 L 121.4 517.6 L 121.4 533.8 L 104.0 533.8 Z M 104.0 517.6 "></path></clipPath><g clip-path="url(#clip0x7fd42769f340)"><path d="M 121.1 523.4 C 121.3 523.2 121.4 522.9 121.4 522.6 C 121.4 522.1 121.1 521.6 120.5 521.2 C 119.9 520.8 119.3 520.5 118.6 520.5 C 117.6 520.5 116.5 521.2 115.2 522.6 C 115.2 522.6 115.2 520.5 115.2 520.5 C 115.2 520.3 115.3 520.1 115.4 519.8 C 115.5 519.5 115.6 519.3 115.6 519.2 C 115.6 518.7 115.4 518.4 114.9 518.0 C 114.5 517.7 114.0 517.6 113.6 517.6 C 112.8 517.6 112.1 517.9 111.6 518.6 C 111.4 518.8 111.3 519.4 111.4 520.3 C 111.4 521.2 111.5 522.2 111.6 523.1 C 111.1 522.8 110.2 522.3 108.8 521.6 C 108.6 521.3 108.1 521.0 107.2 520.7 C 106.5 520.6 105.8 520.8 105.1 521.1 C 104.4 521.4 104.0 521.8 104.0 522.4 C 104.0 522.5 104.0 522.6 104.1 522.8 C 104.2 523.1 104.5 523.3 105.0 523.4 C 105.7 523.7 106.1 523.8 106.1 523.9 C 106.1 523.9 110.0 525.9 110.0 525.9 C 110.0 525.9 107.3 527.3 107.3 527.3 C 106.9 527.3 106.3 527.5 105.7 527.8 C 105.5 528.0 105.5 528.3 105.5 528.5 C 105.5 529.1 105.9 529.8 106.6 530.4 C 107.4 531.0 108.2 531.3 109.0 531.3 C 109.2 531.3 109.4 531.3 109.7 531.2 C 110.0 531.1 110.2 530.9 110.4 530.5 C 110.6 530.0 111.0 529.6 111.6 529.3 C 111.6 529.3 111.7 531.7 111.7 531.7 C 111.6 532.0 111.6 532.5 111.7 533.2 C 112.0 533.6 112.7 533.8 113.8 533.8 C 114.7 533.8 115.4 533.5 115.7 532.9 C 115.9 532.7 115.9 532.1 115.8 531.2 C 115.7 530.5 115.6 529.7 115.5 528.9 C 115.5 528.9 117.0 529.6 117.0 529.6 C 117.2 529.9 117.8 530.2 118.6 530.6 C 119.1 530.6 119.6 530.4 120.2 529.9 C 120.7 529.5 121.0 529.0 121.0 528.4 C 121.0 528.2 120.9 528.0 120.8 527.8 C 120.6 527.6 120.4 527.4 120.0 527.4 C 119.6 527.3 119.3 527.2 119.2 527.1 C 119.2 527.1 117.1 525.6 117.1 525.6 C 117.1 525.6 119.8 524.1 119.8 524.1 C 120.1 524.0 120.6 523.8 121.1 523.4 Z M 121.1 523.4 " fill="#3995D6"></path></g></g><text xml:space="preserve" font-family="LucidaGrande,Lucida Grande" font-size="31.7" fill="#858585" transform="matrix(1.00, 0.00, -0.00, -1.00, 138.5, 513.7)">$</text><text xml:space="preserve" font-family="LucidaGrande,Lucida Grande" font-size="31.7" fill="#858585" transform="matrix(1.00, 0.00, -0.00, -1.00, 158.6, 513.7)">r</text><text xml:space="preserve" font-family="LucidaGrande,Lucida Grande" font-size="31.7" fill="#858585" transform="matrix(1.00, 0.00, -0.00, -1.00, 171.6, 513.7)">e</text><text xml:space="preserve" font-family="LucidaGrande,Lucida Grande" font-size="31.7" fill="#858585" transform="matrix(1.00, 0.00, -0.00, -1.00, 189.3, 513.7)">q</text><text xml:space="preserve" font-family="LucidaGrande,Lucida Grande" font-size="31.7" fill="#858585" transform="matrix(1.00, 0.00, -0.00, -1.00, 209.2, 513.7)">u</text><text xml:space="preserve" font-family="LucidaGrande,Lucida Grande" font-size="31.7" fill="#858585" transform="matrix(1.00, 0.00, -0.00, -1.00, 228.9, 513.7)">e</text><text xml:space="preserve" font-family="LucidaGrande,Lucida Grande" font-size="31.7" fill="#858585" transform="matrix(1.00, 0.00, -0.00, -1.00, 246.6, 513.7)">s</text><text xml:space="preserve" font-family="LucidaGrande,Lucida Grande" font-size="31.7" fill="#858585" transform="matrix(1.00, 0.00, -0.00, -1.00, 262.8, 513.7)">t</text><text xml:space="preserve" font-family="LucidaGrande,Lucida Grande" font-size="31.7" fill="#858585" transform="matrix(1.00, 0.00, -0.00, -1.00, 274.7, 513.7)"> </text><text xml:space="preserve" font-family="LucidaGrande,Lucida Grande" font-size="31.7" fill="#858585" transform="matrix(1.00, 0.00, -0.00, -1.00, 284.7, 513.7)">=</text><text xml:space="preserve" font-family="LucidaGrande,Lucida Grande" font-size="31.7" fill="#858585" transform="matrix(1.00, 0.00, -0.00, -1.00, 309.9, 513.7)"> </text><text xml:space="preserve" font-family="LucidaGrande,Lucida Grande" font-size="31.7" fill="#858585" transform="matrix(1.00, 0.00, -0.00, -1.00, 320.0, 513.7)">n</text><text xml:space="preserve" font-family="LucidaGrande,Lucida Grande" font-size="31.7" fill="#858585" transform="matrix(1.00, 0.00, -0.00, -1.00, 339.7, 513.7)">e</text><text xml:space="preserve" font-family="LucidaGrande,Lucida Grande" font-size="31.7" fill="#858585" transform="matrix(1.00, 0.00, -0.00, -1.00, 357.4, 513.7)">w</text><text xml:space="preserve" font-family="LucidaGrande,Lucida Grande" font-size="31.7" fill="#858585" transform="matrix(1.00, 0.00, -0.00, -1.00, 381.8, 513.7)"> </text><text xml:space="preserve" font-family="LucidaGrande,Lucida Grande" font-size="31.7" fill="#858585" transform="matrix(1.00, 0.00, -0.00, -1.00, 391.9, 513.7)">P</text><text xml:space="preserve" font-family="LucidaGrande,Lucida Grande" font-size="31.7" fill="#858585" transform="matrix(1.00, 0.00, -0.00, -1.00, 409.4, 513.7)">r</text><text xml:space="preserve" font-family="LucidaGrande,Lucida Grande" font-size="31.7" fill="#858585" transform="matrix(1.00, 0.00, -0.00, -1.00, 422.4, 513.7)">o</text><text xml:space="preserve" font-family="LucidaGrande,Lucida Grande" font-size="31.7" fill="#858585" transform="matrix(1.00, 0.00, -0.00, -1.00, 441.9, 513.7)">t</text><text xml:space="preserve" font-family="LucidaGrande,Lucida Grande" font-size="31.7" fill="#858585" transform="matrix(1.00, 0.00, -0.00, -1.00, 453.8, 513.7)">o</text><text xml:space="preserve" font-family="LucidaGrande,Lucida Grande" font-size="31.7" fill="#858585" transform="matrix(1.00, 0.00, -0.00, -1.00, 473.3, 513.7)">S</text><text xml:space="preserve" font-family="LucidaGrande,Lucida Grande" font-size="31.7" fill="#858585" transform="matrix(1.00, 0.00, -0.00, -1.00, 490.4, 513.7)">e</text><text xml:space="preserve" font-family="LucidaGrande,Lucida Grande" font-size="31.7" fill="#858585" transform="matrix(1.00, 0.00, -0.00, -1.00, 508.1, 513.7)">s</text><text xml:space="preserve" font-family="LucidaGrande,Lucida Grande" font-size="31.7" fill="#858585" transform="matrix(1.00, 0.00, -0.00, -1.00, 524.2, 513.7)">s</text><text xml:space="preserve" font-family="LucidaGrande,Lucida Grande" font-size="31.7" fill="#858585" transform="matrix(1.00, 0.00, -0.00, -1.00, 540.4, 513.7)">i</text><text xml:space="preserve" font-family="LucidaGrande,Lucida Grande" font-size="31.7" fill="#858585" transform="matrix(1.00, 0.00, -0.00, -1.00, 549.6, 513.7)">o</text><text xml:space="preserve" font-family="LucidaGrande,Lucida Grande" font-size="31.7" fill="#858585" transform="matrix(1.00, 0.00, -0.00, -1.00, 569.1, 513.7)">n</text><text xml:space="preserve" font-family="LucidaGrande,Lucida Grande" font-size="31.7" fill="#858585" transform="matrix(1.00, 0.00, -0.00, -1.00, 588.8, 513.7)">I</text><text xml:space="preserve" font-family="LucidaGrande,Lucida Grande" font-size="31.7" fill="#858585" transform="matrix(1.00, 0.00, -0.00, -1.00, 597.9, 513.7)">d</text><text xml:space="preserve" font-family="LucidaGrande,Lucida Grande" font-size="31.7" fill="#858585" transform="matrix(1.00, 0.00, -0.00, -1.00, 617.9, 513.7)">(</text><text xml:space="preserve" font-family="LucidaGrande,Lucida Grande" font-size="31.7" fill="#858585" transform="matrix(1.00, 0.00, -0.00, -1.00, 628.2, 513.7)">)</text><text xml:space="preserve" font-family="LucidaGrande,Lucida Grande" font-size="31.7" fill="#858585" transform="matrix(1.00, 0.00, -0.00, -1.00, 638.6, 513.7)">;</text><g><clipPath id="clip0x7fd408486540"><path d="M 104.0 450.6 L 121.4 450.6 L 121.4 466.8 L 104.0 466.8 Z M 104.0 450.6 "></path></clipPath><g clip-path="url(#clip0x7fd408486540)"><path d="M 121.1 456.4 C 121.3 456.2 121.4 455.9 121.4 455.7 C 121.4 455.1 121.1 454.7 120.5 454.2 C 119.9 453.8 119.3 453.6 118.6 453.6 C 117.6 453.6 116.5 454.3 115.2 455.7 C 115.2 455.7 115.2 453.6 115.2 453.6 C 115.2 453.4 115.3 453.1 115.4 452.8 C 115.5 452.5 115.6 452.3 115.6 452.2 C 115.6 451.7 115.4 451.4 114.9 451.1 C 114.5 450.8 114.0 450.6 113.6 450.6 C 112.8 450.6 112.1 451.0 111.6 451.6 C 111.4 451.8 111.3 452.4 111.4 453.3 C 111.4 454.3 111.5 455.2 111.6 456.2 C 111.1 455.8 110.2 455.3 108.8 454.6 C 108.6 454.3 108.1 454.0 107.2 453.7 C 106.5 453.6 105.8 453.8 105.1 454.1 C 104.4 454.4 104.0 454.9 104.0 455.4 C 104.0 455.5 104.0 455.7 104.1 455.8 C 104.2 456.1 104.5 456.3 105.0 456.5 C 105.7 456.7 106.1 456.8 106.1 456.9 C 106.1 456.9 110.0 459.0 110.0 459.0 C 110.0 459.0 107.3 460.3 107.3 460.3 C 106.9 460.3 106.3 460.5 105.7 460.8 C 105.5 461.1 105.5 461.3 105.5 461.5 C 105.5 462.2 105.9 462.8 106.6 463.4 C 107.4 464.0 108.2 464.3 109.0 464.3 C 109.2 464.3 109.4 464.3 109.7 464.2 C 110.0 464.1 110.2 463.9 110.4 463.5 C 110.6 463.0 111.0 462.6 111.6 462.3 C 111.6 462.3 111.7 464.7 111.7 464.7 C 111.6 465.1 111.6 465.6 111.7 466.2 C 112.0 466.6 112.7 466.8 113.8 466.8 C 114.7 466.8 115.4 466.5 115.7 465.9 C 115.9 465.7 115.9 465.1 115.8 464.3 C 115.7 463.5 115.6 462.7 115.5 461.9 C 115.5 461.9 117.0 462.6 117.0 462.6 C 117.2 462.9 117.8 463.3 118.6 463.6 C 119.1 463.6 119.6 463.4 120.2 463.0 C 120.7 462.5 121.0 462.0 121.0 461.5 C 121.0 461.2 120.9 461.0 120.8 460.8 C 120.6 460.6 120.4 460.5 120.0 460.4 C 119.6 460.3 119.3 460.2 119.2 460.1 C 119.2 460.1 117.1 458.6 117.1 458.6 C 117.1 458.6 119.8 457.1 119.8 457.1 C 120.1 457.0 120.6 456.8 121.1 456.4 Z M 121.1 456.4 " fill="#3995D6"></path></g></g><text xml:space="preserve" font-family="LucidaGrande,Lucida Grande" font-size="31.7" fill="#858585" transform="matrix(1.00, 0.00, -0.00, -1.00, 138.5, 446.7)">$</text><text xml:space="preserve" font-family="LucidaGrande,Lucida Grande" font-size="31.7" fill="#858585" transform="matrix(1.00, 0.00, -0.00, -1.00, 158.6, 446.7)">r</text><text xml:space="preserve" font-family="LucidaGrande,Lucida Grande" font-size="31.7" fill="#858585" transform="matrix(1.00, 0.00, -0.00, -1.00, 171.6, 446.7)">e</text><text xml:space="preserve" font-family="LucidaGrande,Lucida Grande" font-size="31.7" fill="#858585" transform="matrix(1.00, 0.00, -0.00, -1.00, 189.3, 446.7)">q</text><text xml:space="preserve" font-family="LucidaGrande,Lucida Grande" font-size="31.7" fill="#858585" transform="matrix(1.00, 0.00, -0.00, -1.00, 209.2, 446.7)">u</text><text xml:space="preserve" font-family="LucidaGrande,Lucida Grande" font-size="31.7" fill="#858585" transform="matrix(1.00, 0.00, -0.00, -1.00, 228.9, 446.7)">e</text><text xml:space="preserve" font-family="LucidaGrande,Lucida Grande" font-size="31.7" fill="#858585" transform="matrix(1.00, 0.00, -0.00, -1.00, 246.6, 446.7)">s</text><text xml:space="preserve" font-family="LucidaGrande,Lucida Grande" font-size="31.7" fill="#858585" transform="matrix(1.00, 0.00, -0.00, -1.00, 262.8, 446.7)">t</text><text xml:space="preserve" font-family="LucidaGrande,Lucida Grande" font-size="31.7" fill="#858585" transform="matrix(1.00, 0.00, -0.00, -1.00, 274.7, 446.7)">-</text><text xml:space="preserve" font-family="LucidaGrande,Lucida Grande" font-size="31.7" fill="#858585" transform="matrix(1.00, 0.00, -0.00, -1.00, 293.0, 446.7)">&gt;</text><text xml:space="preserve" font-family="LucidaGrande,Lucida Grande" font-size="31.7" fill="#858585" transform="matrix(1.00, 0.00, -0.00, -1.00, 318.2, 446.7)">s</text><text xml:space="preserve" font-family="LucidaGrande,Lucida Grande" font-size="31.7" fill="#858585" transform="matrix(1.00, 0.00, -0.00, -1.00, 334.4, 446.7)">e</text><text xml:space="preserve" font-family="LucidaGrande,Lucida Grande" font-size="31.7" fill="#858585" transform="matrix(1.00, 0.00, -0.00, -1.00, 352.1, 446.7)">t</text><text xml:space="preserve" font-family="LucidaGrande,Lucida Grande" font-size="31.7" fill="#858585" transform="matrix(1.00, 0.00, -0.00, -1.00, 364.0, 446.7)">S</text><text xml:space="preserve" font-family="LucidaGrande,Lucida Grande" font-size="31.7" fill="#858585" transform="matrix(1.00, 0.00, -0.00, -1.00, 381.1, 446.7)">e</text><text xml:space="preserve" font-family="LucidaGrande,Lucida Grande" font-size="31.7" fill="#858585" transform="matrix(1.00, 0.00, -0.00, -1.00, 398.7, 446.7)">s</text><text xml:space="preserve" font-family="LucidaGrande,Lucida Grande" font-size="31.7" fill="#858585" transform="matrix(1.00, 0.00, -0.00, -1.00, 414.9, 446.7)">s</text><text xml:space="preserve" font-family="LucidaGrande,Lucida Grande" font-size="31.7" fill="#858585" transform="matrix(1.00, 0.00, -0.00, -1.00, 431.1, 446.7)">i</text><text xml:space="preserve" font-family="LucidaGrande,Lucida Grande" font-size="31.7" fill="#858585" transform="matrix(1.00, 0.00, -0.00, -1.00, 440.3, 446.7)">o</text><text xml:space="preserve" font-family="LucidaGrande,Lucida Grande" font-size="31.7" fill="#858585" transform="matrix(1.00, 0.00, -0.00, -1.00, 459.8, 446.7)">n</text><text xml:space="preserve" font-family="LucidaGrande,Lucida Grande" font-size="31.7" fill="#858585" transform="matrix(1.00, 0.00, -0.00, -1.00, 479.5, 446.7)">I</text><text xml:space="preserve" font-family="LucidaGrande,Lucida Grande" font-size="31.7" fill="#858585" transform="matrix(1.00, 0.00, -0.00, -1.00, 488.6, 446.7)">d</text><text xml:space="preserve" font-family="LucidaGrande,Lucida Grande" font-size="31.7" fill="#858585" transform="matrix(1.00, 0.00, -0.00, -1.00, 508.6, 446.7)">(</text><text xml:space="preserve" font-family="LucidaGrande,Lucida Grande" font-size="31.7" fill="#858585" transform="matrix(1.00, 0.00, -0.00, -1.00, 518.9, 446.7)">$</text><text xml:space="preserve" font-family="LucidaGrande,Lucida Grande" font-size="31.7" fill="#858585" transform="matrix(1.00, 0.00, -0.00, -1.00, 539.0, 446.7)">s</text><text xml:space="preserve" font-family="LucidaGrande,Lucida Grande" font-size="31.7" fill="#858585" transform="matrix(1.00, 0.00, -0.00, -1.00, 555.2, 446.7)">e</text><text xml:space="preserve" font-family="LucidaGrande,Lucida Grande" font-size="31.7" fill="#858585" transform="matrix(1.00, 0.00, -0.00, -1.00, 572.9, 446.7)">s</text><text xml:space="preserve" font-family="LucidaGrande,Lucida Grande" font-size="31.7" fill="#858585" transform="matrix(1.00, 0.00, -0.00, -1.00, 589.0, 446.7)">s</text><text xml:space="preserve" font-family="LucidaGrande,Lucida Grande" font-size="31.7" fill="#858585" transform="matrix(1.00, 0.00, -0.00, -1.00, 605.2, 446.7)">i</text><text xml:space="preserve" font-family="LucidaGrande,Lucida Grande" font-size="31.7" fill="#858585" transform="matrix(1.00, 0.00, -0.00, -1.00, 614.4, 446.7)">o</text><text xml:space="preserve" font-family="LucidaGrande,Lucida Grande" font-size="31.7" fill="#858585" transform="matrix(1.00, 0.00, -0.00, -1.00, 633.9, 446.7)">n</text><text xml:space="preserve" font-family="LucidaGrande,Lucida Grande" font-size="31.7" fill="#858585" transform="matrix(1.00, 0.00, -0.00, -1.00, 653.6, 446.7)">I</text><text xml:space="preserve" font-family="LucidaGrande,Lucida Grande" font-size="31.7" fill="#858585" transform="matrix(1.00, 0.00, -0.00, -1.00, 662.7, 446.7)">d</text><text xml:space="preserve" font-family="LucidaGrande,Lucida Grande" font-size="31.7" fill="#858585" transform="matrix(1.00, 0.00, -0.00, -1.00, 682.7, 446.7)">)</text><text xml:space="preserve" font-family="LucidaGrande,Lucida Grande" font-size="31.7" fill="#858585" transform="matrix(1.00, 0.00, -0.00, -1.00, 693.0, 446.7)">;</text><g><clipPath id="clip0x7fd408487560"><path d="M 104.0 383.6 L 121.4 383.6 L 121.4 399.8 L 104.0 399.8 Z M 104.0 383.6 "></path></clipPath><g clip-path="url(#clip0x7fd408487560)"><path d="M 121.1 389.4 C 121.3 389.2 121.4 388.9 121.4 388.7 C 121.4 388.2 121.1 387.7 120.5 387.2 C 119.9 386.8 119.3 386.6 118.6 386.6 C 117.6 386.6 116.5 387.3 115.2 388.7 C 115.2 388.7 115.2 386.6 115.2 386.6 C 115.2 386.4 115.3 386.1 115.4 385.8 C 115.5 385.6 115.6 385.3 115.6 385.2 C 115.6 384.8 115.4 384.4 114.9 384.1 C 114.5 383.8 114.0 383.6 113.6 383.6 C 112.8 383.6 112.1 384.0 111.6 384.6 C 111.4 384.9 111.3 385.4 111.4 386.3 C 111.4 387.3 111.5 388.2 111.6 389.2 C 111.1 388.8 110.2 388.3 108.8 387.6 C 108.6 387.3 108.1 387.0 107.2 386.7 C 106.5 386.7 105.8 386.8 105.1 387.1 C 104.4 387.4 104.0 387.9 104.0 388.4 C 104.0 388.6 104.0 388.7 104.1 388.8 C 104.2 389.1 104.5 389.4 105.0 389.5 C 105.7 389.7 106.1 389.9 106.1 389.9 C 106.1 389.9 110.0 392.0 110.0 392.0 C 110.0 392.0 107.3 393.3 107.3 393.3 C 106.9 393.3 106.3 393.5 105.7 393.9 C 105.5 394.1 105.5 394.3 105.5 394.5 C 105.5 395.2 105.9 395.8 106.6 396.4 C 107.4 397.0 108.2 397.3 109.0 397.3 C 109.2 397.3 109.4 397.3 109.7 397.2 C 110.0 397.1 110.2 396.9 110.4 396.5 C 110.6 396.0 111.0 395.6 111.6 395.3 C 111.6 395.3 111.7 397.7 111.7 397.7 C 111.6 398.1 111.6 398.6 111.7 399.2 C 112.0 399.6 112.7 399.8 113.8 399.8 C 114.7 399.8 115.4 399.5 115.7 399.0 C 115.9 398.7 115.9 398.2 115.8 397.3 C 115.7 396.5 115.6 395.7 115.5 394.9 C 115.5 394.9 117.0 395.7 117.0 395.7 C 117.2 396.0 117.8 396.3 118.6 396.6 C 119.1 396.7 119.6 396.4 120.2 396.0 C 120.7 395.5 121.0 395.0 121.0 394.5 C 121.0 394.2 120.9 394.0 120.8 393.8 C 120.6 393.6 120.4 393.5 120.0 393.4 C 119.6 393.3 119.3 393.2 119.2 393.1 C 119.2 393.1 117.1 391.6 117.1 391.6 C 117.1 391.6 119.8 390.2 119.8 390.2 C 120.1 390.0 120.6 389.8 121.1 389.4 Z M 121.1 389.4 " fill="#3995D6"></path></g></g><text xml:space="preserve" font-family="LucidaGrande,Lucida Grande" font-size="31.7" fill="#858585" transform="matrix(1.00, 0.00, -0.00, -1.00, 138.5, 379.7)">$</text><text xml:space="preserve" font-family="LucidaGrande,Lucida Grande" font-size="31.7" fill="#858585" transform="matrix(1.00, 0.00, -0.00, -1.00, 158.6, 379.7)">u</text><text xml:space="preserve" font-family="LucidaGrande,Lucida Grande" font-size="31.7" fill="#858585" transform="matrix(1.00, 0.00, -0.00, -1.00, 178.3, 379.7)">s</text><text xml:space="preserve" font-family="LucidaGrande,Lucida Grande" font-size="31.7" fill="#858585" transform="matrix(1.00, 0.00, -0.00, -1.00, 194.4, 379.7)">e</text><text xml:space="preserve" font-family="LucidaGrande,Lucida Grande" font-size="31.7" fill="#858585" transform="matrix(1.00, 0.00, -0.00, -1.00, 212.1, 379.7)">r</text><text xml:space="preserve" font-family="LucidaGrande,Lucida Grande" font-size="31.7" fill="#858585" transform="matrix(1.00, 0.00, -0.00, -1.00, 225.1, 379.7)">R</text><text xml:space="preserve" font-family="LucidaGrande,Lucida Grande" font-size="31.7" fill="#858585" transform="matrix(1.00, 0.00, -0.00, -1.00, 245.2, 379.7)">e</text><text xml:space="preserve" font-family="LucidaGrande,Lucida Grande" font-size="31.7" fill="#858585" transform="matrix(1.00, 0.00, -0.00, -1.00, 262.9, 379.7)">s</text><text xml:space="preserve" font-family="LucidaGrande,Lucida Grande" font-size="31.7" fill="#858585" transform="matrix(1.00, 0.00, -0.00, -1.00, 279.1, 379.7)">p</text><text xml:space="preserve" font-family="LucidaGrande,Lucida Grande" font-size="31.7" fill="#858585" transform="matrix(1.00, 0.00, -0.00, -1.00, 299.0, 379.7)">o</text><text xml:space="preserve" font-family="LucidaGrande,Lucida Grande" font-size="31.7" fill="#858585" transform="matrix(1.00, 0.00, -0.00, -1.00, 318.6, 379.7)">n</text><text xml:space="preserve" font-family="LucidaGrande,Lucida Grande" font-size="31.7" fill="#858585" transform="matrix(1.00, 0.00, -0.00, -1.00, 338.2, 379.7)">s</text><text xml:space="preserve" font-family="LucidaGrande,Lucida Grande" font-size="31.7" fill="#858585" transform="matrix(1.00, 0.00, -0.00, -1.00, 354.4, 379.7)">e</text><text xml:space="preserve" font-family="LucidaGrande,Lucida Grande" font-size="31.7" fill="#858585" transform="matrix(1.00, 0.00, -0.00, -1.00, 372.1, 379.7)"> </text><text xml:space="preserve" font-family="LucidaGrande,Lucida Grande" font-size="31.7" fill="#858585" transform="matrix(1.00, 0.00, -0.00, -1.00, 382.2, 379.7)">=</text><text xml:space="preserve" font-family="LucidaGrande,Lucida Grande" font-size="31.7" fill="#858585" transform="matrix(1.00, 0.00, -0.00, -1.00, 407.4, 379.7)"> </text><text xml:space="preserve" font-family="LucidaGrande,Lucida Grande" font-size="31.7" fill="#858585" transform="matrix(1.00, 0.00, -0.00, -1.00, 417.4, 379.7)">$</text><text xml:space="preserve" font-family="LucidaGrande,Lucida Grande" font-size="31.7" fill="#858585" transform="matrix(1.00, 0.00, -0.00, -1.00, 437.5, 379.7)">t</text><text xml:space="preserve" font-family="LucidaGrande,Lucida Grande" font-size="31.7" fill="#858585" transform="matrix(1.00, 0.00, -0.00, -1.00, 449.4, 379.7)">h</text><text xml:space="preserve" font-family="LucidaGrande,Lucida Grande" font-size="31.7" fill="#858585" transform="matrix(1.00, 0.00, -0.00, -1.00, 469.1, 379.7)">i</text><text xml:space="preserve" font-family="LucidaGrande,Lucida Grande" font-size="31.7" fill="#858585" transform="matrix(1.00, 0.00, -0.00, -1.00, 478.3, 379.7)">s</text><text xml:space="preserve" font-family="LucidaGrande,Lucida Grande" font-size="31.7" fill="#858585" transform="matrix(1.00, 0.00, -0.00, -1.00, 494.4, 379.7)">-</text><text xml:space="preserve" font-family="LucidaGrande,Lucida Grande" font-size="31.7" fill="#858585" transform="matrix(1.00, 0.00, -0.00, -1.00, 512.8, 379.7)">&gt;</text><text xml:space="preserve" font-family="LucidaGrande,Lucida Grande" font-size="31.7" fill="#858585" transform="matrix(1.00, 0.00, -0.00, -1.00, 538.0, 379.7)">s</text><text xml:space="preserve" font-family="LucidaGrande,Lucida Grande" font-size="31.7" fill="#858585" transform="matrix(1.00, 0.00, -0.00, -1.00, 554.2, 379.7)">a</text><text xml:space="preserve" font-family="LucidaGrande,Lucida Grande" font-size="31.7" fill="#858585" transform="matrix(1.00, 0.00, -0.00, -1.00, 571.7, 379.7)">-</text><text xml:space="preserve" font-family="LucidaGrande,Lucida Grande" font-size="31.7" fill="#858585" transform="matrix(1.00, 0.00, -0.00, -1.00, 590.1, 379.7)">&gt;</text><text xml:space="preserve" font-family="LucidaGrande,Lucida Grande" font-size="31.7" fill="#858585" transform="matrix(1.00, 0.00, -0.00, -1.00, 615.3, 379.7)">c</text><text xml:space="preserve" font-family="LucidaGrande,Lucida Grande" font-size="31.7" fill="#858585" transform="matrix(1.00, 0.00, -0.00, -1.00, 631.6, 379.7)">a</text><text xml:space="preserve" font-family="LucidaGrande,Lucida Grande" font-size="31.7" fill="#858585" transform="matrix(1.00, 0.00, -0.00, -1.00, 649.1, 379.7)">l</text><text xml:space="preserve" font-family="LucidaGrande,Lucida Grande" font-size="31.7" fill="#858585" transform="matrix(1.00, 0.00, -0.00, -1.00, 658.3, 379.7)">l</text><text xml:space="preserve" font-family="LucidaGrande,Lucida Grande" font-size="31.7" fill="#858585" transform="matrix(1.00, 0.00, -0.00, -1.00, 667.4, 379.7)">B</text><text xml:space="preserve" font-family="LucidaGrande,Lucida Grande" font-size="31.7" fill="#858585" transform="matrix(1.00, 0.00, -0.00, -1.00, 685.7, 379.7)">y</text><text xml:space="preserve" font-family="LucidaGrande,Lucida Grande" font-size="31.7" fill="#858585" transform="matrix(1.00, 0.00, -0.00, -1.00, 702.3, 379.7)">O</text><text xml:space="preserve" font-family="LucidaGrande,Lucida Grande" font-size="31.7" fill="#858585" transform="matrix(1.00, 0.00, -0.00, -1.00, 727.0, 379.7)">b</text><text xml:space="preserve" font-family="LucidaGrande,Lucida Grande" font-size="31.7" fill="#858585" transform="matrix(1.00, 0.00, -0.00, -1.00, 747.0, 379.7)">j</text><text xml:space="preserve" font-family="LucidaGrande,Lucida Grande" font-size="31.7" fill="#858585" transform="matrix(1.00, 0.00, -0.00, -1.00, 756.6, 379.7)">e</text><text xml:space="preserve" font-family="LucidaGrande,Lucida Grande" font-size="31.7" fill="#858585" transform="matrix(1.00, 0.00, -0.00, -1.00, 774.3, 379.7)">c</text><text xml:space="preserve" font-family="LucidaGrande,Lucida Grande" font-size="31.7" fill="#858585" transform="matrix(1.00, 0.00, -0.00, -1.00, 790.6, 379.7)">t</text><text xml:space="preserve" font-family="LucidaGrande,Lucida Grande" font-size="31.7" fill="#858585" transform="matrix(1.00, 0.00, -0.00, -1.00, 802.4, 379.7)">(</text><text xml:space="preserve" font-family="LucidaGrande,Lucida Grande" font-size="31.7" fill="#858585" transform="matrix(1.00, 0.00, -0.00, -1.00, 812.8, 379.7)">a</text><text xml:space="preserve" font-family="LucidaGrande,Lucida Grande" font-size="31.7" fill="#858585" transform="matrix(1.00, 0.00, -0.00, -1.00, 830.3, 379.7)">r</text><text xml:space="preserve" font-family="LucidaGrande,Lucida Grande" font-size="31.7" fill="#858585" transform="matrix(1.00, 0.00, -0.00, -1.00, 843.3, 379.7)">r</text><text xml:space="preserve" font-family="LucidaGrande,Lucida Grande" font-size="31.7" fill="#858585" transform="matrix(1.00, 0.00, -0.00, -1.00, 856.3, 379.7)">a</text><text xml:space="preserve" font-family="LucidaGrande,Lucida Grande" font-size="31.7" fill="#858585" transform="matrix(1.00, 0.00, -0.00, -1.00, 873.8, 379.7)">y</text><text xml:space="preserve" font-family="LucidaGrande,Lucida Grande" font-size="31.7" fill="#858585" transform="matrix(1.00, 0.00, -0.00, -1.00, 890.4, 379.7)">(</text><g><clipPath id="clip0x7fd408496b00"><path d="M 104.0 316.7 L 121.4 316.7 L 121.4 332.9 L 104.0 332.9 Z M 104.0 316.7 "></path></clipPath><g clip-path="url(#clip0x7fd408496b00)"><path d="M 121.1 322.5 C 121.3 322.2 121.4 322.0 121.4 321.7 C 121.4 321.2 121.1 320.7 120.5 320.3 C 119.9 319.8 119.3 319.6 118.6 319.6 C 117.6 319.6 116.5 320.3 115.2 321.7 C 115.2 321.7 115.2 319.6 115.2 319.6 C 115.2 319.4 115.3 319.2 115.4 318.9 C 115.5 318.6 115.6 318.4 115.6 318.2 C 115.6 317.8 115.4 317.4 114.9 317.1 C 114.5 316.8 114.0 316.7 113.6 316.7 C 112.8 316.7 112.1 317.0 111.6 317.7 C 111.4 317.9 111.3 318.4 111.4 319.4 C 111.4 320.3 111.5 321.3 111.6 322.2 C 111.1 321.9 110.2 321.3 108.8 320.6 C 108.6 320.3 108.1 320.1 107.2 319.8 C 106.5 319.7 105.8 319.8 105.1 320.1 C 104.4 320.5 104.0 320.9 104.0 321.4 C 104.0 321.6 104.0 321.7 104.1 321.8 C 104.2 322.2 104.5 322.4 105.0 322.5 C 105.7 322.7 106.1 322.9 106.1 322.9 C 106.1 322.9 110.0 325.0 110.0 325.0 C 110.0 325.0 107.3 326.3 107.3 326.3 C 106.9 326.3 106.3 326.5 105.7 326.9 C 105.5 327.1 105.5 327.3 105.5 327.6 C 105.5 328.2 105.9 328.8 106.6 329.4 C 107.4 330.1 108.2 330.4 109.0 330.4 C 109.2 330.4 109.4 330.3 109.7 330.2 C 110.0 330.1 110.2 329.9 110.4 329.5 C 110.6 329.1 111.0 328.7 111.6 328.3 C 111.6 328.3 111.7 330.8 111.7 330.8 C 111.6 331.1 111.6 331.6 111.7 332.2 C 112.0 332.6 112.7 332.9 113.8 332.9 C 114.7 332.9 115.4 332.6 115.7 332.0 C 115.9 331.7 115.9 331.2 115.8 330.3 C 115.7 329.5 115.6 328.7 115.5 328.0 C 115.5 328.0 117.0 328.7 117.0 328.7 C 117.2 329.0 117.8 329.3 118.6 329.6 C 119.1 329.7 119.6 329.5 120.2 329.0 C 120.7 328.5 121.0 328.0 121.0 327.5 C 121.0 327.3 120.9 327.0 120.8 326.8 C 120.6 326.6 120.4 326.5 120.0 326.4 C 119.6 326.3 119.3 326.2 119.2 326.1 C 119.2 326.1 117.1 324.6 117.1 324.6 C 117.1 324.6 119.8 323.2 119.8 323.2 C 120.1 323.1 120.6 322.8 121.1 322.5 Z M 121.1 322.5 " fill="#3995D6"></path></g></g><text xml:space="preserve" font-family="LucidaGrande,Lucida Grande" font-size="31.7" fill="#858585" transform="matrix(1.00, 0.00, -0.00, -1.00, 138.5, 312.8)"> </text><text xml:space="preserve" font-family="LucidaGrande,Lucida Grande" font-size="31.7" fill="#858585" transform="matrix(1.00, 0.00, -0.00, -1.00, 148.6, 312.8)"> </text><text xml:space="preserve" font-family="LucidaGrande,Lucida Grande" font-size="31.7" fill="#858585" transform="matrix(1.00, 0.00, -0.00, -1.00, 158.6, 312.8)"> </text><text xml:space="preserve" font-family="LucidaGrande,Lucida Grande" font-size="31.7" fill="#858585" transform="matrix(1.00, 0.00, -0.00, -1.00, 168.7, 312.8)"> </text><text xml:space="preserve" font-family="LucidaGrande,Lucida Grande" font-size="31.7" fill="#858585" transform="matrix(1.00, 0.00, -0.00, -1.00, 178.7, 312.8)"> </text><text xml:space="preserve" font-family="LucidaGrande,Lucida Grande" font-size="31.7" fill="#858585" transform="matrix(1.00, 0.00, -0.00, -1.00, 188.8, 312.8)"> </text><text xml:space="preserve" font-family="LucidaGrande,Lucida Grande" font-size="31.7" fill="#858585" transform="matrix(1.00, 0.00, -0.00, -1.00, 198.8, 312.8)"> </text><text xml:space="preserve" font-family="LucidaGrande,Lucida Grande" font-size="31.7" fill="#858585" transform="matrix(1.00, 0.00, -0.00, -1.00, 208.9, 312.8)"> </text><text xml:space="preserve" font-family="LucidaGrande,Lucida Grande" font-size="31.7" fill="#858585" transform="matrix(1.00, 0.00, -0.00, -1.00, 218.9, 312.8)"> </text><text xml:space="preserve" font-family="LucidaGrande,Lucida Grande" font-size="31.7" fill="#858585" transform="matrix(1.00, 0.00, -0.00, -1.00, 229.0, 312.8)"> </text><text xml:space="preserve" font-family="LucidaGrande,Lucida Grande" font-size="31.7" fill="#858585" transform="matrix(1.00, 0.00, -0.00, -1.00, 239.1, 312.8)"> </text><text xml:space="preserve" font-family="LucidaGrande,Lucida Grande" font-size="31.7" fill="#858585" transform="matrix(1.00, 0.00, -0.00, -1.00, 249.1, 312.8)"> </text><text xml:space="preserve" font-family="LucidaGrande,Lucida Grande" font-size="31.7" fill="#858585" transform="matrix(1.00, 0.00, -0.00, -1.00, 259.2, 312.8)">'</text><text xml:space="preserve" font-family="LucidaGrande,Lucida Grande" font-size="31.7" fill="#858585" transform="matrix(1.00, 0.00, -0.00, -1.00, 266.4, 312.8)">s</text><text xml:space="preserve" font-family="LucidaGrande,Lucida Grande" font-size="31.7" fill="#858585" transform="matrix(1.00, 0.00, -0.00, -1.00, 282.6, 312.8)">e</text><text xml:space="preserve" font-family="LucidaGrande,Lucida Grande" font-size="31.7" fill="#858585" transform="matrix(1.00, 0.00, -0.00, -1.00, 300.3, 312.8)">r</text><text xml:space="preserve" font-family="LucidaGrande,Lucida Grande" font-size="31.7" fill="#858585" transform="matrix(1.00, 0.00, -0.00, -1.00, 313.3, 312.8)">v</text><text xml:space="preserve" font-family="LucidaGrande,Lucida Grande" font-size="31.7" fill="#858585" transform="matrix(1.00, 0.00, -0.00, -1.00, 329.7, 312.8)">i</text><text xml:space="preserve" font-family="LucidaGrande,Lucida Grande" font-size="31.7" fill="#858585" transform="matrix(1.00, 0.00, -0.00, -1.00, 338.9, 312.8)">c</text><text xml:space="preserve" font-family="LucidaGrande,Lucida Grande" font-size="31.7" fill="#858585" transform="matrix(1.00, 0.00, -0.00, -1.00, 355.1, 312.8)">e</text><text xml:space="preserve" font-family="LucidaGrande,Lucida Grande" font-size="31.7" fill="#858585" transform="matrix(1.00, 0.00, -0.00, -1.00, 372.8, 312.8)">'</text><text xml:space="preserve" font-family="LucidaGrande,Lucida Grande" font-size="31.7" fill="#858585" transform="matrix(1.00, 0.00, -0.00, -1.00, 380.1, 312.8)"> </text><text xml:space="preserve" font-family="LucidaGrande,Lucida Grande" font-size="31.7" fill="#858585" transform="matrix(1.00, 0.00, -0.00, -1.00, 390.2, 312.8)">=</text><text xml:space="preserve" font-family="LucidaGrande,Lucida Grande" font-size="31.7" fill="#858585" transform="matrix(1.00, 0.00, -0.00, -1.00, 415.4, 312.8)">&gt;</text><text xml:space="preserve" font-family="LucidaGrande,Lucida Grande" font-size="31.7" fill="#858585" transform="matrix(1.00, 0.00, -0.00, -1.00, 440.6, 312.8)"> </text><text xml:space="preserve" font-family="LucidaGrande,Lucida Grande" font-size="31.7" fill="#858585" transform="matrix(1.00, 0.00, -0.00, -1.00, 450.7, 312.8)">'</text><text xml:space="preserve" font-family="LucidaGrande,Lucida Grande" font-size="31.7" fill="#858585" transform="matrix(1.00, 0.00, -0.00, -1.00, 457.9, 312.8)">U</text><text xml:space="preserve" font-family="LucidaGrande,Lucida Grande" font-size="31.7" fill="#858585" transform="matrix(1.00, 0.00, -0.00, -1.00, 479.9, 312.8)">s</text><text xml:space="preserve" font-family="LucidaGrande,Lucida Grande" font-size="31.7" fill="#858585" transform="matrix(1.00, 0.00, -0.00, -1.00, 496.1, 312.8)">e</text><text xml:space="preserve" font-family="LucidaGrande,Lucida Grande" font-size="31.7" fill="#858585" transform="matrix(1.00, 0.00, -0.00, -1.00, 513.8, 312.8)">r</text><text xml:space="preserve" font-family="LucidaGrande,Lucida Grande" font-size="31.7" fill="#858585" transform="matrix(1.00, 0.00, -0.00, -1.00, 526.8, 312.8)">'</text><text xml:space="preserve" font-family="LucidaGrande,Lucida Grande" font-size="31.7" fill="#858585" transform="matrix(1.00, 0.00, -0.00, -1.00, 534.0, 312.8)">,</text><g><clipPath id="clip0x7fd4084a9940"><path d="M 104.0 249.7 L 121.4 249.7 L 121.4 265.9 L 104.0 265.9 Z M 104.0 249.7 "></path></clipPath><g clip-path="url(#clip0x7fd4084a9940)"><path d="M 121.1 255.5 C 121.3 255.2 121.4 255.0 121.4 254.7 C 121.4 254.2 121.1 253.7 120.5 253.3 C 119.9 252.8 119.3 252.6 118.6 252.6 C 117.6 252.6 116.5 253.3 115.2 254.7 C 115.2 254.7 115.2 252.6 115.2 252.6 C 115.2 252.4 115.3 252.2 115.4 251.9 C 115.5 251.6 115.6 251.4 115.6 251.2 C 115.6 250.8 115.4 250.4 114.9 250.1 C 114.5 249.8 114.0 249.7 113.6 249.7 C 112.8 249.7 112.1 250.0 111.6 250.7 C 111.4 250.9 111.3 251.5 111.4 252.4 C 111.4 253.3 111.5 254.3 111.6 255.2 C 111.1 254.9 110.2 254.4 108.8 253.6 C 108.6 253.4 108.1 253.1 107.2 252.8 C 106.5 252.7 105.8 252.8 105.1 253.2 C 104.4 253.5 104.0 253.9 104.0 254.5 C 104.0 254.6 104.0 254.7 104.1 254.9 C 104.2 255.2 104.5 255.4 105.0 255.5 C 105.7 255.8 106.1 255.9 106.1 255.9 C 106.1 255.9 110.0 258.0 110.0 258.0 C 110.0 258.0 107.3 259.3 107.3 259.3 C 106.9 259.3 106.3 259.5 105.7 259.9 C 105.5 260.1 105.5 260.3 105.5 260.6 C 105.5 261.2 105.9 261.8 106.6 262.5 C 107.4 263.1 108.2 263.4 109.0 263.4 C 109.2 263.4 109.4 263.3 109.7 263.3 C 110.0 263.2 110.2 262.9 110.4 262.6 C 110.6 262.1 111.0 261.7 111.6 261.3 C 111.6 261.3 111.7 263.8 111.7 263.8 C 111.6 264.1 111.6 264.6 111.7 265.3 C 112.0 265.7 112.7 265.9 113.8 265.9 C 114.7 265.9 115.4 265.6 115.7 265.0 C 115.9 264.8 115.9 264.2 115.8 263.3 C 115.7 262.5 115.6 261.8 115.5 261.0 C 115.5 261.0 117.0 261.7 117.0 261.7 C 117.2 262.0 117.8 262.3 118.6 262.7 C 119.1 262.7 119.6 262.5 120.2 262.0 C 120.7 261.6 121.0 261.1 121.0 260.5 C 121.0 260.3 120.9 260.1 120.8 259.9 C 120.6 259.7 120.4 259.5 120.0 259.5 C 119.6 259.3 119.3 259.2 119.2 259.1 C 119.2 259.1 117.1 257.7 117.1 257.7 C 117.1 257.7 119.8 256.2 119.8 256.2 C 120.1 256.1 120.6 255.9 121.1 255.5 Z M 121.1 255.5 " fill="#3995D6"></path></g></g><text xml:space="preserve" font-family="LucidaGrande,Lucida Grande" font-size="31.7" fill="#858585" transform="matrix(1.00, 0.00, -0.00, -1.00, 138.5, 245.8)"> </text><text xml:space="preserve" font-family="LucidaGrande,Lucida Grande" font-size="31.7" fill="#858585" transform="matrix(1.00, 0.00, -0.00, -1.00, 148.6, 245.8)"> </text><text xml:space="preserve" font-family="LucidaGrande,Lucida Grande" font-size="31.7" fill="#858585" transform="matrix(1.00, 0.00, -0.00, -1.00, 158.6, 245.8)"> </text><text xml:space="preserve" font-family="LucidaGrande,Lucida Grande" font-size="31.7" fill="#858585" transform="matrix(1.00, 0.00, -0.00, -1.00, 168.7, 245.8)"> </text><text xml:space="preserve" font-family="LucidaGrande,Lucida Grande" font-size="31.7" fill="#858585" transform="matrix(1.00, 0.00, -0.00, -1.00, 178.7, 245.8)"> </text><text xml:space="preserve" font-family="LucidaGrande,Lucida Grande" font-size="31.7" fill="#858585" transform="matrix(1.00, 0.00, -0.00, -1.00, 188.8, 245.8)"> </text><text xml:space="preserve" font-family="LucidaGrande,Lucida Grande" font-size="31.7" fill="#858585" transform="matrix(1.00, 0.00, -0.00, -1.00, 198.8, 245.8)"> </text><text xml:space="preserve" font-family="LucidaGrande,Lucida Grande" font-size="31.7" fill="#858585" transform="matrix(1.00, 0.00, -0.00, -1.00, 208.9, 245.8)"> </text><text xml:space="preserve" font-family="LucidaGrande,Lucida Grande" font-size="31.7" fill="#858585" transform="matrix(1.00, 0.00, -0.00, -1.00, 218.9, 245.8)"> </text><text xml:space="preserve" font-family="LucidaGrande,Lucida Grande" font-size="31.7" fill="#858585" transform="matrix(1.00, 0.00, -0.00, -1.00, 229.0, 245.8)"> </text><text xml:space="preserve" font-family="LucidaGrande,Lucida Grande" font-size="31.7" fill="#858585" transform="matrix(1.00, 0.00, -0.00, -1.00, 239.1, 245.8)"> </text><text xml:space="preserve" font-family="LucidaGrande,Lucida Grande" font-size="31.7" fill="#858585" transform="matrix(1.00, 0.00, -0.00, -1.00, 249.1, 245.8)"> </text><text xml:space="preserve" font-family="LucidaGrande,Lucida Grande" font-size="31.7" fill="#858585" transform="matrix(1.00, 0.00, -0.00, -1.00, 259.2, 245.8)">'</text><text xml:space="preserve" font-family="LucidaGrande,Lucida Grande" font-size="31.7" fill="#858585" transform="matrix(1.00, 0.00, -0.00, -1.00, 266.4, 245.8)">m</text><text xml:space="preserve" font-family="LucidaGrande,Lucida Grande" font-size="31.7" fill="#858585" transform="matrix(1.00, 0.00, -0.00, -1.00, 296.1, 245.8)">e</text><text xml:space="preserve" font-family="LucidaGrande,Lucida Grande" font-size="31.7" fill="#858585" transform="matrix(1.00, 0.00, -0.00, -1.00, 313.7, 245.8)">t</text><text xml:space="preserve" font-family="LucidaGrande,Lucida Grande" font-size="31.7" fill="#858585" transform="matrix(1.00, 0.00, -0.00, -1.00, 325.6, 245.8)">h</text><text xml:space="preserve" font-family="LucidaGrande,Lucida Grande" font-size="31.7" fill="#858585" transform="matrix(1.00, 0.00, -0.00, -1.00, 345.3, 245.8)">o</text><text xml:space="preserve" font-family="LucidaGrande,Lucida Grande" font-size="31.7" fill="#858585" transform="matrix(1.00, 0.00, -0.00, -1.00, 364.8, 245.8)">d</text><text xml:space="preserve" font-family="LucidaGrande,Lucida Grande" font-size="31.7" fill="#858585" transform="matrix(1.00, 0.00, -0.00, -1.00, 384.8, 245.8)">'</text><text xml:space="preserve" font-family="LucidaGrande,Lucida Grande" font-size="31.7" fill="#858585" transform="matrix(1.00, 0.00, -0.00, -1.00, 392.1, 245.8)"> </text><text xml:space="preserve" font-family="LucidaGrande,Lucida Grande" font-size="31.7" fill="#858585" transform="matrix(1.00, 0.00, -0.00, -1.00, 402.1, 245.8)"> </text><text xml:space="preserve" font-family="LucidaGrande,Lucida Grande" font-size="31.7" fill="#858585" transform="matrix(1.00, 0.00, -0.00, -1.00, 412.2, 245.8)">=</text><text xml:space="preserve" font-family="LucidaGrande,Lucida Grande" font-size="31.7" fill="#858585" transform="matrix(1.00, 0.00, -0.00, -1.00, 437.4, 245.8)">&gt;</text><text xml:space="preserve" font-family="LucidaGrande,Lucida Grande" font-size="31.7" fill="#858585" transform="matrix(1.00, 0.00, -0.00, -1.00, 462.6, 245.8)"> </text><text xml:space="preserve" font-family="LucidaGrande,Lucida Grande" font-size="31.7" fill="#858585" transform="matrix(1.00, 0.00, -0.00, -1.00, 472.7, 245.8)">'</text><text xml:space="preserve" font-family="LucidaGrande,Lucida Grande" font-size="31.7" fill="#858585" transform="matrix(1.00, 0.00, -0.00, -1.00, 480.0, 245.8)">g</text><text xml:space="preserve" font-family="LucidaGrande,Lucida Grande" font-size="31.7" fill="#858585" transform="matrix(1.00, 0.00, -0.00, -1.00, 499.7, 245.8)">e</text><text xml:space="preserve" font-family="LucidaGrande,Lucida Grande" font-size="31.7" fill="#858585" transform="matrix(1.00, 0.00, -0.00, -1.00, 517.4, 245.8)">t</text><text xml:space="preserve" font-family="LucidaGrande,Lucida Grande" font-size="31.7" fill="#858585" transform="matrix(1.00, 0.00, -0.00, -1.00, 529.3, 245.8)">L</text><text xml:space="preserve" font-family="LucidaGrande,Lucida Grande" font-size="31.7" fill="#858585" transform="matrix(1.00, 0.00, -0.00, -1.00, 546.2, 245.8)">o</text><text xml:space="preserve" font-family="LucidaGrande,Lucida Grande" font-size="31.7" fill="#858585" transform="matrix(1.00, 0.00, -0.00, -1.00, 565.7, 245.8)">g</text><text xml:space="preserve" font-family="LucidaGrande,Lucida Grande" font-size="31.7" fill="#858585" transform="matrix(1.00, 0.00, -0.00, -1.00, 585.5, 245.8)">i</text><text xml:space="preserve" font-family="LucidaGrande,Lucida Grande" font-size="31.7" fill="#858585" transform="matrix(1.00, 0.00, -0.00, -1.00, 594.7, 245.8)">n</text><text xml:space="preserve" font-family="LucidaGrande,Lucida Grande" font-size="31.7" fill="#858585" transform="matrix(1.00, 0.00, -0.00, -1.00, 614.4, 245.8)">U</text><text xml:space="preserve" font-family="LucidaGrande,Lucida Grande" font-size="31.7" fill="#858585" transform="matrix(1.00, 0.00, -0.00, -1.00, 636.3, 245.8)">s</text><text xml:space="preserve" font-family="LucidaGrande,Lucida Grande" font-size="31.7" fill="#858585" transform="matrix(1.00, 0.00, -0.00, -1.00, 652.5, 245.8)">e</text><text xml:space="preserve" font-family="LucidaGrande,Lucida Grande" font-size="31.7" fill="#858585" transform="matrix(1.00, 0.00, -0.00, -1.00, 670.2, 245.8)">r</text><text xml:space="preserve" font-family="LucidaGrande,Lucida Grande" font-size="31.7" fill="#858585" transform="matrix(1.00, 0.00, -0.00, -1.00, 683.2, 245.8)">'</text><text xml:space="preserve" font-family="LucidaGrande,Lucida Grande" font-size="31.7" fill="#858585" transform="matrix(1.00, 0.00, -0.00, -1.00, 690.5, 245.8)">,</text><g><clipPath id="clip0x7fd4084b6e40"><path d="M 104.0 182.7 L 121.4 182.7 L 121.4 198.9 L 104.0 198.9 Z M 104.0 182.7 "></path></clipPath><g clip-path="url(#clip0x7fd4084b6e40)"><path d="M 121.1 188.5 C 121.3 188.3 121.4 188.0 121.4 187.7 C 121.4 187.2 121.1 186.7 120.5 186.3 C 119.9 185.9 119.3 185.6 118.6 185.6 C 117.6 185.6 116.5 186.3 115.2 187.7 C 115.2 187.7 115.2 185.6 115.2 185.6 C 115.2 185.4 115.3 185.2 115.4 184.9 C 115.5 184.6 115.6 184.4 115.6 184.3 C 115.6 183.8 115.4 183.5 114.9 183.1 C 114.5 182.8 114.0 182.7 113.6 182.7 C 112.8 182.7 112.1 183.0 111.6 183.7 C 111.4 183.9 111.3 184.5 111.4 185.4 C 111.4 186.3 111.5 187.3 111.6 188.2 C 111.1 187.9 110.2 187.4 108.8 186.7 C 108.6 186.4 108.1 186.1 107.2 185.8 C 106.5 185.7 105.8 185.9 105.1 186.2 C 104.4 186.5 104.0 186.9 104.0 187.5 C 104.0 187.6 104.0 187.7 104.1 187.9 C 104.2 188.2 104.5 188.4 105.0 188.5 C 105.7 188.8 106.1 188.9 106.1 189.0 C 106.1 189.0 110.0 191.0 110.0 191.0 C 110.0 191.0 107.3 192.4 107.3 192.4 C 106.9 192.4 106.3 192.6 105.7 192.9 C 105.5 193.1 105.5 193.4 105.5 193.6 C 105.5 194.2 105.9 194.9 106.6 195.5 C 107.4 196.1 108.2 196.4 109.0 196.4 C 109.2 196.4 109.4 196.4 109.7 196.3 C 110.0 196.2 110.2 196.0 110.4 195.6 C 110.6 195.1 111.0 194.7 111.6 194.4 C 111.6 194.4 111.7 196.8 111.7 196.8 C 111.6 197.1 111.6 197.6 111.7 198.3 C 112.0 198.7 112.7 198.9 113.8 198.9 C 114.7 198.9 115.4 198.6 115.7 198.0 C 115.9 197.8 115.9 197.2 115.8 196.3 C 115.7 195.6 115.6 194.8 115.5 194.0 C 115.5 194.0 117.0 194.7 117.0 194.7 C 117.2 195.0 117.8 195.3 118.6 195.7 C 119.1 195.7 119.6 195.5 120.2 195.0 C 120.7 194.6 121.0 194.1 121.0 193.5 C 121.0 193.3 120.9 193.1 120.8 192.9 C 120.6 192.7 120.4 192.5 120.0 192.5 C 119.6 192.4 119.3 192.3 119.2 192.2 C 119.2 192.2 117.1 190.7 117.1 190.7 C 117.1 190.7 119.8 189.2 119.8 189.2 C 120.1 189.1 120.6 188.9 121.1 188.5 Z M 121.1 188.5 " fill="#3995D6"></path></g></g><text xml:space="preserve" font-family="LucidaGrande,Lucida Grande" font-size="31.7" fill="#858585" transform="matrix(1.00, 0.00, -0.00, -1.00, 138.5, 178.8)"> </text><text xml:space="preserve" font-family="LucidaGrande,Lucida Grande" font-size="31.7" fill="#858585" transform="matrix(1.00, 0.00, -0.00, -1.00, 148.6, 178.8)"> </text><text xml:space="preserve" font-family="LucidaGrande,Lucida Grande" font-size="31.7" fill="#858585" transform="matrix(1.00, 0.00, -0.00, -1.00, 158.6, 178.8)"> </text><text xml:space="preserve" font-family="LucidaGrande,Lucida Grande" font-size="31.7" fill="#858585" transform="matrix(1.00, 0.00, -0.00, -1.00, 168.7, 178.8)"> </text><text xml:space="preserve" font-family="LucidaGrande,Lucida Grande" font-size="31.7" fill="#858585" transform="matrix(1.00, 0.00, -0.00, -1.00, 178.7, 178.8)"> </text><text xml:space="preserve" font-family="LucidaGrande,Lucida Grande" font-size="31.7" fill="#858585" transform="matrix(1.00, 0.00, -0.00, -1.00, 188.8, 178.8)"> </text><text xml:space="preserve" font-family="LucidaGrande,Lucida Grande" font-size="31.7" fill="#858585" transform="matrix(1.00, 0.00, -0.00, -1.00, 198.8, 178.8)"> </text><text xml:space="preserve" font-family="LucidaGrande,Lucida Grande" font-size="31.7" fill="#858585" transform="matrix(1.00, 0.00, -0.00, -1.00, 208.9, 178.8)"> </text><text xml:space="preserve" font-family="LucidaGrande,Lucida Grande" font-size="31.7" fill="#858585" transform="matrix(1.00, 0.00, -0.00, -1.00, 218.9, 178.8)"> </text><text xml:space="preserve" font-family="LucidaGrande,Lucida Grande" font-size="31.7" fill="#858585" transform="matrix(1.00, 0.00, -0.00, -1.00, 229.0, 178.8)"> </text><text xml:space="preserve" font-family="LucidaGrande,Lucida Grande" font-size="31.7" fill="#858585" transform="matrix(1.00, 0.00, -0.00, -1.00, 239.1, 178.8)"> </text><text xml:space="preserve" font-family="LucidaGrande,Lucida Grande" font-size="31.7" fill="#858585" transform="matrix(1.00, 0.00, -0.00, -1.00, 249.1, 178.8)"> </text><text xml:space="preserve" font-family="LucidaGrande,Lucida Grande" font-size="31.7" fill="#858585" transform="matrix(1.00, 0.00, -0.00, -1.00, 259.2, 178.8)">'</text><text xml:space="preserve" font-family="LucidaGrande,Lucida Grande" font-size="31.7" fill="#858585" transform="matrix(1.00, 0.00, -0.00, -1.00, 266.4, 178.8)">a</text><text xml:space="preserve" font-family="LucidaGrande,Lucida Grande" font-size="31.7" fill="#858585" transform="matrix(1.00, 0.00, -0.00, -1.00, 284.0, 178.8)">r</text><text xml:space="preserve" font-family="LucidaGrande,Lucida Grande" font-size="31.7" fill="#858585" transform="matrix(1.00, 0.00, -0.00, -1.00, 297.0, 178.8)">g</text><text xml:space="preserve" font-family="LucidaGrande,Lucida Grande" font-size="31.7" fill="#858585" transform="matrix(1.00, 0.00, -0.00, -1.00, 316.7, 178.8)">s</text><text xml:space="preserve" font-family="LucidaGrande,Lucida Grande" font-size="31.7" fill="#858585" transform="matrix(1.00, 0.00, -0.00, -1.00, 332.9, 178.8)">'</text><text xml:space="preserve" font-family="LucidaGrande,Lucida Grande" font-size="31.7" fill="#858585" transform="matrix(1.00, 0.00, -0.00, -1.00, 340.2, 178.8)"> </text><text xml:space="preserve" font-family="LucidaGrande,Lucida Grande" font-size="31.7" fill="#858585" transform="matrix(1.00, 0.00, -0.00, -1.00, 350.2, 178.8)">=</text><text xml:space="preserve" font-family="LucidaGrande,Lucida Grande" font-size="31.7" fill="#858585" transform="matrix(1.00, 0.00, -0.00, -1.00, 375.5, 178.8)">&gt;</text><text xml:space="preserve" font-family="LucidaGrande,Lucida Grande" font-size="31.7" fill="#858585" transform="matrix(1.00, 0.00, -0.00, -1.00, 400.7, 178.8)"> </text><text xml:space="preserve" font-family="LucidaGrande,Lucida Grande" font-size="31.7" fill="#858585" transform="matrix(1.00, 0.00, -0.00, -1.00, 410.7, 178.8)">$</text><text xml:space="preserve" font-family="LucidaGrande,Lucida Grande" font-size="31.7" fill="#858585" transform="matrix(1.00, 0.00, -0.00, -1.00, 430.8, 178.8)">r</text><text xml:space="preserve" font-family="LucidaGrande,Lucida Grande" font-size="31.7" fill="#858585" transform="matrix(1.00, 0.00, -0.00, -1.00, 443.8, 178.8)">e</text><text xml:space="preserve" font-family="LucidaGrande,Lucida Grande" font-size="31.7" fill="#858585" transform="matrix(1.00, 0.00, -0.00, -1.00, 461.5, 178.8)">q</text><text xml:space="preserve" font-family="LucidaGrande,Lucida Grande" font-size="31.7" fill="#858585" transform="matrix(1.00, 0.00, -0.00, -1.00, 481.5, 178.8)">u</text><text xml:space="preserve" font-family="LucidaGrande,Lucida Grande" font-size="31.7" fill="#858585" transform="matrix(1.00, 0.00, -0.00, -1.00, 501.2, 178.8)">e</text><text xml:space="preserve" font-family="LucidaGrande,Lucida Grande" font-size="31.7" fill="#858585" transform="matrix(1.00, 0.00, -0.00, -1.00, 518.9, 178.8)">s</text><text xml:space="preserve" font-family="LucidaGrande,Lucida Grande" font-size="31.7" fill="#858585" transform="matrix(1.00, 0.00, -0.00, -1.00, 535.0, 178.8)">t</text><g><clipPath id="clip0x7fd4084b72a0"><path d="M 104.0 115.7 L 121.4 115.7 L 121.4 131.9 L 104.0 131.9 Z M 104.0 115.7 "></path></clipPath><g clip-path="url(#clip0x7fd4084b72a0)"><path d="M 121.1 121.5 C 121.3 121.3 121.4 121.0 121.4 120.8 C 121.4 120.2 121.1 119.8 120.5 119.3 C 119.9 118.9 119.3 118.7 118.6 118.7 C 117.6 118.7 116.5 119.4 115.2 120.8 C 115.2 120.8 115.2 118.7 115.2 118.7 C 115.2 118.5 115.3 118.2 115.4 117.9 C 115.5 117.6 115.6 117.4 115.6 117.3 C 115.6 116.8 115.4 116.5 114.9 116.2 C 114.5 115.9 114.0 115.7 113.6 115.7 C 112.8 115.7 112.1 116.1 111.6 116.7 C 111.4 116.9 111.3 117.5 111.4 118.4 C 111.4 119.4 111.5 120.3 111.6 121.3 C 111.1 120.9 110.2 120.4 108.8 119.7 C 108.6 119.4 108.1 119.1 107.2 118.8 C 106.5 118.7 105.8 118.9 105.1 119.2 C 104.4 119.5 104.0 120.0 104.0 120.5 C 104.0 120.6 104.0 120.8 104.1 120.9 C 104.2 121.2 104.5 121.4 105.0 121.6 C 105.7 121.8 106.1 121.9 106.1 122.0 C 106.1 122.0 110.0 124.1 110.0 124.1 C 110.0 124.1 107.3 125.4 107.3 125.4 C 106.9 125.4 106.3 125.6 105.7 125.9 C 105.5 126.2 105.5 126.4 105.5 126.6 C 105.5 127.3 105.9 127.9 106.6 128.5 C 107.4 129.1 108.2 129.4 109.0 129.4 C 109.2 129.4 109.4 129.4 109.7 129.3 C 110.0 129.2 110.2 129.0 110.4 128.6 C 110.6 128.1 111.0 127.7 111.6 127.4 C 111.6 127.4 111.7 129.8 111.7 129.8 C 111.6 130.2 111.6 130.7 111.7 131.3 C 112.0 131.7 112.7 131.9 113.8 131.9 C 114.7 131.9 115.4 131.6 115.7 131.0 C 115.9 130.8 115.9 130.2 115.8 129.4 C 115.7 128.6 115.6 127.8 115.5 127.0 C 115.5 127.0 117.0 127.7 117.0 127.7 C 117.2 128.0 117.8 128.4 118.6 128.7 C 119.1 128.7 119.6 128.5 120.2 128.1 C 120.7 127.6 121.0 127.1 121.0 126.6 C 121.0 126.3 120.9 126.1 120.8 125.9 C 120.6 125.7 120.4 125.6 120.0 125.5 C 119.6 125.4 119.3 125.3 119.2 125.2 C 119.2 125.2 117.1 123.7 117.1 123.7 C 117.1 123.7 119.8 122.2 119.8 122.2 C 120.1 122.1 120.6 121.9 121.1 121.5 Z M 121.1 121.5 " fill="#3995D6"></path></g></g><text xml:space="preserve" font-family="LucidaGrande,Lucida Grande" font-size="31.7" fill="#858585" transform="matrix(1.00, 0.00, -0.00, -1.00, 138.5, 111.8)">)</text><text xml:space="preserve" font-family="LucidaGrande,Lucida Grande" font-size="31.7" fill="#858585" transform="matrix(1.00, 0.00, -0.00, -1.00, 148.8, 111.8)">)</text><text xml:space="preserve" font-family="LucidaGrande,Lucida Grande" font-size="31.7" fill="#858585" transform="matrix(1.00, 0.00, -0.00, -1.00, 159.2, 111.8)">;</text><image xlink:href="35A9E3073C174FED99869D0D22AACB33.png" width="1074.00" height="196.00" transform="matrix(0.54, 0.00, -0.00, -0.54, 424.0, 131.0)"></image></g></svg>